<svg width="1440" height="923" viewBox="0 0 1440 923" fill="none" xmlns="http://www.w3.org/2000/svg">
<mask id="path-1-outside-1_3756_92352" maskUnits="userSpaceOnUse" x="-1" y="40.7344" width="1442" height="834" fill="black">
<rect fill="white" x="-1" y="40.7344" width="1442" height="834"/>
<path fill-rule="evenodd" clip-rule="evenodd" d="M1440 69.4329V451.633V849.008C1440 849.008 1195.54 776.681 898.594 812.844C763.923 829.246 678.094 817.662 605.155 807.818C517.268 795.956 448.097 786.621 334.745 831.814C127.324 914.514 0 849.008 0 849.008V451.633V69.4329C0 69.4329 295.312 206.823 541.406 104.216C671.145 50.1217 729.36 68.4607 785.798 86.24C836.414 102.185 885.601 117.68 983.672 80.0723C1191.09 0.53054 1440 69.4329 1440 69.4329Z"/>
</mask>
<path fill-rule="evenodd" clip-rule="evenodd" d="M1440 69.4329V451.633V849.008C1440 849.008 1195.54 776.681 898.594 812.844C763.923 829.246 678.094 817.662 605.155 807.818C517.268 795.956 448.097 786.621 334.745 831.814C127.324 914.514 0 849.008 0 849.008V451.633V69.4329C0 69.4329 295.312 206.823 541.406 104.216C671.145 50.1217 729.36 68.4607 785.798 86.24C836.414 102.185 885.601 117.68 983.672 80.0723C1191.09 0.53054 1440 69.4329 1440 69.4329Z" fill="url(#paint0_linear_3756_92352)"/>
<path d="M1440 69.4329H1441V68.6722L1440.27 68.4692L1440 69.4329ZM1440 849.008L1439.72 849.967L1441 850.347V849.008H1440ZM898.594 812.844L898.715 813.837L898.594 812.844ZM605.155 807.818L605.289 806.827L605.155 807.818ZM334.745 831.814L334.375 830.885L334.745 831.814ZM0 849.008H-1V849.618L-0.457487 849.897L0 849.008ZM0 69.4329L0.42182 68.5263L-1 67.8648V69.4329H0ZM541.406 104.216L541.021 103.293L541.406 104.216ZM785.798 86.24L785.498 87.1938L785.798 86.24ZM983.672 80.0723L983.314 79.1386L983.672 80.0723ZM1441 451.633V69.4329H1439V451.633H1441ZM1441 849.008V451.633H1439V849.008H1441ZM898.715 813.837C1047.08 795.768 1182.34 804.802 1280.51 818.356C1329.6 825.132 1369.41 833.037 1396.94 839.247C1410.71 842.353 1421.41 845.034 1428.66 846.938C1432.29 847.89 1435.05 848.648 1436.91 849.168C1437.84 849.427 1438.54 849.628 1439.01 849.763C1439.25 849.83 1439.42 849.881 1439.54 849.916C1439.6 849.933 1439.64 849.946 1439.67 849.954C1439.69 849.959 1439.7 849.962 1439.71 849.964C1439.71 849.965 1439.71 849.966 1439.71 849.966C1439.72 849.967 1439.72 849.967 1440 849.008C1440.28 848.049 1440.28 848.049 1440.28 848.048C1440.28 848.048 1440.28 848.047 1440.27 848.046C1440.26 848.043 1440.25 848.04 1440.24 848.036C1440.21 848.027 1440.16 848.013 1440.1 847.996C1439.98 847.961 1439.8 847.909 1439.57 847.841C1439.09 847.704 1438.39 847.503 1437.45 847.242C1435.58 846.719 1432.81 845.959 1429.17 845.004C1421.89 843.094 1411.17 840.407 1397.38 837.297C1369.8 831.076 1329.94 823.159 1280.79 816.374C1182.49 802.805 1047.05 793.757 898.473 811.852L898.715 813.837ZM605.022 808.809C677.988 818.657 763.917 830.254 898.715 813.837L898.473 811.852C763.929 828.237 678.2 816.667 605.289 806.827L605.022 808.809ZM335.116 832.743C448.221 787.648 517.18 796.953 605.022 808.809L605.289 806.827C517.356 794.959 447.972 785.594 334.375 830.885L335.116 832.743ZM0 849.008C-0.457487 849.897 -0.45649 849.898 -0.455007 849.899C-0.453866 849.899 -0.451897 849.9 -0.449613 849.901C-0.445046 849.904 -0.438537 849.907 -0.430089 849.911C-0.413194 849.92 -0.388543 849.932 -0.356159 849.949C-0.29139 849.981 -0.195689 850.029 -0.0692362 850.091C0.18367 850.215 0.559588 850.397 1.05708 850.63C2.05205 851.095 3.53333 851.763 5.48938 852.583C9.40145 854.224 15.2127 856.47 22.8309 858.904C38.0674 863.772 60.532 869.391 89.4855 872.418C147.399 878.473 231.248 874.155 335.116 832.743L334.375 830.885C230.821 872.173 147.298 876.452 89.6935 870.429C60.8885 867.417 38.5582 861.829 23.4396 856.999C15.8803 854.584 10.1239 852.358 6.26274 850.739C4.33216 849.93 2.87541 849.272 1.90401 848.818C1.41831 848.591 1.05396 848.415 0.812391 848.296C0.691606 848.237 0.601518 848.192 0.542307 848.162C0.512702 848.147 0.490816 848.136 0.476672 848.129C0.4696 848.125 0.464463 848.122 0.461264 848.121C0.459665 848.12 0.458721 848.12 0.457921 848.119C0.457461 848.119 0.457487 848.119 0 849.008ZM-1 451.633V849.008H1V451.633H-1ZM-1 69.4329V451.633H1V69.4329H-1ZM541.021 103.293C418.241 154.485 283.121 145.826 178.62 124.323C126.38 113.573 81.8217 99.6204 50.3246 88.3553C34.5766 82.723 22.0954 77.7632 13.5537 74.2126C9.2829 72.4374 5.9971 71.0144 3.78039 70.036C2.67203 69.5468 1.83097 69.1687 1.2677 68.9132C0.986066 68.7855 0.773883 68.6884 0.632465 68.6234C0.561756 68.591 0.508738 68.5665 0.473576 68.5502C0.455994 68.5421 0.442877 68.536 0.434245 68.532C0.429928 68.53 0.426822 68.5286 0.424661 68.5276C0.422679 68.5267 0.42182 68.5263 0 69.4329C-0.42182 70.3396 -0.420426 70.3403 -0.417907 70.3414C-0.415567 70.3425 -0.411924 70.3442 -0.407249 70.3464C-0.397898 70.3507 -0.384061 70.3571 -0.365757 70.3656C-0.32915 70.3825 -0.274679 70.4077 -0.202507 70.4408C-0.0581625 70.5071 0.156984 70.6056 0.441618 70.7347C1.01089 70.9928 1.85811 71.3737 2.97277 71.8657C5.20209 72.8497 8.50122 74.2783 12.786 76.0594C21.3555 79.6216 33.8682 84.5937 49.651 90.2385C81.2154 101.528 125.866 115.509 178.216 126.282C282.895 147.821 418.478 156.553 541.791 105.139L541.021 103.293ZM786.099 85.2862C757.879 76.3964 729.085 67.321 691.091 67.2754C653.098 67.2298 605.976 76.21 541.021 103.293L541.791 105.139C606.575 78.1273 653.43 69.2302 691.089 69.2754C728.746 69.3206 757.279 78.3043 785.498 87.1938L786.099 85.2862ZM983.314 79.1386C934.377 97.9048 897.698 103.399 866.977 102.239C836.245 101.079 811.413 93.2609 786.099 85.2862L785.498 87.1938C810.799 95.1644 835.868 103.066 866.902 104.238C897.946 105.41 934.896 99.8479 984.03 81.0061L983.314 79.1386ZM1440 69.4329C1440.27 68.4692 1440.27 68.4689 1440.26 68.4683C1440.26 68.4677 1440.26 68.4669 1440.25 68.4658C1440.25 68.4636 1440.23 68.4604 1440.22 68.4561C1440.19 68.4477 1440.14 68.4351 1440.08 68.4185C1439.96 68.3853 1439.78 68.3361 1439.54 68.2718C1439.06 68.1432 1438.34 67.9538 1437.4 67.7105C1435.53 67.2238 1432.74 66.521 1429.13 65.6552C1421.91 63.9236 1411.36 61.5398 1398.06 58.9285C1371.46 53.7061 1333.82 47.5729 1289.7 43.9279C1201.48 36.6392 1087.22 39.2914 983.314 79.1386L984.03 81.0061C1087.54 41.3115 1201.45 38.644 1289.54 45.9211C1333.57 49.5589 1371.13 55.6799 1397.67 60.8911C1410.95 63.4965 1421.47 65.8743 1428.67 67.6001C1432.27 68.463 1435.04 69.1628 1436.9 69.6466C1437.84 69.8885 1438.55 70.0764 1439.02 70.2036C1439.26 70.2672 1439.44 70.3157 1439.56 70.3481C1439.62 70.3644 1439.66 70.3766 1439.69 70.3847C1439.7 70.3888 1439.72 70.3918 1439.72 70.3938C1439.73 70.3948 1439.73 70.3955 1439.73 70.396C1439.73 70.3965 1439.73 70.3967 1440 69.4329Z" fill="#4AFF85" mask="url(#path-1-outside-1_3756_92352)"/>
<g opacity="0.6">
<mask id="path-3-outside-2_3756_92352" maskUnits="userSpaceOnUse" x="-37.9062" y="19.0938" width="1516" height="877" fill="black">
<rect fill="white" x="-37.9062" y="19.0938" width="1516" height="877"/>
<path fill-rule="evenodd" clip-rule="evenodd" d="M-36.9036 451.005H-36.9062V49.2122C-36.9062 49.2122 273.545 193.645 532.254 85.7779C668.643 28.9111 729.842 48.1901 789.174 66.8809C842.384 83.6435 894.093 99.9329 997.191 60.397C1215.25 -23.2223 1476.91 49.2122 1476.91 49.2122V451.005H1476.91V868.75C1476.91 868.75 1219.92 792.715 907.754 830.733C766.18 847.975 675.951 835.797 599.273 825.448C506.881 812.979 434.163 803.165 315.002 850.675C96.9469 937.614 -36.9036 868.75 -36.9036 868.75V451.005Z"/>
</mask>
<path fill-rule="evenodd" clip-rule="evenodd" d="M-36.9036 451.005H-36.9062V49.2122C-36.9062 49.2122 273.545 193.645 532.254 85.7779C668.643 28.9111 729.842 48.1901 789.174 66.8809C842.384 83.6435 894.093 99.9329 997.191 60.397C1215.25 -23.2223 1476.91 49.2122 1476.91 49.2122V451.005H1476.91V868.75C1476.91 868.75 1219.92 792.715 907.754 830.733C766.18 847.975 675.951 835.797 599.273 825.448C506.881 812.979 434.163 803.165 315.002 850.675C96.9469 937.614 -36.9036 868.75 -36.9036 868.75V451.005Z" fill="url(#paint1_linear_3756_92352)"/>
<path d="M-36.9062 451.005H-37.9062V452.005H-36.9062V451.005ZM-36.9036 451.005H-35.9036V450.005H-36.9036V451.005ZM-36.9062 49.2122L-36.4844 48.3055L-37.9062 47.6441V49.2122H-36.9062ZM532.254 85.7779L531.869 84.855L532.254 85.7779ZM789.174 66.8809L789.474 65.9271L789.174 66.8809ZM997.191 60.397L996.833 59.4633L997.191 60.397ZM1476.91 49.2122H1477.91V48.4514L1477.18 48.2485L1476.91 49.2122ZM1476.91 451.005H1475.91V452.005H1476.91V451.005ZM1476.91 451.005H1477.91V450.005H1476.91V451.005ZM1476.91 868.75L1476.63 869.709L1477.91 870.089V868.75H1476.91ZM907.754 830.733L907.633 829.74L907.754 830.733ZM599.273 825.448L599.407 824.457L599.273 825.448ZM315.002 850.675L315.372 851.604L315.002 850.675ZM-36.9036 868.75H-37.9036V869.36L-37.3611 869.64L-36.9036 868.75ZM-36.9062 452.005H-36.9036V450.005H-36.9062V452.005ZM-37.9062 49.2122V451.005H-35.9062V49.2122H-37.9062ZM531.869 84.855C402.781 138.678 260.722 129.573 150.859 106.966C95.9394 95.6649 49.0943 80.996 15.9808 69.1529C-0.575348 63.2315 -13.6972 58.0171 -22.6774 54.2842C-27.1675 52.4178 -30.6221 50.9218 -32.9528 49.8931C-34.1181 49.3787 -35.0024 48.9812 -35.5947 48.7125C-35.8909 48.5782 -36.114 48.4761 -36.2628 48.4078C-36.3371 48.3736 -36.3929 48.3479 -36.4299 48.3308C-36.4484 48.3222 -36.4622 48.3158 -36.4713 48.3116C-36.4759 48.3095 -36.4791 48.308 -36.4814 48.3069C-36.4835 48.306 -36.4844 48.3055 -36.9062 49.2122C-37.3281 50.1189 -37.3266 50.1196 -37.324 50.1208C-37.3215 50.1219 -37.3177 50.1237 -37.3128 50.126C-37.303 50.1305 -37.2885 50.1373 -37.2692 50.1462C-37.2308 50.1639 -37.1736 50.1903 -37.0977 50.2252C-36.9461 50.2949 -36.72 50.3983 -36.4208 50.534C-35.8225 50.8053 -34.932 51.2056 -33.7604 51.7228C-31.4171 52.7571 -27.9492 54.2588 -23.4451 56.131C-14.437 59.8755 -1.28369 65.1022 15.3073 71.036C48.4879 82.9032 95.4249 97.6009 150.456 108.925C260.496 131.568 403.018 140.746 532.639 86.7009L531.869 84.855ZM789.474 65.9271C759.808 56.5815 729.545 47.0433 689.612 46.9953C649.68 46.9474 600.149 56.3859 531.869 84.855L532.639 86.7009C600.748 58.3032 650.012 48.9478 689.609 48.9953C729.206 49.0428 759.208 58.4895 788.873 67.8347L789.474 65.9271ZM996.833 59.4633C945.383 79.1934 906.817 84.9712 874.512 83.7516C842.197 82.5316 816.086 74.3104 789.474 65.9271L788.873 67.8347C815.472 76.2139 841.82 84.5188 874.437 85.7501C907.064 86.9819 945.901 81.1365 997.549 61.3307L996.833 59.4633ZM1476.91 49.2122C1477.18 48.2485 1477.18 48.2481 1477.17 48.2475C1477.17 48.2469 1477.17 48.246 1477.17 48.2449C1477.16 48.2426 1477.14 48.2392 1477.13 48.2348C1477.1 48.2259 1477.05 48.2126 1476.98 48.1952C1476.86 48.1604 1476.67 48.1087 1476.41 48.0411C1475.91 47.9059 1475.16 47.7069 1474.17 47.4511C1472.2 46.9395 1469.27 46.2008 1465.48 45.2907C1457.88 43.4704 1446.8 40.9646 1432.81 38.2196C1404.84 32.7298 1365.28 26.2825 1318.9 22.4508C1226.16 14.7887 1106.06 17.5773 996.833 59.4633L997.549 61.3307C1106.38 19.5974 1226.14 16.7936 1318.74 24.444C1365.03 28.2684 1404.52 34.7036 1432.43 40.1821C1446.38 42.9213 1457.44 45.4212 1465.01 47.2356C1468.79 48.1427 1471.7 48.8786 1473.67 49.3872C1474.65 49.6416 1475.4 49.8391 1475.9 49.9729C1476.14 50.0398 1476.33 50.0907 1476.46 50.1249C1476.52 50.1419 1476.57 50.1548 1476.6 50.1633C1476.61 50.1676 1476.63 50.1708 1476.63 50.1729C1476.64 50.174 1476.64 50.1747 1476.64 50.1753C1476.64 50.1758 1476.64 50.176 1476.91 49.2122ZM1477.91 451.005V49.2122H1475.91V451.005H1477.91ZM1476.91 450.005H1476.91V452.005H1476.91V450.005ZM1477.91 868.75V451.005H1475.91V868.75H1477.91ZM907.875 831.725C1063.85 812.73 1206.05 822.227 1309.26 836.476C1360.86 843.599 1402.71 851.91 1431.66 858.439C1446.13 861.704 1457.38 864.523 1465.01 866.525C1468.82 867.526 1471.73 868.323 1473.68 868.869C1474.66 869.142 1475.4 869.352 1475.89 869.494C1476.14 869.565 1476.32 869.619 1476.45 869.655C1476.51 869.673 1476.55 869.687 1476.59 869.696C1476.6 869.7 1476.61 869.704 1476.62 869.706C1476.62 869.707 1476.63 869.708 1476.63 869.708C1476.63 869.709 1476.63 869.709 1476.91 868.75C1477.2 867.791 1477.2 867.791 1477.19 867.79C1477.19 867.79 1477.19 867.789 1477.19 867.788C1477.18 867.785 1477.17 867.782 1477.15 867.777C1477.12 867.768 1477.07 867.754 1477.01 867.735C1476.88 867.699 1476.69 867.644 1476.44 867.572C1475.95 867.429 1475.2 867.217 1474.22 866.943C1472.26 866.394 1469.34 865.594 1465.52 864.59C1457.87 862.583 1446.6 859.758 1432.1 856.488C1403.11 849.949 1361.2 841.627 1309.53 834.494C1206.2 820.23 1063.82 810.718 907.633 829.74L907.875 831.725ZM599.14 826.44C675.845 836.792 766.173 848.983 907.875 831.725L907.633 829.74C766.186 846.966 676.057 834.802 599.407 824.457L599.14 826.44ZM315.372 851.604C434.288 804.192 506.792 813.976 599.14 826.44L599.407 824.457C506.969 811.982 434.039 802.138 314.631 849.746L315.372 851.604ZM-36.9036 868.75C-37.3611 869.64 -37.36 869.64 -37.3585 869.641C-37.3573 869.641 -37.3553 869.643 -37.3529 869.644C-37.3481 869.646 -37.3413 869.65 -37.3325 869.654C-37.3148 869.663 -37.2889 869.676 -37.255 869.693C-37.187 869.727 -37.0865 869.778 -36.9538 869.843C-36.6882 869.973 -36.2933 870.164 -35.7706 870.408C-34.7252 870.897 -33.1686 871.6 -31.113 872.462C-27.0017 874.186 -20.8939 876.546 -12.8867 879.104C3.12786 884.221 26.7405 890.127 57.1745 893.309C118.048 899.674 206.188 895.136 315.372 851.604L314.631 849.746C205.761 893.153 117.948 897.653 57.3825 891.32C27.097 888.154 3.61867 882.278 -12.278 877.199C-20.2264 874.66 -26.2792 872.32 -30.3396 870.617C-32.3698 869.766 -33.9019 869.074 -34.9237 868.597C-35.4346 868.358 -35.8179 868.172 -36.0721 868.048C-36.1992 867.985 -36.2941 867.938 -36.3565 867.906C-36.3877 867.891 -36.4108 867.879 -36.4257 867.871C-36.4332 867.868 -36.4386 867.865 -36.442 867.863C-36.4437 867.862 -36.4447 867.862 -36.4456 867.861C-36.4461 867.861 -36.4461 867.861 -36.9036 868.75ZM-37.9036 451.005V868.75H-35.9036V451.005H-37.9036Z" fill="#4AFF85" mask="url(#path-3-outside-2_3756_92352)"/>
</g>
<g opacity="0.4">
<mask id="path-5-outside-3_3756_92352" maskUnits="userSpaceOnUse" x="-78" y="0" width="1597" height="923" fill="black">
<rect fill="white" x="-78" width="1597" height="923"/>
<path fill-rule="evenodd" clip-rule="evenodd" d="M-76.9965 454.806H-77V31.6655C-77 31.6655 249.945 183.772 522.399 70.174C666.035 10.2858 730.486 30.5892 792.969 50.2729C849.007 67.9261 903.463 85.0809 1012.04 43.4446C1241.68 -44.6174 1517.25 31.6655 1517.25 31.6655V454.806H1517.25V894.745C1517.25 894.745 1246.6 814.671 917.851 854.708C768.755 872.866 673.732 860.041 592.98 849.143C495.679 836.011 419.098 825.675 293.606 875.71C63.9656 967.268 -76.9965 894.745 -76.9965 894.745V454.806Z"/>
</mask>
<path fill-rule="evenodd" clip-rule="evenodd" d="M-76.9965 454.806H-77V31.6655C-77 31.6655 249.945 183.772 522.399 70.174C666.035 10.2858 730.486 30.5892 792.969 50.2729C849.007 67.9261 903.463 85.0809 1012.04 43.4446C1241.68 -44.6174 1517.25 31.6655 1517.25 31.6655V454.806H1517.25V894.745C1517.25 894.745 1246.6 814.671 917.851 854.708C768.755 872.866 673.732 860.041 592.98 849.143C495.679 836.011 419.098 825.675 293.606 875.71C63.9656 967.268 -76.9965 894.745 -76.9965 894.745V454.806Z" fill="url(#paint2_linear_3756_92352)"/>
<path d="M-77 454.806H-78V455.806H-77V454.806ZM-76.9965 454.806H-75.9965V453.806H-76.9965V454.806ZM-77 31.6655L-76.5782 30.7588L-78 30.0973V31.6655H-77ZM522.399 70.174L522.784 71.097L522.399 70.174ZM792.969 50.2729L793.27 49.3191L792.969 50.2729ZM1012.04 43.4446L1012.4 44.3783L1012.04 43.4446ZM1517.25 31.6655H1518.25V30.9047L1517.51 30.7018L1517.25 31.6655ZM1517.25 454.806H1516.25V455.806H1517.25V454.806ZM1517.25 454.806H1518.25V453.806H1517.25V454.806ZM1517.25 894.745L1516.97 895.704L1518.25 896.084V894.745H1517.25ZM917.851 854.708L917.972 855.701L917.851 854.708ZM592.98 849.143L593.114 848.152L592.98 849.143ZM293.606 875.71L293.235 874.781L293.606 875.71ZM-76.9965 894.745H-77.9965V895.355L-77.4539 895.635L-76.9965 894.745ZM-77 455.806H-76.9965V453.806H-77V455.806ZM-78 31.6655V454.806H-76V31.6655H-78ZM522.014 69.251C386.054 125.939 236.436 116.348 120.731 92.5396C62.89 80.6376 13.5536 65.1887 -21.321 52.7156C-38.7577 46.4793 -52.5775 40.9876 -62.0356 37.0561C-66.7646 35.0903 -70.4031 33.5147 -72.8579 32.4312C-74.0853 31.8894 -75.0168 31.4706 -75.6408 31.1877C-75.9527 31.0462 -76.1878 30.9386 -76.3445 30.8666C-76.4229 30.8306 -76.4816 30.8035 -76.5206 30.7855C-76.5402 30.7765 -76.5547 30.7697 -76.5643 30.7653C-76.5691 30.763 -76.5726 30.7614 -76.575 30.7603C-76.5772 30.7593 -76.5782 30.7588 -77 31.6655C-77.4218 32.5722 -77.4203 32.5729 -77.4175 32.5742C-77.415 32.5754 -77.411 32.5772 -77.4058 32.5796C-77.3955 32.5844 -77.3802 32.5915 -77.36 32.6008C-77.3195 32.6195 -77.2593 32.6473 -77.1795 32.684C-77.0198 32.7574 -76.7818 32.8663 -76.4668 33.0091C-75.8369 33.2948 -74.8993 33.7163 -73.6655 34.2609C-71.1981 35.35 -67.5463 36.9313 -62.8033 38.9029C-53.3173 42.846 -39.466 48.3501 -21.9945 54.5988C12.9473 67.0958 62.3755 82.5737 120.328 94.4986C236.209 118.344 386.291 128.007 522.784 71.097L522.014 69.251ZM793.27 49.3191C762.027 39.4771 730.163 29.4345 688.117 29.384C646.073 29.3335 593.918 39.2713 522.014 69.251L522.784 71.097C594.516 41.1885 646.405 31.3339 688.115 31.384C729.824 31.4341 761.427 41.385 792.669 51.2267L793.27 49.3191ZM1011.68 42.5109C957.491 63.2912 916.869 69.3778 882.84 68.093C848.8 66.8079 821.295 58.1478 793.27 49.3191L792.669 51.2267C820.681 60.0512 848.423 68.7951 882.765 70.0916C917.117 71.3885 958.01 65.2343 1012.4 44.3783L1011.68 42.5109ZM1517.25 31.6655C1517.51 30.7018 1517.51 30.7014 1517.51 30.7008C1517.51 30.7001 1517.5 30.6992 1517.5 30.698C1517.49 30.6956 1517.48 30.6921 1517.46 30.6874C1517.43 30.678 1517.38 30.6641 1517.31 30.6457C1517.17 30.609 1516.97 30.5547 1516.71 30.4835C1516.18 30.3411 1515.39 30.1316 1514.35 29.8623C1512.27 29.3236 1509.19 28.5457 1505.19 27.5873C1497.19 25.6705 1485.52 23.0317 1470.79 20.141C1441.34 14.3598 1399.68 7.57033 1350.84 3.53519C1253.17 -4.53362 1126.7 -1.59647 1011.68 42.5109L1012.4 44.3783C1127.02 0.423649 1253.15 -2.52875 1350.68 5.5284C1399.43 9.55625 1441.01 16.3336 1470.41 22.1035C1485.1 24.9884 1496.75 27.6212 1504.72 29.5322C1508.71 30.4876 1511.78 31.2626 1513.84 31.7984C1514.88 32.0663 1515.66 32.2743 1516.19 32.4153C1516.45 32.4857 1516.65 32.5394 1516.78 32.5754C1516.85 32.5934 1516.9 32.6069 1516.93 32.6159C1516.95 32.6205 1516.96 32.6238 1516.97 32.6261C1516.97 32.6272 1516.97 32.628 1516.98 32.6285C1516.98 32.629 1516.98 32.6293 1517.25 31.6655ZM1518.25 454.806V31.6655H1516.25V454.806H1518.25ZM1517.25 453.806H1517.25V455.806H1517.25V453.806ZM1518.25 894.745V454.806H1516.25V894.745H1518.25ZM917.972 855.701C1082.24 835.695 1232 845.697 1340.69 860.703C1395.04 868.206 1439.12 876.959 1469.6 883.835C1484.85 887.273 1496.69 890.241 1504.72 892.35C1508.74 893.404 1511.8 894.244 1513.86 894.819C1514.89 895.107 1515.67 895.328 1516.19 895.478C1516.45 895.553 1516.64 895.609 1516.77 895.647C1516.84 895.666 1516.89 895.681 1516.92 895.69C1516.93 895.695 1516.95 895.698 1516.95 895.701C1516.96 895.702 1516.96 895.703 1516.96 895.703C1516.97 895.704 1516.97 895.704 1517.25 894.745C1517.53 893.786 1517.53 893.786 1517.53 893.785C1517.53 893.785 1517.52 893.784 1517.52 893.783C1517.51 893.78 1517.5 893.776 1517.48 893.771C1517.45 893.761 1517.4 893.747 1517.33 893.728C1517.2 893.689 1517 893.631 1516.74 893.556C1516.22 893.405 1515.43 893.182 1514.4 892.893C1512.33 892.315 1509.26 891.473 1505.23 890.416C1497.18 888.302 1485.31 885.327 1470.04 881.884C1439.51 874.997 1395.38 866.233 1340.97 858.722C1232.15 843.7 1082.21 833.683 917.73 853.715L917.972 855.701ZM592.847 850.134C673.626 861.036 768.748 873.874 917.972 855.701L917.73 853.715C768.761 871.858 673.838 859.047 593.114 848.152L592.847 850.134ZM293.976 876.638C419.223 826.702 495.591 837.008 592.847 850.134L593.114 848.152C495.767 835.014 418.974 824.648 293.235 874.781L293.976 876.638ZM-76.9965 894.745C-77.4539 895.635 -77.4529 895.635 -77.4513 895.636C-77.4501 895.637 -77.4479 895.638 -77.4454 895.639C-77.4405 895.641 -77.4333 895.645 -77.4241 895.65C-77.4055 895.659 -77.3784 895.673 -77.3426 895.691C-77.2712 895.727 -77.1656 895.78 -77.0259 895.848C-76.7465 895.985 -76.3309 896.186 -75.7808 896.443C-74.6805 896.958 -73.0419 897.698 -70.8777 898.605C-66.5493 900.42 -60.1184 902.905 -51.6873 905.599C-34.8251 910.986 -9.96145 917.206 22.0856 920.556C86.1855 927.258 178.999 922.48 293.976 876.638L293.235 874.781C178.572 920.497 86.0847 925.237 22.2935 918.567C-9.60494 915.232 -34.3343 909.043 -51.0787 903.694C-59.4509 901.019 -65.8268 898.554 -70.1043 896.76C-72.243 895.864 -73.8571 895.135 -74.9339 894.632C-75.4722 894.38 -75.8762 894.185 -76.1443 894.053C-76.2783 893.987 -76.3783 893.937 -76.4442 893.904C-76.4771 893.888 -76.5015 893.875 -76.5173 893.867C-76.5252 893.863 -76.531 893.86 -76.5346 893.858C-76.5364 893.857 -76.5375 893.857 -76.5384 893.856C-76.5389 893.856 -76.539 893.856 -76.9965 894.745ZM-77.9965 454.806V894.745H-75.9965V454.806H-77.9965Z" fill="#4AFF85" mask="url(#path-5-outside-3_3756_92352)"/>
</g>
<defs>
<linearGradient id="paint0_linear_3756_92352" x1="720" y1="228.862" x2="720.034" y2="835.754" gradientUnits="userSpaceOnUse">
<stop stop-color="#C7FFD8" stop-opacity="0.74"/>
<stop offset="0.0001" stop-color="#B4FFCA" stop-opacity="0.74"/>
<stop offset="0.401042" stop-color="#D7FFF4"/>
<stop offset="0.677083" stop-color="#DBFFE0"/>
<stop offset="1" stop-color="#9AFFA4"/>
</linearGradient>
<linearGradient id="paint1_linear_3756_92352" x1="720.004" y1="216.814" x2="721.946" y2="873.354" gradientUnits="userSpaceOnUse">
<stop stop-color="#B4FFCA" stop-opacity="0.74"/>
<stop offset="0.0001" stop-color="#B4FFCA" stop-opacity="0.74"/>
<stop offset="0.401042" stop-color="#C8FFF0"/>
<stop offset="0.677083" stop-color="#E7FFEA"/>
<stop offset="1" stop-color="#DFFFDA"/>
</linearGradient>
<linearGradient id="paint2_linear_3756_92352" x1="720.125" y1="208.172" x2="722.17" y2="899.594" gradientUnits="userSpaceOnUse">
<stop stop-color="#B4FFCA" stop-opacity="0.74"/>
<stop offset="0.0001" stop-color="#B4FFCA" stop-opacity="0.74"/>
<stop offset="0.401042" stop-color="#C8FFF0"/>
<stop offset="0.677083" stop-color="#E7FFEA"/>
<stop offset="1" stop-color="#DFFFDA"/>
</linearGradient>
</defs>
</svg>
