<svg width="1440" height="923" viewBox="0 0 1440 923" fill="none" xmlns="http://www.w3.org/2000/svg">
<mask id="path-1-outside-1_4014_103242" maskUnits="userSpaceOnUse" x="29" y="40.7344" width="1442" height="834" fill="black">
<rect fill="white" x="29" y="40.7344" width="1442" height="834"/>
<path fill-rule="evenodd" clip-rule="evenodd" d="M1470 69.4329V451.633V849.008C1470 849.008 1225.54 776.681 928.594 812.844C793.923 829.246 708.094 817.662 635.155 807.818C547.268 795.956 478.097 786.621 364.745 831.814C157.324 914.514 30 849.008 30 849.008V451.633V69.4329C30 69.4329 325.312 206.823 571.406 104.216C701.145 50.1217 759.36 68.4607 815.798 86.24C866.414 102.185 915.601 117.68 1013.67 80.0723C1221.09 0.53054 1470 69.4329 1470 69.4329Z"/>
</mask>
<path fill-rule="evenodd" clip-rule="evenodd" d="M1470 69.4329V451.633V849.008C1470 849.008 1225.54 776.681 928.594 812.844C793.923 829.246 708.094 817.662 635.155 807.818C547.268 795.956 478.097 786.621 364.745 831.814C157.324 914.514 30 849.008 30 849.008V451.633V69.4329C30 69.4329 325.312 206.823 571.406 104.216C701.145 50.1217 759.36 68.4607 815.798 86.24C866.414 102.185 915.601 117.68 1013.67 80.0723C1221.09 0.53054 1470 69.4329 1470 69.4329Z" fill="url(#paint0_linear_4014_103242)"/>
<path d="M1470 69.4329H1471V68.6722L1470.27 68.4692L1470 69.4329ZM1470 849.008L1469.72 849.967L1471 850.347V849.008H1470ZM928.594 812.844L928.715 813.837L928.594 812.844ZM635.155 807.818L635.289 806.827L635.155 807.818ZM364.745 831.814L364.375 830.885L364.745 831.814ZM30 849.008H29V849.618L29.5425 849.897L30 849.008ZM30 69.4329L30.4218 68.5263L29 67.8648V69.4329H30ZM571.406 104.216L571.021 103.293L571.406 104.216ZM815.798 86.24L815.498 87.1938L815.798 86.24ZM1013.67 80.0723L1013.31 79.1386L1013.67 80.0723ZM1471 451.633V69.4329H1469V451.633H1471ZM1471 849.008V451.633H1469V849.008H1471ZM928.715 813.837C1077.08 795.768 1212.34 804.802 1310.51 818.356C1359.6 825.132 1399.41 833.037 1426.94 839.247C1440.71 842.353 1451.41 845.034 1458.66 846.938C1462.29 847.89 1465.05 848.648 1466.91 849.168C1467.84 849.427 1468.54 849.628 1469.01 849.763C1469.25 849.83 1469.42 849.881 1469.54 849.916C1469.6 849.933 1469.64 849.946 1469.67 849.954C1469.69 849.959 1469.7 849.962 1469.71 849.964C1469.71 849.965 1469.71 849.966 1469.71 849.966C1469.72 849.967 1469.72 849.967 1470 849.008C1470.28 848.049 1470.28 848.049 1470.28 848.048C1470.28 848.048 1470.28 848.047 1470.27 848.046C1470.26 848.043 1470.25 848.04 1470.24 848.036C1470.21 848.027 1470.16 848.013 1470.1 847.996C1469.98 847.961 1469.8 847.909 1469.57 847.841C1469.09 847.704 1468.39 847.503 1467.45 847.242C1465.58 846.719 1462.81 845.959 1459.17 845.004C1451.89 843.094 1441.17 840.407 1427.38 837.297C1399.8 831.076 1359.94 823.159 1310.79 816.374C1212.49 802.805 1077.05 793.757 928.473 811.852L928.715 813.837ZM635.022 808.809C707.988 818.657 793.917 830.254 928.715 813.837L928.473 811.852C793.929 828.237 708.2 816.667 635.289 806.827L635.022 808.809ZM365.116 832.743C478.221 787.648 547.18 796.953 635.022 808.809L635.289 806.827C547.356 794.959 477.972 785.594 364.375 830.885L365.116 832.743ZM30 849.008C29.5425 849.897 29.5435 849.898 29.545 849.899C29.5461 849.899 29.5481 849.9 29.5504 849.901C29.555 849.904 29.5615 849.907 29.5699 849.911C29.5868 849.92 29.6115 849.932 29.6438 849.949C29.7086 849.981 29.8043 850.029 29.9308 850.091C30.1837 850.215 30.5596 850.397 31.0571 850.63C32.0521 851.095 33.5333 851.763 35.4894 852.583C39.4014 854.224 45.2127 856.47 52.8309 858.904C68.0674 863.772 90.532 869.391 119.486 872.418C177.399 878.473 261.248 874.155 365.116 832.743L364.375 830.885C260.821 872.173 177.298 876.452 119.694 870.429C90.8885 867.417 68.5582 861.829 53.4396 856.999C45.8803 854.584 40.1239 852.358 36.2627 850.739C34.3322 849.93 32.8754 849.272 31.904 848.818C31.4183 848.591 31.054 848.415 30.8124 848.296C30.6916 848.237 30.6015 848.192 30.5423 848.162C30.5127 848.147 30.4908 848.136 30.4767 848.129C30.4696 848.125 30.4645 848.122 30.4613 848.121C30.4597 848.12 30.4587 848.12 30.4579 848.119C30.4575 848.119 30.4575 848.119 30 849.008ZM29 451.633V849.008H31V451.633H29ZM29 69.4329V451.633H31V69.4329H29ZM571.021 103.293C448.241 154.485 313.121 145.826 208.62 124.323C156.38 113.573 111.822 99.6204 80.3246 88.3553C64.5766 82.723 52.0954 77.7632 43.5537 74.2126C39.2829 72.4374 35.9971 71.0144 33.7804 70.036C32.672 69.5468 31.831 69.1687 31.2677 68.9132C30.9861 68.7855 30.7739 68.6884 30.6325 68.6234C30.5618 68.591 30.5087 68.5665 30.4736 68.5502C30.456 68.5421 30.4429 68.536 30.4342 68.532C30.4299 68.53 30.4268 68.5286 30.4247 68.5276C30.4227 68.5267 30.4218 68.5263 30 69.4329C29.5782 70.3396 29.5796 70.3403 29.5821 70.3414C29.5844 70.3425 29.5881 70.3442 29.5928 70.3464C29.6021 70.3507 29.6159 70.3571 29.6342 70.3656C29.6708 70.3825 29.7253 70.4077 29.7975 70.4408C29.9418 70.5071 30.157 70.6056 30.4416 70.7347C31.0109 70.9928 31.8581 71.3737 32.9728 71.8657C35.2021 72.8497 38.5012 74.2783 42.786 76.0594C51.3555 79.6216 63.8682 84.5937 79.651 90.2385C111.215 101.528 155.866 115.509 208.216 126.282C312.895 147.821 448.478 156.553 571.791 105.139L571.021 103.293ZM816.099 85.2862C787.879 76.3964 759.085 67.321 721.091 67.2754C683.098 67.2298 635.976 76.21 571.021 103.293L571.791 105.139C636.575 78.1273 683.43 69.2302 721.089 69.2754C758.746 69.3206 787.279 78.3043 815.498 87.1938L816.099 85.2862ZM1013.31 79.1386C964.377 97.9048 927.698 103.399 896.977 102.239C866.245 101.079 841.413 93.2609 816.099 85.2862L815.498 87.1938C840.799 95.1644 865.868 103.066 896.902 104.238C927.946 105.41 964.896 99.8479 1014.03 81.0061L1013.31 79.1386ZM1470 69.4329C1470.27 68.4692 1470.27 68.4689 1470.26 68.4683C1470.26 68.4677 1470.26 68.4669 1470.25 68.4658C1470.25 68.4636 1470.23 68.4604 1470.22 68.4561C1470.19 68.4477 1470.14 68.4351 1470.08 68.4185C1469.96 68.3853 1469.78 68.3361 1469.54 68.2718C1469.06 68.1432 1468.34 67.9538 1467.4 67.7105C1465.53 67.2238 1462.74 66.521 1459.13 65.6552C1451.91 63.9236 1441.36 61.5398 1428.06 58.9285C1401.46 53.7061 1363.82 47.5729 1319.7 43.9279C1231.48 36.6392 1117.22 39.2914 1013.31 79.1386L1014.03 81.0061C1117.54 41.3115 1231.45 38.644 1319.54 45.9211C1363.57 49.5589 1401.13 55.6799 1427.67 60.8911C1440.95 63.4965 1451.47 65.8743 1458.67 67.6001C1462.27 68.463 1465.04 69.1628 1466.9 69.6466C1467.84 69.8885 1468.55 70.0764 1469.02 70.2036C1469.26 70.2672 1469.44 70.3157 1469.56 70.3481C1469.62 70.3644 1469.66 70.3766 1469.69 70.3847C1469.7 70.3888 1469.72 70.3918 1469.72 70.3938C1469.73 70.3948 1469.73 70.3955 1469.73 70.396C1469.73 70.3965 1469.73 70.3967 1470 69.4329Z" fill="#4AFF85" mask="url(#path-1-outside-1_4014_103242)"/>
<g opacity="0.6">
<mask id="path-3-outside-2_4014_103242" maskUnits="userSpaceOnUse" x="-7.91504" y="19.1016" width="1516" height="877" fill="black">
<rect fill="white" x="-7.91504" y="19.1016" width="1516" height="877"/>
<path fill-rule="evenodd" clip-rule="evenodd" d="M1506.9 451.013H1506.9V868.758C1506.9 868.758 1249.91 792.723 937.743 830.741C796.168 847.982 705.939 835.805 629.262 825.456C536.869 812.987 464.152 803.173 344.99 850.683C126.935 937.622 -6.91504 868.758 -6.91504 868.758V451.013H-6.91382V49.22C-6.91382 49.22 303.537 193.653 562.246 85.7858C698.636 28.9189 759.835 48.1979 819.166 66.8887C872.377 83.6513 924.085 99.9407 1027.18 60.4048C1245.24 -23.2145 1506.9 49.22 1506.9 49.22V451.013Z"/>
</mask>
<path fill-rule="evenodd" clip-rule="evenodd" d="M1506.9 451.013H1506.9V868.758C1506.9 868.758 1249.91 792.723 937.743 830.741C796.168 847.982 705.939 835.805 629.262 825.456C536.869 812.987 464.152 803.173 344.99 850.683C126.935 937.622 -6.91504 868.758 -6.91504 868.758V451.013H-6.91382V49.22C-6.91382 49.22 303.537 193.653 562.246 85.7858C698.636 28.9189 759.835 48.1979 819.166 66.8887C872.377 83.6513 924.085 99.9407 1027.18 60.4048C1245.24 -23.2145 1506.9 49.22 1506.9 49.22V451.013Z" fill="url(#paint1_linear_4014_103242)"/>
<path d="M1506.9 451.013V450.013H1505.9V451.013H1506.9ZM1506.9 451.013V452.013H1507.9V451.013H1506.9ZM1506.9 868.758L1506.62 869.717L1507.9 870.097V868.758H1506.9ZM937.743 830.741L937.622 829.748L937.743 830.741ZM629.262 825.456L629.396 824.465L629.262 825.456ZM344.99 850.683L345.361 851.612L344.99 850.683ZM-6.91504 868.758H-7.91504V869.368L-7.37253 869.647L-6.91504 868.758ZM-6.91504 451.013V450.013H-7.91504V451.013H-6.91504ZM-6.91382 451.013V452.013H-5.91382V451.013H-6.91382ZM-6.91382 49.22L-6.492 48.3133L-7.91382 47.6519V49.22H-6.91382ZM562.246 85.7858L561.861 84.8628L562.246 85.7858ZM819.166 66.8887L819.467 65.9349L819.166 66.8887ZM1027.18 60.4048L1026.83 59.4711L1027.18 60.4048ZM1506.9 49.22H1507.9V48.4592L1507.17 48.2563L1506.9 49.22ZM1506.9 452.013H1506.9V450.013H1506.9V452.013ZM1507.9 868.758V451.013H1505.9V868.758H1507.9ZM937.864 831.733C1093.84 812.738 1236.04 822.235 1339.25 836.483C1390.85 843.607 1432.7 851.918 1461.65 858.447C1476.12 861.712 1487.37 864.53 1495 866.532C1498.81 867.534 1501.72 868.33 1503.67 868.877C1504.65 869.15 1505.39 869.36 1505.88 869.502C1506.13 869.573 1506.31 869.627 1506.43 869.663C1506.5 869.681 1506.54 869.695 1506.57 869.704C1506.59 869.708 1506.6 869.712 1506.61 869.714C1506.61 869.715 1506.61 869.716 1506.62 869.716C1506.62 869.717 1506.62 869.717 1506.9 868.758C1507.19 867.799 1507.19 867.799 1507.18 867.798C1507.18 867.798 1507.18 867.797 1507.17 867.795C1507.17 867.793 1507.15 867.79 1507.14 867.785C1507.11 867.776 1507.06 867.762 1507 867.743C1506.87 867.706 1506.68 867.652 1506.43 867.58C1505.93 867.437 1505.19 867.225 1504.21 866.95C1502.25 866.401 1499.33 865.602 1495.5 864.598C1487.86 862.59 1476.59 859.766 1462.09 856.496C1433.09 849.957 1391.19 841.635 1339.52 834.502C1236.19 820.237 1093.81 810.726 937.622 829.748L937.864 831.733ZM629.128 826.447C705.833 836.8 796.162 848.991 937.864 831.733L937.622 829.748C796.174 846.974 706.045 834.81 629.396 824.465L629.128 826.447ZM345.361 851.612C464.276 804.2 536.781 813.984 629.128 826.447L629.396 824.465C536.957 811.99 464.028 802.146 344.62 849.754L345.361 851.612ZM-6.91504 868.758C-7.37253 869.647 -7.3715 869.648 -7.36997 869.649C-7.36878 869.649 -7.36674 869.65 -7.36435 869.651C-7.35959 869.654 -7.35278 869.657 -7.34393 869.662C-7.32624 869.671 -7.3004 869.684 -7.26643 869.701C-7.19848 869.735 -7.09802 869.785 -6.96523 869.851C-6.69965 869.981 -6.30476 870.172 -5.78207 870.416C-4.73669 870.905 -3.18011 871.608 -1.12445 872.47C2.98686 874.193 9.09464 876.554 17.1019 879.112C33.1164 884.229 56.7291 890.135 87.1631 893.317C148.037 899.682 236.177 895.144 345.361 851.612L344.62 849.754C235.749 893.161 147.936 897.66 87.371 891.328C57.0856 888.162 33.6072 882.286 17.7105 877.207C9.76217 874.668 3.70933 872.328 -0.351082 870.625C-2.38128 869.774 -3.91333 869.082 -4.93513 868.604C-5.44603 868.366 -5.82936 868.18 -6.0836 868.055C-6.21072 867.993 -6.30557 867.946 -6.36796 867.914C-6.39915 867.899 -6.42223 867.887 -6.43717 867.879C-6.44464 867.875 -6.45008 867.873 -6.45348 867.871C-6.45517 867.87 -6.45619 867.87 -6.45704 867.869C-6.45755 867.869 -6.45755 867.869 -6.91504 868.758ZM-7.91504 451.013V868.758H-5.91504V451.013H-7.91504ZM-6.91382 450.013H-6.91504V452.013H-6.91382V450.013ZM-7.91382 49.22V451.013H-5.91382V49.22H-7.91382ZM561.861 84.8628C432.773 138.685 290.715 129.58 180.852 106.974C125.932 95.6727 79.0868 81.0038 45.9732 69.1607C29.4171 63.2393 16.2953 58.0249 7.315 54.2921C2.82491 52.4256 -0.629674 50.9296 -2.96034 49.9009C-4.12567 49.3865 -5.01001 48.989 -5.60231 48.7204C-5.89845 48.586 -6.12159 48.484 -6.27033 48.4156C-6.3447 48.3814 -6.40048 48.3557 -6.43748 48.3386C-6.45598 48.3301 -6.46979 48.3237 -6.47888 48.3194C-6.48343 48.3173 -6.48671 48.3158 -6.48898 48.3147C-6.49108 48.3138 -6.492 48.3133 -6.91382 49.22C-7.33564 50.1267 -7.33419 50.1274 -7.33155 50.1286C-7.3291 50.1297 -7.32528 50.1315 -7.32038 50.1338C-7.31056 50.1383 -7.29604 50.1451 -7.27681 50.154C-7.23837 50.1717 -7.18114 50.1981 -7.1053 50.233C-6.95364 50.3027 -6.72754 50.4061 -6.42839 50.5418C-5.83009 50.8131 -4.9396 51.2134 -3.76795 51.7306C-1.42468 52.7649 2.04323 54.2666 6.54732 56.1389C15.5554 59.8833 28.7087 65.11 45.2997 71.0439C78.4804 82.911 125.417 97.6087 180.449 108.933C290.488 131.576 433.01 140.753 562.631 86.7087L561.861 84.8628ZM819.467 65.9349C789.8 56.5893 759.537 47.0511 719.604 47.0031C679.672 46.9552 630.142 56.3937 561.861 84.8628L562.631 86.7087C630.74 58.311 680.004 48.9556 719.602 49.0031C759.198 49.0507 789.201 58.4973 818.866 67.8425L819.467 65.9349ZM1026.83 59.4711C975.375 79.2012 936.809 84.979 904.505 83.7594C872.19 82.5394 846.078 74.3182 819.467 65.9349L818.866 67.8425C845.464 76.2217 871.813 84.5266 904.429 85.758C937.057 86.9897 975.894 81.1443 1027.54 61.3385L1026.83 59.4711ZM1506.9 49.22C1507.17 48.2563 1507.17 48.2559 1507.17 48.2553C1507.17 48.2547 1507.16 48.2538 1507.16 48.2527C1507.15 48.2504 1507.14 48.247 1507.12 48.2426C1507.09 48.2337 1507.04 48.2204 1506.98 48.203C1506.85 48.1682 1506.66 48.1165 1506.41 48.0489C1505.9 47.9137 1505.15 47.7147 1504.16 47.4589C1502.19 46.9473 1499.26 46.2086 1495.47 45.2985C1487.87 43.4782 1476.79 40.9724 1462.8 38.2274C1434.84 32.7376 1395.28 26.2903 1348.9 22.4586C1256.15 14.7965 1136.05 17.5851 1026.83 59.4711L1027.54 61.3385C1136.37 19.6052 1256.13 16.8014 1348.73 24.4518C1395.02 28.2763 1434.51 34.7114 1462.42 40.19C1476.37 42.9292 1487.43 45.429 1495 47.2434C1498.79 48.1506 1501.7 48.8864 1503.66 49.395C1504.64 49.6494 1505.39 49.8469 1505.89 49.9807C1506.14 50.0476 1506.33 50.0985 1506.45 50.1327C1506.51 50.1497 1506.56 50.1626 1506.59 50.1712C1506.61 50.1754 1506.62 50.1786 1506.63 50.1807C1506.63 50.1818 1506.63 50.1826 1506.63 50.1831C1506.64 50.1836 1506.64 50.1838 1506.9 49.22ZM1507.9 451.013V49.22H1505.9V451.013H1507.9Z" fill="#4AFF85" mask="url(#path-3-outside-2_4014_103242)"/>
</g>
<g opacity="0.4">
<mask id="path-5-outside-3_4014_103242" maskUnits="userSpaceOnUse" x="-8" y="0" width="1557" height="923" fill="black">
<rect fill="white" x="-8" width="1557" height="923"/>
<path fill-rule="evenodd" clip-rule="evenodd" d="M-6.99646 454.806H-7V31.6655C-7 31.6655 311.742 183.772 577.36 70.174C717.392 10.2858 780.226 30.5892 841.142 50.2729C895.773 67.9261 948.863 85.0809 1054.71 43.4446C1278.59 -44.6174 1547.25 31.6655 1547.25 31.6655V454.806H1547.25V894.745C1547.25 894.745 1283.39 814.671 962.89 854.708C817.534 872.866 724.896 860.041 646.171 849.143C551.31 836.011 476.651 825.675 354.307 875.71C130.429 967.268 -6.99646 894.745 -6.99646 894.745V454.806Z"/>
</mask>
<path fill-rule="evenodd" clip-rule="evenodd" d="M-6.99646 454.806H-7V31.6655C-7 31.6655 311.742 183.772 577.36 70.174C717.392 10.2858 780.226 30.5892 841.142 50.2729C895.773 67.9261 948.863 85.0809 1054.71 43.4446C1278.59 -44.6174 1547.25 31.6655 1547.25 31.6655V454.806H1547.25V894.745C1547.25 894.745 1283.39 814.671 962.89 854.708C817.534 872.866 724.896 860.041 646.171 849.143C551.31 836.011 476.651 825.675 354.307 875.71C130.429 967.268 -6.99646 894.745 -6.99646 894.745V454.806Z" fill="url(#paint2_linear_4014_103242)"/>
<path d="M-7 454.806H-8V455.806H-7V454.806ZM-6.99646 454.806H-5.99646V453.806H-6.99646V454.806ZM-7 31.6655L-6.56932 30.763L-8 30.0803V31.6655H-7ZM577.36 70.174L577.753 71.0934L577.36 70.174ZM841.142 50.2729L840.834 51.2245V51.2245L841.142 50.2729ZM1054.71 43.4446L1055.08 44.3752L1054.71 43.4446ZM1547.25 31.6655H1548.25V30.9099L1547.52 30.7035L1547.25 31.6655ZM1547.25 454.806H1546.25V455.806H1547.25V454.806ZM1547.25 454.806H1548.25V453.806H1547.25V454.806ZM1547.25 894.745L1546.96 895.702L1548.25 896.094V894.745H1547.25ZM962.89 854.708L963.014 855.7L962.89 854.708ZM646.171 849.143L646.308 848.152L646.171 849.143ZM354.307 875.71L353.928 874.784L354.307 875.71ZM-6.99646 894.745H-7.99646V895.348L-7.46318 895.63L-6.99646 894.745ZM-7 455.806H-6.99646V453.806H-7V455.806ZM-8 31.6655V454.806H-6V31.6655H-8ZM576.967 69.2546C444.429 125.938 298.577 116.348 185.78 92.5406C129.393 80.6392 81.2964 65.1909 47.2981 52.7184C30.2997 46.4824 16.8272 40.9909 7.60694 37.0596C2.99685 35.094 -0.550082 33.5185 -2.94308 32.435C-4.13958 31.8933 -5.04758 31.4746 -5.65573 31.1917C-5.95981 31.0502 -6.18893 30.9427 -6.34167 30.8707C-6.41804 30.8348 -6.47531 30.8076 -6.51331 30.7896C-6.53231 30.7806 -6.54649 30.7739 -6.55583 30.7694C-6.56051 30.7672 -6.56388 30.7656 -6.56621 30.7645C-6.56837 30.7635 -6.56932 30.763 -7 31.6655C-7.43068 32.568 -7.4292 32.5687 -7.4265 32.57C-7.42398 32.5712 -7.42006 32.5731 -7.41503 32.5755C-7.40496 32.5803 -7.39005 32.5873 -7.37032 32.5967C-7.33086 32.6154 -7.27211 32.6432 -7.19426 32.6799C-7.03857 32.7533 -6.80645 32.8622 -6.49933 33.0051C-5.8851 33.2908 -4.97087 33.7124 -3.76798 34.257C-1.36221 35.3462 2.19822 36.9277 6.82252 38.8994C16.071 42.8427 29.5754 48.347 46.6093 54.596C80.6758 67.0936 128.866 82.5721 185.367 94.4975C298.345 118.344 444.673 128.009 577.753 71.0934L576.967 69.2546ZM841.449 49.3214C810.991 39.4794 779.92 29.4345 738.921 29.384C697.922 29.3335 647.07 39.2734 576.967 69.2546L577.753 71.0934C647.683 41.1864 698.263 31.3339 738.918 31.384C779.572 31.434 810.376 41.3827 840.834 51.2245L841.449 49.3214ZM1054.35 42.514C1001.52 63.2927 961.926 69.3775 928.759 68.0931C895.581 66.8083 868.772 58.1502 841.449 49.3214L840.834 51.2245C868.143 60.0488 895.195 68.7948 928.682 70.0916C962.18 71.3888 1002.05 65.2328 1055.08 44.3752L1054.35 42.514ZM1547.25 31.6655C1547.52 30.7035 1547.52 30.7032 1547.52 30.7025C1547.51 30.7019 1547.51 30.701 1547.51 30.6998C1547.5 30.6974 1547.49 30.6938 1547.47 30.6891C1547.44 30.6797 1547.39 30.6658 1547.32 30.6475C1547.19 30.6108 1546.99 30.5564 1546.73 30.4852C1546.22 30.3428 1545.45 30.1332 1544.43 29.8638C1542.4 29.3251 1539.4 28.5471 1535.5 27.5887C1527.71 25.6717 1516.33 23.0328 1501.97 20.1419C1473.25 14.3605 1432.64 7.57069 1385.02 3.53537C1289.8 -4.53377 1166.49 -1.59685 1054.35 42.514L1055.08 44.3752C1166.82 0.424032 1289.77 -2.52859 1384.85 5.52823C1432.38 9.55588 1472.92 16.333 1501.57 22.1026C1515.9 24.9873 1527.26 27.62 1535.03 29.5308C1538.91 30.4862 1541.9 31.2611 1543.92 31.7968C1544.93 32.0646 1545.69 32.2727 1546.2 32.4136C1546.46 32.484 1546.65 32.5377 1546.78 32.5736C1546.85 32.5916 1546.89 32.6052 1546.93 32.6142C1546.94 32.6187 1546.95 32.6221 1546.96 32.6243C1546.97 32.6254 1546.97 32.6262 1546.97 32.6268C1546.97 32.6273 1546.97 32.6275 1547.25 31.6655ZM1548.25 454.806V31.6655H1546.25V454.806H1548.25ZM1547.25 453.806H1547.25V455.806H1547.25V453.806ZM1548.25 894.745V454.806H1546.25V894.745H1548.25ZM963.014 855.7C1123.15 835.695 1269.15 845.697 1375.12 860.703C1428.1 868.205 1471.07 876.958 1500.79 883.833C1515.65 887.271 1527.2 890.24 1535.03 892.348C1538.94 893.403 1541.93 894.242 1543.93 894.817C1544.94 895.105 1545.69 895.326 1546.2 895.476C1546.45 895.551 1546.64 895.607 1546.77 895.645C1546.83 895.664 1546.88 895.679 1546.91 895.688C1546.93 895.693 1546.94 895.697 1546.95 895.699C1546.95 895.7 1546.96 895.701 1546.96 895.701C1546.96 895.702 1546.96 895.702 1547.25 894.745C1547.54 893.788 1547.54 893.788 1547.54 893.787C1547.53 893.787 1547.53 893.786 1547.53 893.785C1547.52 893.782 1547.51 893.778 1547.49 893.773C1547.46 893.763 1547.41 893.749 1547.34 893.729C1547.22 893.691 1547.02 893.633 1546.77 893.558C1546.26 893.407 1545.49 893.184 1544.48 892.895C1542.47 892.316 1539.47 891.474 1535.55 890.417C1527.69 888.303 1516.12 885.329 1501.24 881.885C1471.47 874.998 1428.44 866.234 1375.4 858.723C1269.31 843.7 1123.13 833.683 962.766 853.716L963.014 855.7ZM646.033 850.133C724.787 861.036 817.528 873.874 963.014 855.7L962.766 853.716C817.541 871.857 725.005 859.047 646.308 848.152L646.033 850.133ZM354.686 876.635C476.779 826.703 551.22 837.008 646.033 850.133L646.308 848.152C551.4 835.014 476.524 824.647 353.928 874.784L354.686 876.635ZM-6.99646 894.745C-7.46318 895.63 -7.46214 895.63 -7.46058 895.631C-7.45936 895.632 -7.45727 895.633 -7.45483 895.634C-7.44994 895.637 -7.44297 895.64 -7.4339 895.645C-7.41576 895.655 -7.38925 895.668 -7.35439 895.686C-7.28468 895.722 -7.18158 895.775 -7.04529 895.844C-6.77271 895.981 -6.36736 896.182 -5.8308 896.439C-4.75769 896.954 -3.1597 897.694 -1.0493 898.601C3.17148 900.417 9.4421 902.903 17.6629 905.597C34.1046 910.985 58.3476 917.205 89.5943 920.556C152.094 927.259 242.587 922.479 354.686 876.635L353.928 874.784C242.149 920.498 151.99 925.236 89.8076 918.568C58.7132 915.233 34.6075 909.045 18.2857 903.696C10.1249 901.022 3.91008 898.557 -0.259109 896.764C-2.34369 895.868 -3.91684 895.139 -4.9661 894.636C-5.49073 894.384 -5.88439 894.189 -6.14552 894.057C-6.27608 893.992 -6.37351 893.942 -6.43761 893.909C-6.46966 893.892 -6.49338 893.88 -6.50874 893.872C-6.51643 893.868 -6.52202 893.865 -6.52552 893.863C-6.52727 893.862 -6.52832 893.862 -6.5292 893.861C-6.52973 893.861 -6.52974 893.861 -6.99646 894.745ZM-7.99646 454.806V894.745H-5.99646V454.806H-7.99646Z" fill="#4AFF85" mask="url(#path-5-outside-3_4014_103242)"/>
</g>
<defs>
<linearGradient id="paint0_linear_4014_103242" x1="750" y1="228.862" x2="750.034" y2="835.754" gradientUnits="userSpaceOnUse">
<stop stop-color="#C7FFD8" stop-opacity="0.74"/>
<stop offset="0.0001" stop-color="#B4FFCA" stop-opacity="0.74"/>
<stop offset="0.401042" stop-color="#D7FFF4"/>
<stop offset="0.677083" stop-color="#DBFFE0"/>
<stop offset="1" stop-color="#9AFFA4"/>
</linearGradient>
<linearGradient id="paint1_linear_4014_103242" x1="749.994" y1="216.822" x2="751.936" y2="873.362" gradientUnits="userSpaceOnUse">
<stop stop-color="#B4FFCA" stop-opacity="0.74"/>
<stop offset="0.0001" stop-color="#B4FFCA" stop-opacity="0.74"/>
<stop offset="0.401042" stop-color="#C8FFF0"/>
<stop offset="0.677083" stop-color="#E7FFEA"/>
<stop offset="1" stop-color="#DFFFDA"/>
</linearGradient>
<linearGradient id="paint2_linear_4014_103242" x1="770.125" y1="208.172" x2="772.223" y2="899.593" gradientUnits="userSpaceOnUse">
<stop stop-color="#B4FFCA" stop-opacity="0.74"/>
<stop offset="0.0001" stop-color="#B4FFCA" stop-opacity="0.74"/>
<stop offset="0.401042" stop-color="#C8FFF0"/>
<stop offset="0.677083" stop-color="#E7FFEA"/>
<stop offset="1" stop-color="#DFFFDA"/>
</linearGradient>
</defs>
</svg>
