<svg width="1440" height="746" viewBox="0 0 1440 746" fill="none" xmlns="http://www.w3.org/2000/svg">
<path opacity="0.6" d="M-124 57.5602L-124.09 57.0684L-124.5 57.1435V57.5602L-124.5 729.083V729.726L-123.877 729.568L-124 729.083C-123.877 729.568 -123.876 729.567 -123.873 729.567L-123.861 729.564L-123.812 729.551L-123.618 729.502C-123.446 729.459 -123.189 729.394 -122.848 729.309C-122.168 729.138 -121.155 728.886 -119.827 728.558C-117.171 727.903 -113.254 726.947 -108.211 725.745C-98.1264 723.34 -83.5394 719.949 -65.533 716.003C-29.5198 708.111 20.1692 698.004 74.8733 689.137C129.579 680.271 189.292 672.648 245.356 669.723C301.428 666.798 353.814 668.576 393.88 678.493C419.896 684.932 445.403 692.155 471.026 699.412C603.478 736.921 739.059 775.317 964.325 710.87C1098.58 672.462 1224.71 677.13 1317.28 691.405C1363.56 698.542 1401.45 708.08 1427.77 715.832C1440.92 719.708 1451.19 723.138 1458.16 725.599C1461.65 726.829 1464.31 727.816 1466.11 728.496C1467 728.836 1467.68 729.099 1468.13 729.277C1468.36 729.366 1468.53 729.433 1468.64 729.479L1468.77 729.53L1468.8 729.542L1468.81 729.546C1468.81 729.546 1468.81 729.547 1469 729.083L1468.81 729.547L1469.5 729.825V729.083L1469.5 57.5602V57.1841L1469.14 57.0798L1469 57.5602C1469.14 57.0798 1469.14 57.0793 1469.13 57.0783L1469.12 57.0739L1469.06 57.0564L1468.82 56.9875C1468.6 56.9267 1468.28 56.8362 1467.86 56.7176C1467.01 56.4803 1465.75 56.1304 1464.09 55.6796C1460.77 54.7778 1455.85 53.4722 1449.47 51.8559C1436.71 48.6232 1418.08 44.1477 1394.62 39.1751C1347.7 29.23 1281.43 17.2961 1204.06 9.34016C1049.32 -6.57069 850.11 -6.57716 672.331 57.0895C586.692 87.759 482.391 115.55 387.336 127.945C339.809 134.143 294.606 136.49 255.212 133.429C215.809 130.368 182.26 121.9 158.004 106.502C96.1864 67.2613 25.6553 54.9095 -29.396 52.3605C-56.9253 51.0858 -80.5935 52.2619 -97.3808 53.7569C-105.775 54.5045 -112.449 55.3318 -117.026 55.9725C-119.315 56.2928 -121.079 56.5665 -122.272 56.7603C-122.869 56.8571 -123.322 56.934 -123.627 56.9868C-123.78 57.0131 -123.895 57.0335 -123.972 57.0473L-124.06 57.0629L-124.082 57.067L-124.088 57.068C-124.089 57.0683 -124.09 57.0684 -124 57.5602Z" fill="url(#paint0_linear_3913_93969)" stroke="#4AFF85"/>
<path d="M1440 84.1897L1440.11 83.7028L1440.5 83.7931V84.1897L1440.5 691.95V692.578L1439.89 692.437L1440 691.95C1439.89 692.437 1439.89 692.437 1439.88 692.436L1439.87 692.433L1439.82 692.421L1439.6 692.371C1439.41 692.328 1439.13 692.262 1438.75 692.177C1438 692.005 1436.88 691.751 1435.41 691.421C1432.47 690.762 1428.15 689.799 1422.59 688.587C1411.49 686.162 1395.45 682.737 1375.76 678.74C1336.37 670.746 1282.35 660.462 1223.79 651.302C1165.24 642.142 1102.16 634.107 1044.66 630.609C987.149 627.11 935.27 628.153 899.09 637.125C862.876 646.105 837.532 657.02 814.781 667.342C812.651 668.309 810.543 669.27 808.451 670.225C788.2 679.462 769.417 688.03 745.982 694.01C694.258 707.209 619.933 707.796 456.914 675.522C293.961 643.261 180.019 647.494 106.834 659.78C70.2412 665.924 43.8357 674.08 26.5854 680.697C17.9603 684.005 11.6237 686.929 7.44678 689.023C5.35828 690.07 3.80969 690.909 2.78491 691.487C2.27246 691.775 1.89099 691.998 1.63843 692.148C1.51208 692.223 1.41809 692.28 1.35596 692.318L1.28687 692.36L1.27026 692.371L1.26636 692.373C1.26562 692.373 1.2655 692.374 1 691.95L1.2655 692.374L0.5 692.853V691.95L0.5 84.1897V83.8137L0.861206 83.7094L0.931519 83.9522C0.861938 83.7091 0.863403 83.7087 0.865967 83.708L0.879883 83.704L0.934814 83.6882L1.15308 83.6258C1.34644 83.5707 1.63525 83.4888 2.01782 83.3814C2.78284 83.1666 3.92261 82.8499 5.42249 82.4419C8.42212 81.6257 12.8624 80.4439 18.627 78.981C30.1561 76.0551 46.9829 72.0044 68.1774 67.5039C110.566 58.5028 170.428 47.7018 240.324 40.501C380.106 26.1006 560.067 26.0941 720.669 83.7191C798.018 111.472 883.972 131.531 964.571 136.876C1045.18 142.222 1120.38 132.846 1176.26 101.79C1226.82 73.6869 1292.81 69.1833 1346.1 71.6836C1372.76 72.9342 1396.26 75.9384 1413.09 78.6298C1421.51 79.9756 1428.26 81.2433 1432.91 82.1748C1435.24 82.6406 1437.04 83.0223 1438.26 83.2877C1438.86 83.4205 1439.33 83.5241 1439.64 83.5946C1439.8 83.6299 1439.91 83.6569 1439.99 83.6751L1440.08 83.6957L1440.11 83.701L1440.11 83.7023C1440.11 83.7027 1440.11 83.7028 1440 84.1897Z" fill="url(#paint1_linear_3913_93969)" stroke="#4AFF85"/>
<defs>
<linearGradient id="paint0_linear_3913_93969" x1="667.553" y1="57.5596" x2="667.553" y2="763.425" gradientUnits="userSpaceOnUse">
<stop stop-color="#BAFFD9" stop-opacity="0.31"/>
<stop offset="0.546875" stop-color="#BAFFD9"/>
<stop offset="1" stop-color="#ECFFE9"/>
</linearGradient>
<linearGradient id="paint1_linear_3913_93969" x1="724.969" y1="84.1891" x2="724.969" y2="723.03" gradientUnits="userSpaceOnUse">
<stop stop-color="#BAFFD9" stop-opacity="0.31"/>
<stop offset="0.546875" stop-color="#C8FFE1"/>
<stop offset="1" stop-color="#ECFFE9"/>
</linearGradient>
</defs>
</svg>
