<svg width="1440" height="1525" viewBox="0 0 1440 1525" fill="none" xmlns="http://www.w3.org/2000/svg">
<mask id="path-1-outside-1_3913_93959" maskUnits="userSpaceOnUse" x="-1" y="81.0703" width="1442" height="1409" fill="black">
<rect fill="white" x="-1" y="81.0703" width="1442" height="1409"/>
<path fill-rule="evenodd" clip-rule="evenodd" d="M1440 128.898V775.059V1446.87C1440 1446.87 1195.54 1324.59 898.594 1385.73C763.923 1413.46 678.094 1393.88 605.155 1377.24C517.268 1357.18 448.097 1341.4 334.746 1417.8C127.324 1557.62 0 1446.87 0 1446.87L2.44379e-05 775.059V128.898C2.44379e-05 128.898 295.313 361.175 541.406 187.703C671.145 96.2503 729.36 127.255 785.798 157.313C836.414 184.271 885.601 210.467 983.672 146.886C1191.09 12.4098 1440 128.898 1440 128.898Z"/>
</mask>
<path fill-rule="evenodd" clip-rule="evenodd" d="M1440 128.898V775.059V1446.87C1440 1446.87 1195.54 1324.59 898.594 1385.73C763.923 1413.46 678.094 1393.88 605.155 1377.24C517.268 1357.18 448.097 1341.4 334.746 1417.8C127.324 1557.62 0 1446.87 0 1446.87L2.44379e-05 775.059V128.898C2.44379e-05 128.898 295.313 361.175 541.406 187.703C671.145 96.2503 729.36 127.255 785.798 157.313C836.414 184.271 885.601 210.467 983.672 146.886C1191.09 12.4098 1440 128.898 1440 128.898Z" fill="url(#paint0_linear_3913_93959)"/>
<path d="M1440 128.898H1441V128.262L1440.42 127.993L1440 128.898ZM1440 1446.87L1439.55 1447.77L1441 1448.49V1446.87H1440ZM898.594 1385.73L898.392 1384.75L898.594 1385.73ZM605.155 1377.24L604.933 1378.21L605.155 1377.24ZM334.746 1417.8L334.187 1416.98L334.746 1417.8ZM0 1446.87H-1V1447.33L-0.65628 1447.63L0 1446.87ZM2.44379e-05 775.059H1.00002H2.44379e-05ZM2.44379e-05 128.898L0.618249 128.112L-0.999976 126.84V128.898H2.44379e-05ZM541.406 187.703L541.982 188.521L541.406 187.703ZM785.798 157.313L785.328 158.196L785.798 157.313ZM983.672 146.886L983.128 146.047L983.672 146.886ZM1441 775.059V128.898H1439V775.059H1441ZM1441 1446.87V775.059H1439V1446.87H1441ZM898.795 1386.71C1047.09 1356.18 1182.29 1371.45 1280.42 1394.35C1329.49 1405.8 1369.28 1419.16 1396.81 1429.66C1410.57 1434.9 1421.26 1439.44 1428.51 1442.65C1432.13 1444.26 1434.9 1445.54 1436.75 1446.42C1437.68 1446.86 1438.38 1447.2 1438.85 1447.42C1439.09 1447.54 1439.26 1447.62 1439.38 1447.68C1439.44 1447.71 1439.48 1447.73 1439.51 1447.75C1439.52 1447.75 1439.54 1447.76 1439.54 1447.76C1439.55 1447.76 1439.55 1447.77 1439.55 1447.77C1439.55 1447.77 1439.55 1447.77 1440 1446.87C1440.45 1445.98 1440.45 1445.98 1440.44 1445.98C1440.44 1445.98 1440.44 1445.98 1440.43 1445.97C1440.43 1445.97 1440.42 1445.96 1440.4 1445.96C1440.37 1445.94 1440.32 1445.92 1440.26 1445.89C1440.14 1445.83 1439.96 1445.74 1439.73 1445.63C1439.25 1445.39 1438.54 1445.05 1437.61 1444.61C1435.74 1443.73 1432.96 1442.44 1429.32 1440.82C1422.04 1437.59 1411.32 1433.05 1397.52 1427.79C1369.93 1417.27 1330.05 1403.88 1280.88 1392.4C1182.55 1369.45 1047.04 1354.15 898.392 1384.75L898.795 1386.71ZM604.933 1378.21C677.914 1394.86 763.912 1414.49 898.795 1386.71L898.392 1384.75C763.934 1412.44 678.273 1392.89 605.378 1376.26L604.933 1378.21ZM335.304 1418.63C391.868 1380.51 437.333 1365.43 479.572 1362.35C521.846 1359.26 560.965 1368.18 604.933 1378.21L605.378 1376.26C561.458 1366.24 522.048 1357.24 479.427 1360.35C436.77 1363.46 390.975 1378.7 334.187 1416.98L335.304 1418.63ZM0 1446.87C-0.65628 1447.63 -0.655266 1447.63 -0.653766 1447.63C-0.652618 1447.63 -0.650631 1447.63 -0.648335 1447.64C-0.643743 1447.64 -0.637208 1447.64 -0.628732 1447.65C-0.611781 1447.67 -0.587068 1447.69 -0.554616 1447.72C-0.489713 1447.77 -0.393853 1447.85 -0.267217 1447.96C-0.013946 1448.17 0.362442 1448.47 0.860509 1448.87C1.85663 1449.66 3.33954 1450.79 5.29775 1452.18C9.21403 1454.95 15.0322 1458.75 22.6601 1462.87C37.9156 1471.11 60.4141 1480.63 89.4155 1485.75C147.447 1496.01 231.394 1488.68 335.304 1418.63L334.187 1416.98C230.675 1486.75 147.249 1493.95 89.7636 1483.79C61.0064 1478.7 38.7101 1469.27 23.6105 1461.11C16.0608 1457.04 10.3113 1453.28 6.45437 1450.54C4.52595 1449.18 3.07083 1448.07 2.10058 1447.3C1.61546 1446.92 1.25158 1446.62 1.01037 1446.42C0.88977 1446.32 0.799841 1446.24 0.740765 1446.19C0.711227 1446.17 0.689403 1446.15 0.675314 1446.14C0.66827 1446.13 0.66316 1446.13 0.659987 1446.12C0.6584 1446.12 0.657474 1446.12 0.65668 1446.12C0.656238 1446.12 0.65628 1446.12 0 1446.87ZM-0.999976 775.059L-1 1446.87H1L1.00002 775.059H-0.999976ZM-0.999976 128.898V775.059H1.00002V128.898H-0.999976ZM540.83 186.886C418.155 273.36 283.183 258.74 178.747 222.408C126.535 204.245 81.9946 180.666 50.5052 161.625C34.7619 152.106 22.2842 143.723 13.7449 137.722C9.47529 134.722 6.19053 132.317 3.97467 130.663C2.86675 129.836 2.02608 129.197 1.46316 128.766C1.18171 128.55 0.969693 128.386 0.828435 128.276C0.757807 128.222 0.704867 128.18 0.669781 128.153C0.652238 128.139 0.639159 128.129 0.630563 128.122C0.626265 128.119 0.623187 128.116 0.621035 128.115C0.61908 128.113 0.618249 128.112 2.44379e-05 128.898C-0.6182 129.684 -0.616778 129.686 -0.614233 129.688C-0.611883 129.689 -0.608212 129.692 -0.603519 129.696C-0.594131 129.703 -0.580256 129.714 -0.561914 129.729C-0.525231 129.757 -0.470681 129.8 -0.398429 129.856C-0.253924 129.968 -0.0386082 130.135 0.246204 130.353C0.815826 130.79 1.66344 131.434 2.77854 132.266C5.00871 133.93 8.30888 136.346 12.5949 139.358C21.1668 145.382 33.683 153.791 49.4704 163.337C81.0425 182.427 125.711 206.075 178.089 224.297C282.833 260.736 418.564 275.518 541.982 188.521L540.83 186.886ZM786.268 156.43C758.065 141.41 729.197 126.019 691.092 125.941C652.981 125.864 605.791 141.095 540.83 186.886L541.982 188.521C606.761 142.858 653.547 127.865 691.088 127.941C728.634 128.018 757.093 143.158 785.328 158.196L786.268 156.43ZM983.128 146.047C934.209 177.762 897.606 187.007 867.003 185.053C836.368 183.098 811.6 169.922 786.268 156.43L785.328 158.196C810.613 171.662 835.746 185.062 866.876 187.049C898.038 189.038 935.064 179.591 984.216 147.725L983.128 146.047ZM1440 128.898C1440.42 127.993 1440.42 127.992 1440.42 127.991C1440.42 127.99 1440.42 127.989 1440.41 127.987C1440.4 127.983 1440.39 127.978 1440.38 127.97C1440.34 127.956 1440.3 127.934 1440.24 127.906C1440.11 127.85 1439.93 127.767 1439.69 127.658C1439.21 127.44 1438.5 127.119 1437.56 126.707C1435.67 125.883 1432.89 124.694 1429.28 123.229C1422.05 120.299 1411.49 116.266 1398.18 111.849C1371.56 103.015 1333.91 92.6397 1289.76 86.4732C1201.47 74.1417 1087.11 78.6305 983.128 146.047L984.216 147.725C1087.65 80.665 1201.46 76.1602 1289.48 88.454C1333.48 94.6001 1371.02 104.942 1397.55 113.747C1410.82 118.15 1421.33 122.167 1428.52 125.082C1432.12 126.54 1434.89 127.722 1436.75 128.539C1437.69 128.947 1438.39 129.265 1438.87 129.479C1439.1 129.586 1439.28 129.668 1439.4 129.723C1439.46 129.75 1439.5 129.771 1439.53 129.784C1439.55 129.791 1439.56 129.796 1439.57 129.799C1439.57 129.801 1439.57 129.802 1439.57 129.803C1439.58 129.804 1439.58 129.804 1440 128.898Z" fill="#4AFF85" mask="url(#path-1-outside-1_3913_93959)"/>
<g opacity="0.6">
<mask id="path-3-outside-2_3913_93959" maskUnits="userSpaceOnUse" x="-37.9094" y="44.4805" width="1516" height="1481" fill="black">
<rect fill="white" x="-37.9094" y="44.4805" width="1516" height="1481"/>
<path fill-rule="evenodd" clip-rule="evenodd" d="M1476.91 773.993H1476.91V1480.25C1476.91 1480.25 1219.91 1351.7 907.748 1415.97C766.174 1445.12 675.945 1424.54 599.268 1407.04C506.875 1385.96 434.158 1369.37 314.996 1449.69C96.9411 1596.67 -36.9094 1480.25 -36.9094 1480.25V773.993H-36.9082V94.7091C-36.9082 94.7091 273.543 338.892 532.252 156.528C668.641 60.3873 729.84 92.9811 789.172 124.58C842.382 152.92 894.091 180.459 997.189 113.618C1215.24 -27.751 1476.91 94.7091 1476.91 94.7091V773.993Z"/>
</mask>
<path fill-rule="evenodd" clip-rule="evenodd" d="M1476.91 773.993H1476.91V1480.25C1476.91 1480.25 1219.91 1351.7 907.748 1415.97C766.174 1445.12 675.945 1424.54 599.268 1407.04C506.875 1385.96 434.158 1369.37 314.996 1449.69C96.9411 1596.67 -36.9094 1480.25 -36.9094 1480.25V773.993H-36.9082V94.7091C-36.9082 94.7091 273.543 338.892 532.252 156.528C668.641 60.3873 729.84 92.9811 789.172 124.58C842.382 152.92 894.091 180.459 997.189 113.618C1215.24 -27.751 1476.91 94.7091 1476.91 94.7091V773.993Z" fill="url(#paint1_linear_3913_93959)"/>
<path d="M1476.91 773.993V772.993H1475.91V773.993H1476.91ZM1476.91 773.993V774.993H1477.91V773.993H1476.91ZM1476.91 1480.25L1476.46 1481.14L1477.91 1481.87V1480.25H1476.91ZM907.748 1415.97L907.95 1416.95L907.748 1415.97ZM599.268 1407.04L599.49 1406.06L599.268 1407.04ZM314.996 1449.69L314.437 1448.86L314.996 1449.69ZM-36.9094 1480.25H-37.9094V1480.7L-37.5657 1481L-36.9094 1480.25ZM-36.9094 773.993V772.993H-37.9094V773.993H-36.9094ZM-36.9082 773.993V774.993H-35.9082V773.993H-36.9082ZM-36.9082 94.7091L-36.2899 93.9231L-37.9082 92.6503V94.7091H-36.9082ZM532.252 156.528L531.676 155.711L532.252 156.528ZM789.172 124.58L788.702 125.463L789.172 124.58ZM997.189 113.618L997.733 114.458L997.189 113.618ZM1476.91 94.7091H1477.91V94.073L1477.33 93.8034L1476.91 94.7091ZM1476.91 774.993H1476.91V772.993H1476.91V774.993ZM1477.91 1480.25V773.993H1475.91V1480.25H1477.91ZM907.95 1416.95C1063.85 1384.85 1205.99 1400.9 1309.16 1424.98C1360.75 1437.02 1402.58 1451.07 1431.52 1462.1C1445.99 1467.62 1457.23 1472.38 1464.85 1475.76C1468.66 1477.45 1471.57 1478.8 1473.52 1479.72C1474.49 1480.18 1475.23 1480.54 1475.72 1480.78C1475.97 1480.9 1476.16 1480.99 1476.28 1481.05C1476.34 1481.08 1476.39 1481.1 1476.42 1481.12C1476.43 1481.13 1476.44 1481.13 1476.45 1481.14C1476.45 1481.14 1476.46 1481.14 1476.46 1481.14C1476.46 1481.14 1476.46 1481.14 1476.91 1480.25C1477.36 1479.35 1477.35 1479.35 1477.35 1479.35C1477.35 1479.35 1477.35 1479.35 1477.34 1479.35C1477.33 1479.34 1477.32 1479.34 1477.31 1479.33C1477.27 1479.31 1477.23 1479.29 1477.16 1479.26C1477.04 1479.19 1476.85 1479.1 1476.6 1478.98C1476.1 1478.74 1475.36 1478.38 1474.37 1477.92C1472.41 1476.99 1469.49 1475.63 1465.66 1473.94C1458.01 1470.54 1446.73 1465.76 1432.23 1460.23C1403.23 1449.17 1361.3 1435.1 1309.62 1423.03C1206.25 1398.91 1063.81 1382.82 907.547 1414.99L907.95 1416.95ZM599.045 1408.01C675.766 1425.52 766.163 1446.15 907.95 1416.95L907.547 1414.99C766.184 1444.1 676.124 1423.55 599.49 1406.06L599.045 1408.01ZM315.555 1450.52C375.023 1410.43 422.828 1394.58 467.243 1391.33C511.693 1388.09 552.825 1397.47 599.045 1408.01L599.49 1406.06C553.318 1395.53 511.895 1386.07 467.097 1389.34C422.265 1392.61 374.13 1408.62 314.437 1448.86L315.555 1450.52ZM-36.9094 1480.25C-37.5657 1481 -37.5647 1481 -37.5631 1481C-37.5619 1481 -37.5599 1481.01 -37.5575 1481.01C-37.5527 1481.01 -37.5458 1481.02 -37.537 1481.03C-37.5192 1481.04 -37.4933 1481.06 -37.4593 1481.09C-37.3912 1481.15 -37.2906 1481.24 -37.1576 1481.35C-36.8916 1481.57 -36.4963 1481.89 -35.973 1482.3C-34.9265 1483.13 -33.3683 1484.32 -31.3105 1485.78C-27.1949 1488.7 -21.0803 1492.69 -13.0634 1497.02C2.97014 1505.68 26.6168 1515.68 57.0986 1521.07C118.091 1531.85 206.328 1524.14 315.555 1450.52L314.437 1448.86C205.609 1522.22 117.893 1529.79 57.4468 1519.1C27.2091 1513.76 3.76472 1503.84 -12.1129 1495.26C-20.0516 1490.97 -26.0976 1487.02 -30.1538 1484.15C-32.1819 1482.71 -33.7123 1481.54 -34.7329 1480.73C-35.2433 1480.33 -35.6261 1480.02 -35.88 1479.81C-36.0069 1479.7 -36.1016 1479.62 -36.1639 1479.57C-36.195 1479.54 -36.218 1479.52 -36.2329 1479.51C-36.2404 1479.5 -36.2458 1479.5 -36.2491 1479.5C-36.2508 1479.49 -36.2518 1479.49 -36.2527 1479.49C-36.2532 1479.49 -36.2531 1479.49 -36.9094 1480.25ZM-37.9094 773.993V1480.25H-35.9094V773.993H-37.9094ZM-36.9082 772.993H-36.9094V774.993H-36.9082V772.993ZM-37.9082 94.7091V773.993H-35.9082V94.7091H-37.9082ZM531.676 155.711C402.693 246.631 260.782 231.258 150.984 193.061C96.0922 173.965 49.2653 149.175 16.1596 129.158C-0.391983 119.149 -13.5103 110.336 -22.4882 104.027C-26.9771 100.872 -30.4306 98.344 -32.7604 96.6054C-33.9253 95.7361 -34.8093 95.0643 -35.4012 94.6104C-35.6972 94.3835 -35.9201 94.211 -36.0687 94.0956C-36.143 94.0379 -36.1987 93.9945 -36.2356 93.9656C-36.2541 93.9512 -36.2679 93.9404 -36.2769 93.9333C-36.2815 93.9297 -36.2847 93.9272 -36.287 93.9254C-36.289 93.9238 -36.2899 93.9231 -36.9082 94.7091C-37.5264 95.4951 -37.5249 95.4963 -37.5222 95.4983C-37.5198 95.5003 -37.5159 95.5033 -37.511 95.5072C-37.5012 95.5149 -37.4866 95.5263 -37.4673 95.5413C-37.4288 95.5715 -37.3715 95.6162 -37.2956 95.6751C-37.1438 95.7931 -36.9175 95.9681 -36.6182 96.1976C-36.0195 96.6566 -35.1286 97.3337 -33.9566 98.2083C-31.6124 99.9576 -28.1435 102.497 -23.6382 105.663C-14.6277 111.995 -1.47086 120.834 15.1247 130.869C48.3132 150.937 95.2683 175.796 150.327 194.95C260.432 233.253 403.102 248.79 532.828 157.346L531.676 155.711ZM789.642 123.698C759.992 107.907 729.655 91.733 689.611 91.6518C649.56 91.5705 599.962 107.576 531.676 155.711L532.828 157.346C600.932 109.339 650.127 93.5716 689.607 93.6518C729.092 93.7319 759.02 109.655 788.702 125.463L789.642 123.698ZM996.645 112.779C945.213 146.124 906.723 155.848 874.536 153.794C842.318 151.737 816.271 137.88 789.642 123.698L788.702 125.463C815.284 139.62 841.696 153.702 874.409 155.79C907.154 157.88 946.068 147.953 997.733 114.458L996.645 112.779ZM1476.91 94.7091C1477.33 93.8034 1477.33 93.8027 1477.33 93.8017C1477.33 93.8007 1477.32 93.7991 1477.32 93.7972C1477.31 93.7932 1477.3 93.7875 1477.28 93.7799C1477.25 93.7647 1477.2 93.7422 1477.14 93.7126C1477.01 93.6534 1476.82 93.5658 1476.57 93.4513C1476.06 93.2222 1475.31 92.8852 1474.32 92.4523C1472.34 91.5864 1469.42 90.3363 1465.62 88.7965C1458.02 85.7168 1446.92 81.4778 1432.93 76.8345C1404.95 67.5483 1365.37 56.642 1318.96 50.1598C1226.15 37.1971 1105.95 41.9165 996.645 112.779L997.733 114.458C1106.49 43.951 1226.14 39.2156 1318.68 52.1406C1364.95 58.6023 1404.41 69.4754 1432.3 78.7327C1446.25 83.3611 1457.3 87.5848 1464.86 90.65C1468.65 92.1826 1471.55 93.4255 1473.52 94.2844C1474.5 94.7138 1475.24 95.0473 1475.74 95.2729C1475.99 95.3858 1476.18 95.4717 1476.3 95.5291C1476.36 95.5579 1476.41 95.5795 1476.44 95.5938C1476.46 95.601 1476.47 95.6064 1476.48 95.6099C1476.48 95.6116 1476.48 95.6128 1476.48 95.6137C1476.49 95.6145 1476.49 95.6148 1476.91 94.7091ZM1477.91 773.993V94.7091H1475.91V773.993H1477.91Z" fill="#4AFF85" mask="url(#path-3-outside-2_3913_93959)"/>
</g>
<g opacity="0.4">
<mask id="path-5-outside-3_3913_93959" maskUnits="userSpaceOnUse" x="-19.0007" y="0" width="1597" height="1468" fill="black">
<rect fill="white" x="-19.0007" width="1597" height="1468"/>
<path fill-rule="evenodd" clip-rule="evenodd" d="M1576.25 152.469V677.071L1576.25 1420.85C1576.25 1420.85 1305.6 1285.47 976.846 1353.16C827.75 1383.86 732.727 1362.18 651.976 1343.75C554.675 1321.55 478.094 1304.08 352.601 1388.67C122.961 1543.46 -18.0007 1420.85 -18.0007 1420.85V677.071H-17.9999V90.9536C-17.9999 90.9536 314.498 323.235 507.498 152.469C606.677 64.7159 695.556 79.8872 782.958 94.8061C865.638 108.919 946.996 122.807 1034.5 49.1233C1214.5 -102.45 1576.25 152.469 1576.25 152.469Z"/>
</mask>
<path fill-rule="evenodd" clip-rule="evenodd" d="M1576.25 152.469V677.071L1576.25 1420.85C1576.25 1420.85 1305.6 1285.47 976.846 1353.16C827.75 1383.86 732.727 1362.18 651.976 1343.75C554.675 1321.55 478.094 1304.08 352.601 1388.67C122.961 1543.46 -18.0007 1420.85 -18.0007 1420.85V677.071H-17.9999V90.9536C-17.9999 90.9536 314.498 323.235 507.498 152.469C606.677 64.7159 695.556 79.8872 782.958 94.8061C865.638 108.919 946.996 122.807 1034.5 49.1233C1214.5 -102.45 1576.25 152.469 1576.25 152.469Z" fill="url(#paint2_linear_3913_93959)"/>
<path d="M1576.25 677.071H1577.25H1576.25ZM1576.25 152.469H1577.25V151.95L1576.82 151.652L1576.25 152.469ZM1576.25 1420.85L1575.8 1421.74L1577.25 1422.47V1420.85H1576.25ZM976.846 1353.16L976.645 1352.18L976.846 1353.16ZM651.976 1343.75L652.199 1342.78L651.976 1343.75ZM352.601 1388.67L352.042 1387.84L352.601 1388.67ZM-18.0007 1420.85H-19.0007V1421.3L-18.657 1421.6L-18.0007 1420.85ZM-18.0007 677.071V676.071H-19.0007V677.071H-18.0007ZM-17.9999 677.071V678.071H-16.9999V677.071H-17.9999ZM-17.9999 90.9536L-17.4272 90.1339L-18.9999 89.0352V90.9536H-17.9999ZM507.498 152.469L506.836 151.72L507.498 152.469ZM782.958 94.8061L783.126 93.8204L782.958 94.8061ZM1034.5 49.1233L1033.85 48.3584L1034.5 49.1233ZM1577.25 677.071V152.469H1575.25V677.071H1577.25ZM1577.25 1420.85L1577.25 677.071H1575.25L1575.25 1420.85H1577.25ZM977.048 1354.14C1141.24 1320.33 1290.94 1337.23 1399.6 1362.59C1453.93 1375.27 1497.99 1390.07 1528.46 1401.69C1543.7 1407.5 1555.54 1412.51 1563.57 1416.08C1567.58 1417.86 1570.64 1419.28 1572.7 1420.25C1573.73 1420.73 1574.5 1421.11 1575.02 1421.36C1575.28 1421.49 1575.48 1421.58 1575.61 1421.65C1575.67 1421.68 1575.72 1421.7 1575.75 1421.72C1575.77 1421.73 1575.78 1421.73 1575.79 1421.74C1575.79 1421.74 1575.79 1421.74 1575.8 1421.74C1575.8 1421.74 1575.8 1421.74 1576.25 1420.85C1576.69 1419.95 1576.69 1419.95 1576.69 1419.95C1576.69 1419.95 1576.68 1419.95 1576.68 1419.95C1576.67 1419.94 1576.66 1419.94 1576.64 1419.93C1576.61 1419.91 1576.56 1419.89 1576.49 1419.85C1576.36 1419.79 1576.16 1419.69 1575.9 1419.56C1575.37 1419.31 1574.59 1418.93 1573.55 1418.44C1571.48 1417.46 1568.41 1416.04 1564.38 1414.25C1556.32 1410.67 1544.45 1405.64 1529.18 1399.82C1498.63 1388.17 1454.48 1373.35 1400.05 1360.65C1291.2 1335.24 1141.2 1318.3 976.645 1352.18L977.048 1354.14ZM651.754 1344.73C732.548 1363.16 827.74 1384.88 977.048 1354.14L976.645 1352.18C827.761 1382.83 732.907 1361.19 652.199 1342.78L651.754 1344.73ZM353.16 1389.49C415.794 1347.28 466.148 1330.57 512.933 1327.16C559.754 1323.74 603.079 1333.62 651.754 1344.73L652.199 1342.78C603.572 1331.68 559.956 1321.72 512.788 1325.16C465.584 1328.61 414.901 1345.47 352.042 1387.84L353.16 1389.49ZM-18.0007 1420.85C-18.657 1421.6 -18.6559 1421.6 -18.6543 1421.6C-18.6531 1421.61 -18.6509 1421.61 -18.6484 1421.61C-18.6434 1421.61 -18.6363 1421.62 -18.627 1421.63C-18.6084 1421.64 -18.5812 1421.67 -18.5454 1421.7C-18.4738 1421.76 -18.368 1421.85 -18.2281 1421.96C-17.9484 1422.2 -17.5324 1422.54 -16.9816 1422.97C-15.8802 1423.84 -14.2399 1425.09 -12.0736 1426.63C-7.74097 1429.7 -1.30327 1433.91 7.13748 1438.47C24.0187 1447.58 48.9164 1458.11 81.0112 1463.79C145.23 1475.14 238.141 1467.02 353.16 1389.49L352.042 1387.84C237.422 1465.1 145.032 1473.07 81.3594 1461.82C49.5087 1456.19 24.8133 1445.74 8.08795 1436.71C-0.274616 1432.19 -6.64365 1428.03 -10.9169 1425C-13.0535 1423.48 -14.666 1422.25 -15.7416 1421.4C-16.2793 1420.98 -16.6829 1420.65 -16.9506 1420.43C-17.0844 1420.31 -17.1843 1420.23 -17.25 1420.17C-17.2829 1420.15 -17.3072 1420.13 -17.3229 1420.11C-17.3308 1420.11 -17.3365 1420.1 -17.3401 1420.1C-17.3419 1420.1 -17.343 1420.09 -17.3439 1420.09C-17.3444 1420.09 -17.3445 1420.09 -18.0007 1420.85ZM-19.0007 677.071V1420.85H-17.0007V677.071H-19.0007ZM-17.9999 676.071H-18.0007V678.071H-17.9999V676.071ZM-18.9999 90.9536V677.071H-16.9999V90.9536H-18.9999ZM506.836 151.72C410.763 236.725 279.87 221.5 172.698 184.802C119.147 166.465 71.6097 142.796 37.4565 123.706C20.3814 114.163 6.65553 105.766 -2.79951 99.757C-7.52694 96.7524 -11.1865 94.3448 -13.6629 92.6892C-14.9011 91.8615 -15.8435 91.2217 -16.4757 90.7893C-16.7917 90.5732 -17.0303 90.4088 -17.1895 90.2988C-17.2691 90.2438 -17.3288 90.2023 -17.3685 90.1747C-17.3884 90.1609 -17.4032 90.1506 -17.413 90.1438C-17.4179 90.1404 -17.4214 90.1379 -17.4239 90.1362C-17.4262 90.1346 -17.4272 90.1339 -17.9999 90.9536C-18.5726 91.7734 -18.5711 91.7745 -18.5683 91.7764C-18.5657 91.7782 -18.5616 91.7811 -18.5564 91.7847C-18.5459 91.792 -18.5304 91.8028 -18.5099 91.817C-18.4689 91.8455 -18.4078 91.8879 -18.3268 91.9439C-18.1649 92.0558 -17.9236 92.2221 -17.6047 92.4402C-16.9669 92.8764 -16.0186 93.5201 -14.7744 94.3519C-12.286 96.0155 -8.61355 98.4316 -3.87229 101.445C5.61006 107.472 19.3684 115.888 36.4807 125.452C70.7021 144.579 118.352 168.307 172.05 186.695C279.378 223.446 411.234 238.979 508.161 153.218L506.836 151.72ZM783.126 93.8204C739.447 86.3646 695.236 78.8115 649.529 84.1422C603.777 89.478 556.573 107.712 506.836 151.72L508.161 153.218C557.601 109.473 604.427 91.4159 649.76 86.1288C695.137 80.8366 739.067 88.3286 782.789 95.7919L783.126 93.8204ZM1033.85 48.3584C946.733 121.721 865.807 107.934 783.126 93.8204L782.789 95.7919C865.47 109.905 947.26 123.892 1035.14 49.8882L1033.85 48.3584ZM1576.25 152.469C1576.82 151.652 1576.82 151.651 1576.82 151.648C1576.82 151.646 1576.81 151.643 1576.81 151.639C1576.79 151.631 1576.78 151.62 1576.75 151.604C1576.71 151.573 1576.64 151.526 1576.56 151.465C1576.38 151.342 1576.12 151.16 1575.77 150.92C1575.08 150.441 1574.05 149.733 1572.7 148.816C1570 146.983 1566.02 144.315 1560.9 140.974C1550.64 134.292 1535.8 124.918 1517.42 114.144C1480.66 92.5968 1429.77 65.4426 1373.24 43.0265C1316.72 20.6134 1254.51 2.91729 1195.13 0.326897C1135.74 -2.26386 1079.1 10.2547 1033.85 48.3584L1035.14 49.8882C1079.89 12.2051 1135.98 -0.251544 1195.04 2.325C1254.11 4.9019 1316.09 22.5156 1372.5 44.8856C1428.91 67.2527 1479.71 94.3549 1516.41 115.869C1534.75 126.625 1549.57 135.982 1559.81 142.649C1564.92 145.983 1568.89 148.644 1571.58 150.47C1572.92 151.384 1573.95 152.088 1574.63 152.565C1574.98 152.803 1575.24 152.983 1575.41 153.105C1575.5 153.165 1575.56 153.211 1575.61 153.241C1575.63 153.257 1575.64 153.268 1575.65 153.275C1575.66 153.279 1575.66 153.282 1575.67 153.284C1575.67 153.286 1575.67 153.286 1576.25 152.469Z" fill="#4AFF85" mask="url(#path-5-outside-3_3913_93959)"/>
</g>
<defs>
<linearGradient id="paint0_linear_3913_93959" x1="720" y1="398.435" x2="720.098" y2="1424.47" gradientUnits="userSpaceOnUse">
<stop stop-color="#C7FFD8" stop-opacity="0.74"/>
<stop offset="0.0001" stop-color="#B4FFCA" stop-opacity="0.74"/>
<stop offset="0.401042" stop-color="#D7FFF4"/>
<stop offset="0.677083" stop-color="#DBFFE0"/>
<stop offset="1" stop-color="#9AFFA4"/>
</linearGradient>
<linearGradient id="paint1_linear_3913_93959" x1="720" y1="378.062" x2="725.55" y2="1488.01" gradientUnits="userSpaceOnUse">
<stop stop-color="#B4FFCA" stop-opacity="0.74"/>
<stop offset="0.0001" stop-color="#B4FFCA" stop-opacity="0.74"/>
<stop offset="0.401042" stop-color="#C8FFF0"/>
<stop offset="0.677083" stop-color="#E7FFEA"/>
<stop offset="1" stop-color="#DFFFDA"/>
</linearGradient>
<linearGradient id="paint2_linear_3913_93959" x1="779.123" y1="330.749" x2="784.304" y2="1431.25" gradientUnits="userSpaceOnUse">
<stop stop-color="#B4FFCA" stop-opacity="0.74"/>
<stop offset="0.0001" stop-color="#B4FFCA" stop-opacity="0.74"/>
<stop offset="0.401042" stop-color="#C8FFF0"/>
<stop offset="0.677083" stop-color="#E7FFEA"/>
<stop offset="1" stop-color="#DFFFDA"/>
</linearGradient>
</defs>
</svg>
