<svg width="1440" height="1409" viewBox="0 0 1440 1409" fill="none" xmlns="http://www.w3.org/2000/svg">
<mask id="path-1-outside-1_3913_93960" maskUnits="userSpaceOnUse" x="-1" y="0.0703125" width="1442" height="1409" fill="black">
<rect fill="white" x="-1" y="0.0703125" width="1442" height="1409"/>
<path fill-rule="evenodd" clip-rule="evenodd" d="M1440 47.8984V694.059V1365.87C1440 1365.87 1195.54 1243.59 898.594 1304.73C763.923 1332.46 678.094 1312.88 605.155 1296.24C517.268 1276.18 448.097 1260.4 334.745 1336.8C127.324 1476.62 0 1365.87 0 1365.87L2.44379e-05 694.059V47.8984C2.44379e-05 47.8984 295.313 280.175 541.406 106.703C671.145 15.2503 729.36 46.2547 785.798 76.313C836.414 103.271 885.601 129.467 983.672 65.8858C1191.09 -68.5902 1440 47.8984 1440 47.8984Z"/>
</mask>
<path fill-rule="evenodd" clip-rule="evenodd" d="M1440 47.8984V694.059V1365.87C1440 1365.87 1195.54 1243.59 898.594 1304.73C763.923 1332.46 678.094 1312.88 605.155 1296.24C517.268 1276.18 448.097 1260.4 334.745 1336.8C127.324 1476.62 0 1365.87 0 1365.87L2.44379e-05 694.059V47.8984C2.44379e-05 47.8984 295.313 280.175 541.406 106.703C671.145 15.2503 729.36 46.2547 785.798 76.313C836.414 103.271 885.601 129.467 983.672 65.8858C1191.09 -68.5902 1440 47.8984 1440 47.8984Z" fill="url(#paint0_linear_3913_93960)"/>
<path d="M1440 47.8984H1441V47.2623L1440.42 46.9927L1440 47.8984ZM1440 1365.87L1439.55 1366.77L1441 1367.49V1365.87H1440ZM898.594 1304.73L898.392 1303.75L898.594 1304.73ZM605.155 1296.24L604.933 1297.21L605.155 1296.24ZM334.746 1336.8L334.187 1335.98L334.746 1336.8ZM0 1365.87H-1V1366.33L-0.65628 1366.63L0 1365.87ZM2.44379e-05 694.059H1.00002H2.44379e-05ZM2.44379e-05 47.8984L0.618249 47.1124L-0.999976 45.8396V47.8984H2.44379e-05ZM541.406 106.703L541.982 107.521L541.406 106.703ZM785.798 76.313L785.328 77.1957L785.798 76.313ZM983.672 65.8857L983.128 65.0467L983.672 65.8857ZM1441 694.059V47.8984H1439V694.059H1441ZM1441 1365.87V694.059H1439V1365.87H1441ZM898.795 1305.71C1047.09 1275.18 1182.29 1290.45 1280.42 1313.35C1329.49 1324.8 1369.28 1338.16 1396.81 1348.66C1410.57 1353.9 1421.26 1358.44 1428.51 1361.65C1432.13 1363.26 1434.9 1364.54 1436.75 1365.42C1437.68 1365.86 1438.38 1366.2 1438.85 1366.42C1439.09 1366.54 1439.26 1366.62 1439.38 1366.68C1439.44 1366.71 1439.48 1366.73 1439.51 1366.75C1439.52 1366.75 1439.54 1366.76 1439.54 1366.76C1439.55 1366.76 1439.55 1366.77 1439.55 1366.77C1439.55 1366.77 1439.55 1366.77 1440 1365.87C1440.45 1364.98 1440.45 1364.98 1440.44 1364.98C1440.44 1364.98 1440.44 1364.98 1440.43 1364.97C1440.43 1364.97 1440.42 1364.96 1440.4 1364.96C1440.37 1364.94 1440.32 1364.92 1440.26 1364.89C1440.14 1364.83 1439.96 1364.74 1439.73 1364.63C1439.25 1364.39 1438.54 1364.05 1437.61 1363.61C1435.74 1362.73 1432.96 1361.44 1429.32 1359.82C1422.04 1356.59 1411.32 1352.05 1397.52 1346.79C1369.93 1336.27 1330.05 1322.88 1280.88 1311.4C1182.55 1288.45 1047.04 1273.15 898.392 1303.75L898.795 1305.71ZM604.933 1297.21C677.914 1313.86 763.912 1333.49 898.795 1305.71L898.392 1303.75C763.934 1331.44 678.273 1311.89 605.378 1295.26L604.933 1297.21ZM335.304 1337.63C391.868 1299.51 437.333 1284.43 479.572 1281.35C521.846 1278.26 560.965 1287.18 604.933 1297.21L605.378 1295.26C561.458 1285.24 522.048 1276.24 479.427 1279.35C436.77 1282.46 390.975 1297.7 334.187 1335.98L335.304 1337.63ZM0 1365.87C-0.65628 1366.63 -0.655266 1366.63 -0.653766 1366.63C-0.652618 1366.63 -0.650631 1366.63 -0.648335 1366.64C-0.643743 1366.64 -0.637208 1366.64 -0.628732 1366.65C-0.611781 1366.67 -0.587068 1366.69 -0.554616 1366.72C-0.489713 1366.77 -0.393853 1366.85 -0.267217 1366.96C-0.013946 1367.17 0.362442 1367.47 0.860509 1367.87C1.85663 1368.66 3.33954 1369.79 5.29775 1371.18C9.21403 1373.95 15.0322 1377.75 22.6601 1381.87C37.9156 1390.11 60.4141 1399.63 89.4155 1404.75C147.447 1415.01 231.394 1407.68 335.304 1337.63L334.187 1335.98C230.675 1405.75 147.249 1412.95 89.7636 1402.79C61.0064 1397.7 38.7101 1388.27 23.6105 1380.11C16.0608 1376.04 10.3113 1372.28 6.45437 1369.54C4.52595 1368.18 3.07083 1367.07 2.10058 1366.3C1.61546 1365.92 1.25158 1365.62 1.01037 1365.42C0.88977 1365.32 0.799841 1365.24 0.740765 1365.19C0.711227 1365.17 0.689403 1365.15 0.675314 1365.14C0.66827 1365.13 0.66316 1365.13 0.659987 1365.12C0.6584 1365.12 0.657474 1365.12 0.65668 1365.12C0.656238 1365.12 0.65628 1365.12 0 1365.87ZM-0.999976 694.059L-1 1365.87H1L1.00002 694.059H-0.999976ZM-0.999976 47.8984V694.059H1.00002V47.8984H-0.999976ZM540.83 105.886C418.155 192.36 283.183 177.74 178.747 141.408C126.535 123.245 81.9946 99.6657 50.5052 80.6254C34.7619 71.106 22.2842 62.7231 13.7449 56.722C9.47529 53.7216 6.19053 51.3167 3.97467 49.6632C2.86675 48.8364 2.02608 48.1975 1.46316 47.7659C1.18171 47.5501 0.969693 47.3861 0.828435 47.2764C0.757807 47.2215 0.704867 47.1802 0.669781 47.1528C0.652238 47.1391 0.639159 47.1288 0.630563 47.1221C0.626265 47.1187 0.623187 47.1163 0.621035 47.1146C0.61908 47.1131 0.618249 47.1124 2.44379e-05 47.8984C-0.6182 48.6844 -0.616778 48.6855 -0.614233 48.6875C-0.611883 48.6894 -0.608212 48.6923 -0.603519 48.6959C-0.594131 48.7033 -0.580256 48.7142 -0.561914 48.7285C-0.525231 48.7572 -0.470681 48.7997 -0.398429 48.8559C-0.253924 48.9681 -0.0386082 49.1346 0.246204 49.353C0.815826 49.7898 1.66344 50.434 2.77854 51.2661C5.00871 52.9303 8.30888 55.3464 12.5949 58.3584C21.1668 64.3823 33.683 72.7908 49.4704 82.3368C81.0425 101.427 125.711 125.075 178.089 143.297C282.833 179.736 418.564 194.518 541.982 107.521L540.83 105.886ZM786.268 75.4304C758.065 60.4098 729.197 45.0188 691.092 44.9414C652.981 44.864 605.791 60.0952 540.83 105.886L541.982 107.521C606.761 61.8583 653.547 46.8652 691.088 46.9414C728.634 47.0176 757.093 62.1579 785.328 77.1957L786.268 75.4304ZM983.128 65.0467C934.209 96.7618 897.606 106.007 867.003 104.053C836.368 102.098 811.6 88.9216 786.268 75.4304L785.328 77.1957C810.613 90.6619 835.746 104.062 866.876 106.049C898.038 108.038 935.064 98.591 984.216 66.7248L983.128 65.0467ZM1440 47.8984C1440.42 46.9927 1440.42 46.9921 1440.42 46.9911C1440.42 46.9901 1440.42 46.9886 1440.41 46.9868C1440.4 46.983 1440.39 46.9775 1440.38 46.9703C1440.34 46.9558 1440.3 46.9344 1440.24 46.9062C1440.11 46.8499 1439.93 46.7665 1439.69 46.6575C1439.21 46.4395 1438.5 46.1189 1437.56 45.707C1435.67 44.8831 1432.89 43.6938 1429.28 42.2289C1422.05 39.2991 1411.49 35.2664 1398.18 30.8492C1371.56 22.0151 1333.91 11.6397 1289.76 5.4732C1201.47 -6.85833 1087.11 -2.36948 983.128 65.0467L984.216 66.7248C1087.65 -0.335005 1201.46 -4.83982 1289.48 7.45397C1333.48 13.6001 1371.02 23.9422 1397.55 32.7474C1410.82 37.1497 1421.33 41.1671 1428.52 44.0825C1432.12 45.5401 1434.89 46.7222 1436.75 47.5391C1437.69 47.9475 1438.39 48.2646 1438.87 48.4792C1439.1 48.5865 1439.28 48.6681 1439.4 48.7228C1439.46 48.7501 1439.5 48.7706 1439.53 48.7842C1439.55 48.7911 1439.56 48.7961 1439.57 48.7995C1439.57 48.8011 1439.57 48.8023 1439.57 48.8031C1439.58 48.8038 1439.58 48.8041 1440 47.8984Z" fill="#4AFF85" mask="url(#path-1-outside-1_3913_93960)"/>
<defs>
<linearGradient id="paint0_linear_3913_93960" x1="720" y1="317.435" x2="720.098" y2="1343.47" gradientUnits="userSpaceOnUse">
<stop stop-color="#C7FFD8" stop-opacity="0.74"/>
<stop offset="0.0001" stop-color="#B4FFCA" stop-opacity="0.74"/>
<stop offset="0.401042" stop-color="#D7FFF4"/>
<stop offset="0.677083" stop-color="#DBFFE0"/>
<stop offset="1" stop-color="#9AFFA4"/>
</linearGradient>
</defs>
</svg>
