<svg width="454" height="329" viewBox="0 0 454 329" fill="none" xmlns="http://www.w3.org/2000/svg">
<path fill-rule="evenodd" clip-rule="evenodd" d="M226.905 3.61095L228.864 3.83434L230.818 4.05703L232.766 4.27935L234.71 4.5017L236.649 4.72454L238.586 4.94838L240.519 5.17382L242.451 5.40133L244.381 5.63161L246.311 5.86504L248.24 6.1018L250.17 6.34172L252.101 6.58397L254.035 6.82766L255.971 7.07131L257.913 7.3134L259.86 7.55217L261.814 7.78582L263.778 8.01229L265.753 8.22972L267.741 8.43615L269.744 8.62984L271.765 8.80916L273.806 8.97264L275.87 9.11919L277.958 9.24791L280.073 9.35836L282.217 9.45046L284.393 9.52455L286.601 9.58144L288.846 9.62212L291.126 9.64778L293.446 9.65993L295.805 9.66017L298.205 9.65047L300.648 9.63283L303.134 9.60958L305.663 9.58318L308.237 9.55629L310.855 9.53172L313.518 9.51238L316.225 9.50136L318.976 9.50185L321.769 9.51711L324.605 9.55052L327.48 9.60548L330.395 9.68544L333.347 9.79381L336.335 9.93413L339.355 10.1098L342.405 10.3242L345.483 10.5807L348.585 10.8826L351.709 11.233L354.85 11.6351L358.005 12.0917L361.171 12.6056L364.343 13.1795L367.517 13.8157L370.69 14.5166L373.857 15.2843L377.013 16.1205L380.155 17.027L383.277 18.0051L386.375 19.0561L389.446 20.181L392.483 21.3804L395.484 22.6549L398.443 24.0047L401.357 25.4298L404.222 26.93L407.032 28.5049L409.785 30.1539L412.477 31.8758L415.105 33.6697L417.665 35.5342L420.154 37.4678L422.569 39.4689L424.908 41.5354L427.168 43.6655L429.348 45.857L431.446 48.1075L433.459 50.4146L435.387 52.776L437.229 55.189L438.983 57.6512L440.647 60.1601L442.221 62.7133L443.704 65.3084L445.093 67.9428L446.388 70.614L447.586 73.3197L448.687 76.0574L449.69 78.8244L450.591 81.6182L451.391 84.4362L452.088 87.2759L452.679 90.1346L453.164 93.0095L453.54 95.898L453.806 98.7973L453.96 101.704L454 104.617L453.923 107.531L453.728 110.444L453.414 113.352L452.98 116.253L452.425 119.143L451.749 122.019L450.954 124.876L450.041 127.712L449.011 130.524L447.867 133.308L446.613 136.061L445.251 138.78L443.786 141.462L442.222 144.105L440.566 146.707L438.823 149.265L436.999 151.778L435.102 154.244L433.138 156.663L431.115 159.033L429.041 161.356L426.924 163.63L424.773 165.857L422.597 168.038L420.403 170.174L418.201 172.267L416 174.32L413.807 176.335L411.632 178.316L409.483 180.266L407.368 182.19L405.293 184.091L403.267 185.975L401.295 187.845L399.385 189.708L397.541 191.569L395.768 193.432L394.071 195.304L392.452 197.189L390.915 199.094L389.46 201.024L388.09 202.984L386.805 204.979L385.603 207.013L384.483 209.092L383.444 211.219L382.481 213.398L381.59 215.632L380.768 217.924L380.009 220.275L379.306 222.688L378.653 225.163L378.042 227.699L377.465 230.298L376.915 232.957L376.383 235.674L375.859 238.446L375.334 241.271L374.8 244.144L374.248 247.061L373.668 250.016L373.05 253.004L372.387 256.017L371.67 259.05L370.89 262.094L370.04 265.142L369.112 268.185L368.1 271.216L366.998 274.225L365.801 277.205L364.504 280.146L363.103 283.042L361.597 285.883L359.983 288.662L358.26 291.373L356.429 294.009L354.489 296.563L352.441 299.03L350.288 301.403L348.03 303.678L345.671 305.848L343.213 307.91L340.66 309.86L338.017 311.695L335.287 313.411L332.475 315.007L329.587 316.482L326.628 317.834L323.603 319.064L320.519 320.172L317.382 321.16L314.198 322.03L310.972 322.784L307.711 323.426L304.422 323.961L301.11 324.392L297.78 324.726L294.438 324.967L291.09 325.123L287.74 325.2L284.393 325.206L281.053 325.147L277.723 325.031L274.406 324.867L271.106 324.662L267.824 324.425L264.562 324.163L261.322 323.885L258.103 323.598L254.906 323.31L251.731 323.028L248.576 322.759L245.44 322.509L242.321 322.284L239.218 322.09L236.128 321.93L233.048 321.81L229.974 321.732L226.905 321.699L223.835 321.712L220.763 321.773L217.683 321.881L214.594 322.036L211.492 322.235L208.372 322.478L205.233 322.76L202.072 323.078L198.886 323.427L195.674 323.802L192.433 324.196L189.162 324.605L185.86 325.024L182.527 325.447L179.162 325.868L175.764 326.283L172.334 326.686L168.872 327.073L165.38 327.438L161.856 327.775L158.304 328.082L154.725 328.351L151.12 328.579L147.49 328.762L143.839 328.896L140.169 328.976L136.48 329L132.777 328.965L129.06 328.867L125.333 328.707L121.598 328.48L117.856 328.185L114.112 327.821L110.368 327.383L106.627 326.871L102.893 326.282L99.1691 325.614L95.4597 324.864L91.7686 324.031L88.0999 323.113L84.458 322.107L80.8472 321.012L77.2722 319.826L73.7374 318.549L70.2477 317.179L66.8075 315.715L63.4216 314.158L60.0946 312.506L56.831 310.76L53.6352 308.921L50.5115 306.988L47.4639 304.964L44.4965 302.849L41.6128 300.645L38.8164 298.354L36.1103 295.979L33.4975 293.521L30.9806 290.984L28.5617 288.371L26.2428 285.684L24.0254 282.928L21.9108 280.106L19.8997 277.222L17.9928 274.28L16.1902 271.284L14.4917 268.237L12.8968 265.145L11.4047 262.01L10.0143 258.838L8.72425 255.633L7.53298 252.397L6.43866 249.137L5.4393 245.854L4.53274 242.553L3.71668 239.238L2.98876 235.912L2.34652 232.578L1.78747 229.239L1.30911 225.898L0.908975 222.558L0.58463 219.222L0.333711 215.891L0.153944 212.568L0.0432194 209.255L-5.37855e-06 205.953L0.0235306 202.664L0.113836 199.388L0.271592 196.128L0.498067 192.882L0.79503 189.652L1.16465 186.438L1.6094 183.242L2.13194 180.064L2.73502 176.904L3.42135 173.765L4.19349 170.646L5.05375 167.55L6.00401 164.479L7.04568 161.434L8.17951 158.416L9.40549 155.429L10.7228 152.475L12.1295 149.555L13.623 146.673L15.2005 143.83L16.8588 141.029L18.5945 138.271L20.404 135.559L22.2835 132.894L24.2288 130.278L26.2357 127.712L28.2998 125.198L30.4165 122.737L32.5809 120.329L34.7881 117.975L37.0332 115.675L39.3111 113.43L41.6165 111.241L43.9443 109.105L46.2893 107.024L48.6464 104.996L51.0104 103.021L53.3762 101.097L55.7388 99.2237L58.0934 97.3988L60.4353 95.6208L62.7599 93.8878L65.0628 92.1978L67.3398 90.5485L69.5872 88.9375L71.801 87.3624L73.978 85.8204L76.115 84.3088L78.2091 82.8248L80.2578 81.3655L82.2589 79.9279L84.2104 78.509L86.1107 77.1059L87.9586 75.7154L89.7531 74.3347L91.4936 72.9608L93.1797 71.5907L94.8114 70.2216L96.3892 68.8507L97.9137 67.4756L99.3858 66.0935L100.807 64.7021L102.178 63.2993L103.502 61.8828L104.78 60.451L106.015 59.0019L107.209 57.5342L108.365 56.0465L109.486 54.5378L110.575 53.0072L111.635 51.454L112.67 49.878L113.683 48.2788L114.679 46.6569L115.661 45.0132L116.635 43.3492L117.606 41.667L118.58 39.9691L119.561 38.2586L120.555 36.5389L121.568 34.814L122.606 33.088L123.672 31.3654L124.772 29.651L125.91 27.9496L127.09 26.2662L128.315 24.6058L129.589 22.9734L130.915 21.374L132.293 19.8121L133.726 18.2923L135.214 16.8189L136.758 15.3957L138.357 14.0264L140.012 12.7141L141.719 11.4619L143.48 10.2721L145.29 9.14712L147.149 8.08846L149.054 7.0975L151.001 6.17507L152.989 5.32171L155.014 4.53738L157.073 3.8218L159.161 3.17419L161.277 2.59341L163.416 2.078L165.575 1.62618L167.75 1.23586L169.939 0.904656L172.137 0.629967L174.343 0.408958L176.553 0.23867L178.764 0.115898L180.974 0.0374677L183.18 2.25105e-05L185.38 0.00020552L187.574 0.0347208L189.758 0.100181L191.931 0.193412L194.093 0.31121L196.242 0.450553L198.379 0.608512L200.501 0.782401L202.609 0.969626L204.703 1.16784L206.783 1.37487L208.849 1.58877L210.901 1.80782L212.94 2.03054L214.967 2.25558L216.982 2.48195L218.986 2.70879L220.979 2.93545L222.963 3.16149L224.937 3.38671L226.905 3.61095Z" fill="url(#paint0_linear_4014_108754)"/>
<defs>
<linearGradient id="paint0_linear_4014_108754" x1="-1764.46" y1="-981.629" x2="-1530.63" y2="-1296.43" gradientUnits="userSpaceOnUse">
<stop stop-color="#89FFD1"/>
<stop offset="1" stop-color="#BFFF9E"/>
</linearGradient>
</defs>
</svg>
