<svg width="1440" height="3689" viewBox="0 0 1440 3689" fill="none" xmlns="http://www.w3.org/2000/svg">
<path d="M1700.67 160.916L1700.67 3567.15C1704.52 3568.32 1707.6 3569.73 1710.02 3571.34C1715.34 3574.87 1717.42 3579.33 1717.5 3584.02C1717.57 3588.68 1715.68 3593.51 1713.17 3597.85C1710.65 3602.2 1707.48 3606.1 1704.95 3608.92C1703.68 3610.33 1702.57 3611.46 1701.78 3612.25C1701.38 3612.64 1701.06 3612.95 1700.84 3613.16C1700.73 3613.26 1700.65 3613.34 1700.59 3613.39L1700.53 3613.46L1700.51 3613.47L1700.5 3613.48C1700.5 3613.48 1700.5 3613.48 1700.17 3613.11L1700.5 3613.48L1699.67 3614.24V3613.11V3567.9C1695.29 3566.65 1689.89 3565.7 1683.29 3565.14C1670.49 3564.07 1653.22 3564.5 1630.2 3567.08C1584.15 3572.24 1515.15 3586.02 1413.02 3613.59C1208.7 3668.74 1022.58 3696.58 822.593 3686.45C622.605 3676.32 408.767 3628.22 148.997 3531.55C71.0391 3502.53 12.4393 3484.09 -30.8601 3473.68V3613.11V3614.16L-31.6754 3613.5L-31.6151 3613.42C-31.6768 3613.49 -31.6779 3613.49 -31.6794 3613.49L-31.6912 3613.48L-31.7375 3613.45L-31.9203 3613.3C-32.0817 3613.16 -32.3213 3612.97 -32.6344 3612.71C-33.2607 3612.19 -34.1816 3611.43 -35.3605 3610.45C-37.7181 3608.47 -41.1077 3605.61 -45.2368 3602.03C-53.4949 3594.88 -64.7124 3584.87 -76.55 3573.46C-88.3867 3562.06 -100.848 3549.25 -111.592 3536.5C-122.33 3523.75 -131.375 3511.03 -136.354 3499.8C-141.321 3488.59 -142.318 3478.68 -136.621 3471.76C-130.953 3464.87 -118.827 3461.15 -98.1732 3461.84C-81.8723 3462.38 -60.1484 3465.67 -31.8601 3472.41L-31.8601 130.223V129.622L-31.269 129.732L-31.3601 130.223C-31.269 129.732 -31.2672 129.732 -31.2635 129.733L-31.2467 129.736L-31.1796 129.748L-30.9111 129.797C-30.6731 129.841 -30.3173 129.906 -29.8462 129.991C-28.9039 130.162 -27.501 130.414 -25.6584 130.74C-21.9733 131.392 -16.5297 132.338 -9.49731 133.518C4.5675 135.877 24.9875 139.167 50.4062 142.894C101.244 150.346 172.074 159.54 252.045 166.506C412.003 180.439 608.467 185.453 754.657 149.823C887.94 117.339 1024.45 151.922 1146.96 182.955C1159.04 186.014 1170.98 189.039 1182.76 191.962C1248.47 208.254 1309.43 221.372 1362.84 219.669C1416.22 217.966 1462.03 201.461 1497.52 158.526C1571.15 69.4463 1620.66 24.9559 1653.53 8.39008C1669.97 0.10552 1682.34 -1.24433 1691.51 2.43089C1700.69 6.10894 1706.5 14.7553 1709.96 26.0837C1716.87 48.7227 1714.52 82.4801 1710.47 110.504C1708.45 124.531 1705.99 137.147 1704.04 146.257C1703.07 150.812 1702.22 154.491 1701.62 157.032C1701.31 158.302 1701.07 159.288 1700.91 159.957C1700.82 160.291 1700.76 160.546 1700.72 160.718L1700.67 160.912L1700.67 160.916Z" fill="url(#paint0_linear_4083_114807)" stroke="#4AFF85"/>
<defs>
<linearGradient id="paint0_linear_4083_114807" x1="853.613" y1="145.282" x2="853.613" y2="3774.09" gradientUnits="userSpaceOnUse">
<stop stop-color="#BAFFD9" stop-opacity="0.31"/>
<stop offset="0.546875" stop-color="#C8FFE1"/>
<stop offset="1" stop-color="#ECFFE9"/>
</linearGradient>
</defs>
</svg>
