<svg width="1440" height="3624" viewBox="0 0 1440 3624" fill="none" xmlns="http://www.w3.org/2000/svg">
<path opacity="0.6" d="M-54.9258 3L-54.4289 2.94392L-55.4258 3L-55.4258 3454.51C-55.9133 3454.1 -56.6111 3453.52 -57.5009 3452.78C-59.3748 3451.22 -62.1003 3448.96 -65.507 3446.15C-72.3203 3440.54 -81.8586 3432.75 -92.7592 3424.04C-114.557 3406.62 -141.814 3385.51 -163.62 3370.79C-174.517 3363.44 -184.081 3357.65 -190.933 3354.73C-194.342 3353.27 -197.158 3352.49 -199.156 3352.63C-200.168 3352.7 -201.027 3353.01 -201.628 3353.66C-202.23 3354.3 -202.503 3355.2 -202.5 3356.29C-202.494 3358.46 -201.413 3361.61 -199.189 3365.86C-196.954 3370.13 -193.526 3375.58 -188.744 3382.36C-179.178 3395.92 -164.162 3414.84 -142.34 3440.38C-98.6046 3491.57 -22.7023 3529.18 72.6783 3556.51C168.074 3583.84 283.026 3600.92 404.942 3610.98C648.775 3631.11 920.532 3623.21 1119.54 3613.29C1318.53 3603.37 1457.89 3603.37 1547.49 3605.85C1592.3 3607.09 1624.66 3608.95 1645.83 3610.5C1656.41 3611.28 1664.19 3611.97 1669.32 3612.48C1671.89 3612.73 1673.79 3612.93 1675.06 3613.07C1675.69 3613.14 1676.16 3613.2 1676.47 3613.23L1676.82 3613.28L1676.91 3613.29L1676.93 3613.29L1676.94 3613.29C1676.94 3613.29 1676.94 3613.29 1677 3612.79L1676.94 3613.29L1677.5 3613.36V3612.79L1677.5 3V1.85675L1676.66 2.63263L1676.66 2.63287L1676.66 2.63357L1676.65 2.63897L1676.63 2.66389C1676.6 2.68676 1676.56 2.72217 1676.5 2.7701C1676.39 2.86595 1676.22 3.01185 1675.97 3.20768C1675.48 3.59936 1674.71 4.19062 1673.59 4.98054C1671.34 6.56047 1667.7 8.93426 1662.12 12.0945C1650.96 18.4153 1632.08 27.8787 1601.21 40.4269C1539.45 65.5235 1429.74 102.951 1237.93 152.252C1046.96 201.339 886.949 175.278 730.564 149.808L728.76 149.515C571.812 123.954 418.399 99.2784 241.042 152.257C173.58 172.409 121.405 173.122 81.0918 162.894C40.7832 152.667 12.2969 131.492 -7.77681 107.801C-27.8551 84.1055 -39.5206 57.8881 -46.1662 37.5868C-49.4886 27.4377 -51.555 18.7713 -52.7905 12.6444C-53.4082 9.58108 -53.8182 7.15292 -54.0735 5.49204C-54.2012 4.66161 -54.2902 4.02304 -54.3472 3.59284C-54.3757 3.37774 -54.3963 3.21473 -54.4096 3.10589C-54.4163 3.05147 -54.4211 3.01059 -54.4243 2.98351L-54.4279 2.95327L-54.4287 2.94597C-54.4288 2.9445 -54.4289 2.94392 -54.9258 3Z" fill="url(#paint0_linear_4083_114808)" stroke="#4AFF85"/>
<defs>
<linearGradient id="paint0_linear_4083_114808" x1="824.165" y1="53.7595" x2="824.165" y2="3682.91" gradientUnits="userSpaceOnUse">
<stop stop-color="#BAFFD9" stop-opacity="0.31"/>
<stop offset="0.546875" stop-color="#BAFFD9"/>
<stop offset="1" stop-color="#ECFFE9"/>
</linearGradient>
</defs>
</svg>
