<svg width="1440" height="877" viewBox="0 0 1440 877" fill="none" xmlns="http://www.w3.org/2000/svg">
<mask id="path-1-outside-1_3729_92304" maskUnits="userSpaceOnUse" x="-1" y="21.7344" width="1442" height="834" fill="black">
<rect fill="white" x="-1" y="21.7344" width="1442" height="834"/>
<path fill-rule="evenodd" clip-rule="evenodd" d="M1440 50.4329V432.633V830.008C1440 830.008 1195.54 757.681 898.594 793.844C763.923 810.246 678.094 798.662 605.155 788.818C517.268 776.956 448.097 767.621 334.745 812.814C127.324 895.514 0 830.008 0 830.008V432.633V50.4329C0 50.4329 295.312 187.823 541.406 85.2156C671.145 31.1217 729.36 49.4607 785.798 67.24C836.414 83.1852 885.601 98.6803 983.672 61.0723C1191.09 -18.4695 1440 50.4329 1440 50.4329Z"/>
</mask>
<path fill-rule="evenodd" clip-rule="evenodd" d="M1440 50.4329V432.633V830.008C1440 830.008 1195.54 757.681 898.594 793.844C763.923 810.246 678.094 798.662 605.155 788.818C517.268 776.956 448.097 767.621 334.745 812.814C127.324 895.514 0 830.008 0 830.008V432.633V50.4329C0 50.4329 295.312 187.823 541.406 85.2156C671.145 31.1217 729.36 49.4607 785.798 67.24C836.414 83.1852 885.601 98.6803 983.672 61.0723C1191.09 -18.4695 1440 50.4329 1440 50.4329Z" fill="url(#paint0_linear_3729_92304)"/>
<path d="M1440 50.4329H1441V49.6722L1440.27 49.4692L1440 50.4329ZM1440 830.008L1439.72 830.967L1441 831.347V830.008H1440ZM898.594 793.844L898.715 794.837L898.594 793.844ZM605.155 788.818L605.289 787.827L605.155 788.818ZM334.745 812.814L334.375 811.885L334.745 812.814ZM0 830.008H-1V830.618L-0.457487 830.897L0 830.008ZM0 50.4329L0.42182 49.5263L-1 48.8648V50.4329H0ZM541.406 85.2156L541.021 84.2926L541.406 85.2156ZM785.798 67.24L785.498 68.1938L785.798 67.24ZM983.672 61.0723L983.314 60.1386L983.672 61.0723ZM1441 432.633V50.4329H1439V432.633H1441ZM1441 830.008V432.633H1439V830.008H1441ZM898.715 794.837C1047.08 776.768 1182.34 785.802 1280.51 799.356C1329.6 806.132 1369.41 814.037 1396.94 820.247C1410.71 823.353 1421.41 826.034 1428.66 827.938C1432.29 828.89 1435.05 829.648 1436.91 830.168C1437.84 830.427 1438.54 830.628 1439.01 830.763C1439.25 830.83 1439.42 830.881 1439.54 830.916C1439.6 830.933 1439.64 830.946 1439.67 830.954C1439.69 830.959 1439.7 830.962 1439.71 830.964C1439.71 830.965 1439.71 830.966 1439.71 830.966C1439.72 830.967 1439.72 830.967 1440 830.008C1440.28 829.049 1440.28 829.049 1440.28 829.048C1440.28 829.048 1440.28 829.047 1440.27 829.046C1440.26 829.043 1440.25 829.04 1440.24 829.036C1440.21 829.027 1440.16 829.013 1440.1 828.996C1439.98 828.961 1439.8 828.909 1439.57 828.841C1439.09 828.704 1438.39 828.503 1437.45 828.242C1435.58 827.719 1432.81 826.959 1429.17 826.004C1421.89 824.094 1411.17 821.407 1397.38 818.297C1369.8 812.076 1329.94 804.159 1280.79 797.374C1182.49 783.805 1047.05 774.757 898.473 792.852L898.715 794.837ZM605.022 789.809C677.988 799.657 763.917 811.254 898.715 794.837L898.473 792.852C763.929 809.237 678.2 797.667 605.289 787.827L605.022 789.809ZM335.116 813.743C448.221 768.648 517.18 777.953 605.022 789.809L605.289 787.827C517.356 775.959 447.972 766.594 334.375 811.885L335.116 813.743ZM0 830.008C-0.457487 830.897 -0.45649 830.898 -0.455007 830.899C-0.453866 830.899 -0.451897 830.9 -0.449613 830.901C-0.445046 830.904 -0.438537 830.907 -0.430089 830.911C-0.413194 830.92 -0.388543 830.932 -0.356159 830.949C-0.29139 830.981 -0.195689 831.029 -0.0692362 831.091C0.18367 831.215 0.559588 831.397 1.05708 831.63C2.05205 832.095 3.53333 832.763 5.48938 833.583C9.40145 835.224 15.2127 837.47 22.8309 839.904C38.0674 844.772 60.532 850.391 89.4855 853.418C147.399 859.473 231.248 855.155 335.116 813.743L334.375 811.885C230.821 853.173 147.298 857.452 89.6935 851.429C60.8885 848.417 38.5582 842.829 23.4396 837.999C15.8803 835.584 10.1239 833.358 6.26274 831.739C4.33216 830.93 2.87541 830.272 1.90401 829.818C1.41831 829.591 1.05396 829.415 0.812391 829.296C0.691606 829.237 0.601518 829.192 0.542307 829.162C0.512702 829.147 0.490816 829.136 0.476672 829.129C0.4696 829.125 0.464463 829.122 0.461264 829.121C0.459665 829.12 0.458721 829.12 0.457921 829.119C0.457461 829.119 0.457487 829.119 0 830.008ZM-1 432.633V830.008H1V432.633H-1ZM-1 50.4329V432.633H1V50.4329H-1ZM541.021 84.2926C418.241 135.485 283.121 126.826 178.62 105.323C126.38 94.5733 81.8217 80.6204 50.3246 69.3553C34.5766 63.723 22.0954 58.7632 13.5537 55.2126C9.2829 53.4374 5.9971 52.0144 3.78039 51.036C2.67203 50.5468 1.83097 50.1687 1.2677 49.9132C0.986066 49.7855 0.773883 49.6884 0.632465 49.6234C0.561756 49.591 0.508738 49.5665 0.473576 49.5502C0.455994 49.5421 0.442877 49.536 0.434245 49.532C0.429928 49.53 0.426822 49.5286 0.424661 49.5276C0.422679 49.5267 0.42182 49.5263 0 50.4329C-0.42182 51.3396 -0.420426 51.3403 -0.417907 51.3414C-0.415567 51.3425 -0.411924 51.3442 -0.407249 51.3464C-0.397898 51.3507 -0.384061 51.3571 -0.365757 51.3656C-0.32915 51.3825 -0.274679 51.4077 -0.202507 51.4408C-0.0581625 51.5071 0.156984 51.6056 0.441618 51.7347C1.01089 51.9928 1.85811 52.3737 2.97277 52.8657C5.20209 53.8497 8.50122 55.2783 12.786 57.0594C21.3555 60.6216 33.8682 65.5937 49.651 71.2385C81.2154 82.5276 125.866 96.5093 178.216 107.282C282.895 128.821 418.478 137.553 541.791 86.1386L541.021 84.2926ZM786.099 66.2862C757.879 57.3964 729.085 48.321 691.091 48.2754C653.098 48.2298 605.976 57.21 541.021 84.2926L541.791 86.1386C606.575 59.1273 653.43 50.2302 691.089 50.2754C728.746 50.3206 757.279 59.3043 785.498 68.1938L786.099 66.2862ZM983.314 60.1386C934.377 78.9048 897.698 84.3992 866.977 83.2393C836.245 82.0791 811.413 74.2609 786.099 66.2862L785.498 68.1938C810.799 76.1644 835.868 84.0663 866.902 85.2379C897.946 86.4099 934.896 80.8479 984.03 62.0061L983.314 60.1386ZM1440 50.4329C1440.27 49.4692 1440.27 49.4689 1440.26 49.4683C1440.26 49.4677 1440.26 49.4669 1440.25 49.4658C1440.25 49.4636 1440.23 49.4604 1440.22 49.4561C1440.19 49.4477 1440.14 49.4351 1440.08 49.4185C1439.96 49.3853 1439.78 49.3361 1439.54 49.2718C1439.06 49.1432 1438.34 48.9538 1437.4 48.7105C1435.53 48.2238 1432.74 47.521 1429.13 46.6552C1421.91 44.9236 1411.36 42.5398 1398.06 39.9285C1371.46 34.7061 1333.82 28.5729 1289.7 24.9279C1201.48 17.6392 1087.22 20.2914 983.314 60.1386L984.03 62.0061C1087.54 22.3115 1201.45 19.644 1289.54 26.9211C1333.57 30.5589 1371.13 36.6799 1397.67 41.8911C1410.95 44.4965 1421.47 46.8743 1428.67 48.6001C1432.27 49.463 1435.04 50.1628 1436.9 50.6466C1437.84 50.8885 1438.55 51.0764 1439.02 51.2036C1439.26 51.2672 1439.44 51.3157 1439.56 51.3481C1439.62 51.3644 1439.66 51.3766 1439.69 51.3847C1439.7 51.3888 1439.72 51.3918 1439.72 51.3938C1439.73 51.3948 1439.73 51.3955 1439.73 51.396C1439.73 51.3965 1439.73 51.3967 1440 50.4329Z" fill="#4AFF85" mask="url(#path-1-outside-1_3729_92304)"/>
<g opacity="0.6">
<mask id="path-3-outside-2_3729_92304" maskUnits="userSpaceOnUse" x="-1" y="0.09375" width="1479" height="877" fill="black">
<rect fill="white" x="-1" y="0.09375" width="1479" height="877"/>
<path fill-rule="evenodd" clip-rule="evenodd" d="M1476.91 432.005H1476.91V849.75C1476.91 849.75 1226.18 773.715 921.624 811.733C783.501 828.975 695.473 816.797 620.665 806.448C530.525 793.979 459.581 784.165 343.325 831.675C130.587 918.614 0 849.75 0 849.75V432.005H0.00134277V30.2122C0.00134277 30.2122 302.882 174.645 555.283 66.7779C688.347 9.91107 748.054 29.1901 805.939 47.8809C857.852 64.6435 908.3 80.9329 1008.88 41.397C1221.62 -42.2223 1476.91 30.2122 1476.91 30.2122V432.005Z"/>
</mask>
<path fill-rule="evenodd" clip-rule="evenodd" d="M1476.91 432.005H1476.91V849.75C1476.91 849.75 1226.18 773.715 921.624 811.733C783.501 828.975 695.473 816.797 620.665 806.448C530.525 793.979 459.581 784.165 343.325 831.675C130.587 918.614 0 849.75 0 849.75V432.005H0.00134277V30.2122C0.00134277 30.2122 302.882 174.645 555.283 66.7779C688.347 9.91107 748.054 29.1901 805.939 47.8809C857.852 64.6435 908.3 80.9329 1008.88 41.397C1221.62 -42.2223 1476.91 30.2122 1476.91 30.2122V432.005Z" fill="url(#paint1_linear_3729_92304)"/>
<path d="M1476.91 432.005V431.005H1475.91V432.005H1476.91ZM1476.91 432.005V433.005H1477.91V432.005H1476.91ZM1476.91 849.75L1476.62 850.707L1477.91 851.099V849.75H1476.91ZM921.624 811.733L921.5 810.74L921.624 811.733ZM620.665 806.448L620.802 805.458L620.665 806.448ZM343.325 831.675L342.946 830.749L343.325 831.675ZM0 849.75H-1V850.353L-0.466456 850.635L0 849.75ZM0 432.005V431.005H-1V432.005H0ZM0.00134277 432.005V433.005H1.00134V432.005H0.00134277ZM0.00134277 30.2122L0.431772 29.3096L-0.998657 28.6275V30.2122H0.00134277ZM555.283 66.7779L555.676 67.6975L555.283 66.7779ZM805.939 47.8809L806.246 46.9292L805.939 47.8809ZM1008.88 41.397L1008.52 40.4663L1008.88 41.397ZM1476.91 30.2122H1477.91V29.4565L1477.18 29.2502L1476.91 30.2122ZM1476.91 433.005H1476.91V431.005H1476.91V433.005ZM1477.91 849.75V432.005H1475.91V849.75H1477.91ZM921.748 812.725C1073.91 793.73 1212.64 803.227 1313.33 817.475C1363.68 824.599 1404.51 832.909 1432.75 839.438C1446.87 842.702 1457.84 845.521 1465.28 847.523C1469 848.524 1471.83 849.321 1473.74 849.867C1474.69 850.14 1475.41 850.35 1475.89 850.492C1476.13 850.563 1476.32 850.617 1476.44 850.653C1476.5 850.671 1476.54 850.685 1476.57 850.694C1476.59 850.698 1476.6 850.702 1476.6 850.704C1476.61 850.705 1476.61 850.706 1476.61 850.707C1476.61 850.707 1476.62 850.707 1476.91 849.75C1477.2 848.793 1477.19 848.793 1477.19 848.792C1477.19 848.792 1477.19 848.791 1477.18 848.79C1477.18 848.787 1477.16 848.784 1477.15 848.779C1477.12 848.77 1477.07 848.756 1477.01 848.737C1476.89 848.701 1476.7 848.646 1476.46 848.574C1475.97 848.431 1475.25 848.219 1474.29 847.944C1472.38 847.395 1469.53 846.596 1465.8 845.592C1458.34 843.584 1447.34 840.76 1433.2 837.49C1404.91 830.95 1364.02 822.628 1313.61 815.495C1212.8 801.23 1073.89 791.718 921.5 810.74L921.748 812.725ZM620.528 807.439C695.364 817.792 783.495 829.983 921.748 812.725L921.5 810.74C783.508 827.966 695.581 815.803 620.802 805.458L620.528 807.439ZM343.703 832.601C459.708 785.193 530.435 794.976 620.528 807.439L620.802 805.458C530.615 792.982 459.453 783.136 342.946 830.749L343.703 832.601ZM0 849.75C-0.466456 850.635 -0.465442 850.635 -0.46393 850.636C-0.462762 850.637 -0.460751 850.638 -0.458415 850.639C-0.453742 850.642 -0.447078 850.645 -0.438425 850.65C-0.421119 850.659 -0.395858 850.672 -0.362667 850.689C-0.296283 850.723 -0.198174 850.773 -0.068524 850.838C0.190776 850.969 0.576242 851.16 1.0864 851.404C2.1067 851.893 3.62578 852.596 5.63181 853.458C9.64383 855.182 15.6038 857.544 23.417 860.102C39.0435 865.219 62.0836 871.127 91.7791 874.309C151.177 880.675 237.175 876.135 343.703 832.601L342.946 830.749C236.737 874.154 151.073 878.652 91.9922 872.32C62.4488 869.154 39.546 863.279 24.0394 858.201C16.2861 855.663 10.382 853.323 6.42151 851.621C4.4413 850.77 2.94705 850.078 1.95058 849.601C1.45235 849.362 1.07857 849.177 0.830725 849.052C0.706801 848.99 0.61436 848.942 0.553587 848.911C0.5232 848.895 0.50073 848.884 0.486201 848.876C0.478936 848.872 0.473657 848.87 0.470365 848.868C0.468719 848.867 0.467742 848.866 0.466919 848.866C0.466439 848.866 0.466456 848.866 0 849.75ZM-1 432.005V849.75H1V432.005H-1ZM0.00134277 431.005H0V433.005H0.00134277V431.005ZM-0.998657 30.2122V432.005H1.00134V30.2122H-0.998657ZM554.89 65.8584C428.961 119.676 290.378 110.573 183.198 87.9669C129.62 76.6664 83.9192 61.9982 51.6145 50.1556C35.4627 44.2345 22.6615 39.0203 13.9007 35.2877C9.52037 33.4214 6.15027 31.9255 3.87666 30.8968C2.73986 30.3825 1.8772 29.985 1.29945 29.7164C1.01058 29.5822 0.79294 29.4801 0.647876 29.4118C0.575345 29.3776 0.520958 29.3519 0.484884 29.3348C0.466847 29.3263 0.453389 29.3199 0.44453 29.3157C0.4401 29.3136 0.436911 29.312 0.434693 29.311C0.432656 29.31 0.431772 29.3096 0.00134277 30.2122C-0.429086 31.1148 -0.42766 31.1155 -0.425081 31.1167C-0.422682 31.1179 -0.418949 31.1197 -0.414157 31.1219C-0.404572 31.1265 -0.390385 31.1332 -0.371617 31.1421C-0.334082 31.1599 -0.278225 31.1863 -0.204213 31.2212C-0.0561904 31.2909 0.164449 31.3944 0.456358 31.5301C1.04017 31.8015 1.90907 32.2018 3.05226 32.719C5.33863 33.7534 8.72223 35.2553 13.1168 37.1276C21.9057 40.8723 34.739 46.0993 50.9261 52.0333C83.299 63.901 129.094 78.5994 182.786 89.9238C290.147 112.568 429.204 121.747 555.676 67.6975L554.89 65.8584ZM806.246 46.9292C777.303 37.5838 747.772 28.0433 708.804 27.9953C669.838 27.9473 621.509 37.388 554.89 65.8584L555.676 67.6975C622.122 39.301 670.178 29.9478 708.802 29.9953C747.425 30.0428 776.689 39.4872 805.631 48.8325L806.246 46.9292ZM1008.52 40.4663C958.326 60.1949 920.707 65.9709 889.198 64.7516C857.679 63.5319 832.209 55.3128 806.246 46.9292L805.631 48.8325C831.581 57.2115 857.292 65.5184 889.121 66.7501C920.961 67.9822 958.857 62.135 1009.25 42.3277L1008.52 40.4663ZM1476.91 30.2122C1477.18 29.2502 1477.18 29.2498 1477.18 29.2492C1477.17 29.2486 1477.17 29.2478 1477.17 29.2466C1477.16 29.2443 1477.15 29.2409 1477.13 29.2365C1477.1 29.2276 1477.05 29.2143 1476.99 29.1969C1476.87 29.162 1476.68 29.1103 1476.43 29.0427C1475.94 28.9075 1475.21 28.7084 1474.24 28.4526C1472.32 27.941 1469.47 27.2022 1465.76 26.292C1458.35 24.4716 1447.54 21.9656 1433.89 19.2205C1406.61 13.7304 1368.01 7.28288 1322.76 3.45094C1232.27 -4.21142 1115.09 -1.42307 1008.52 40.4663L1009.25 42.3277C1115.42 0.597799 1232.25 -2.20625 1322.59 5.44381C1367.75 9.26809 1406.27 15.7029 1433.5 21.1812C1447.11 23.9203 1457.9 26.42 1465.28 28.2342C1468.98 29.1413 1471.82 29.8771 1473.73 30.3857C1474.69 30.64 1475.42 30.8375 1475.9 30.9712C1476.15 31.0381 1476.33 31.0891 1476.45 31.1232C1476.51 31.1402 1476.56 31.1531 1476.59 31.1616C1476.6 31.1659 1476.62 31.1691 1476.62 31.1712C1476.63 31.1723 1476.63 31.173 1476.63 31.1735C1476.63 31.174 1476.63 31.1742 1476.91 30.2122ZM1477.91 432.005V30.2122H1475.91V432.005H1477.91Z" fill="#4AFF85" mask="url(#path-3-outside-2_3729_92304)"/>
</g>
<defs>
<linearGradient id="paint0_linear_3729_92304" x1="720" y1="209.862" x2="720.034" y2="816.754" gradientUnits="userSpaceOnUse">
<stop stop-color="#C7FFD8" stop-opacity="0.74"/>
<stop offset="0.0001" stop-color="#B4FFCA" stop-opacity="0.74"/>
<stop offset="0.401042" stop-color="#D7FFF4"/>
<stop offset="0.677083" stop-color="#DBFFE0"/>
<stop offset="1" stop-color="#9AFFA4"/>
</linearGradient>
<linearGradient id="paint1_linear_3729_92304" x1="738.453" y1="197.814" x2="740.444" y2="854.354" gradientUnits="userSpaceOnUse">
<stop stop-color="#B4FFCA" stop-opacity="0.74"/>
<stop offset="0.0001" stop-color="#B4FFCA" stop-opacity="0.74"/>
<stop offset="0.401042" stop-color="#C8FFF0"/>
<stop offset="0.677083" stop-color="#E7FFEA"/>
<stop offset="1" stop-color="#DFFFDA"/>
</linearGradient>
</defs>
</svg>
