<svg width="507" height="391" viewBox="0 0 507 391" fill="none" xmlns="http://www.w3.org/2000/svg">
<path fill-rule="evenodd" clip-rule="evenodd" d="M253.393 4.29146L255.582 4.55693L257.764 4.82158L259.939 5.0858L262.11 5.35006L264.276 5.61492L266.438 5.88091L268.598 6.14882L270.755 6.41924L272.911 6.69289L275.065 6.97029L277.22 7.2517L279.375 7.53682L281.532 7.82476L283.691 8.11434L285.854 8.40392L288.021 8.69161L290.196 8.97542L292.378 9.25304L294.571 9.5222L296.777 9.7806L298.997 10.026L301.234 10.2562L303.491 10.4693L305.771 10.6636L308.075 10.8377L310.406 10.9907L312.768 11.122L315.163 11.2314L317.593 11.3195L320.059 11.3871L322.565 11.4354L325.113 11.4659L327.703 11.4804L330.337 11.4806L333.018 11.4691L335.746 11.4481L338.522 11.4205L341.347 11.3891L344.221 11.3572L347.145 11.328L350.118 11.305L353.141 11.2919L356.213 11.2925L359.333 11.3106L362.499 11.3503L365.71 11.4157L368.966 11.5107L372.262 11.6395L375.598 11.8062L378.971 12.015L382.378 12.2698L385.815 12.5746L389.279 12.9334L392.767 13.3499L396.275 13.8277L399.799 14.3703L403.334 14.9811L406.876 15.6631L410.421 16.4193L413.965 17.2523L417.501 18.1646L421.026 19.1585L424.534 20.2358L428.021 21.3982L431.481 22.6473L434.91 23.9841L438.302 25.4095L441.653 26.9242L444.958 28.5283L448.212 30.222L451.41 32.005L454.549 33.8767L457.624 35.8363L460.63 37.8828L463.564 40.0147L466.423 42.2306L469.202 44.5286L471.9 46.9067L474.512 49.3627L477.036 51.8943L479.47 54.4987L481.813 57.1733L484.061 59.9153L486.214 62.7216L488.271 65.5894L490.229 68.5155L492.088 71.4973L493.846 74.5317L495.502 77.6157L497.053 80.7466L498.499 83.9212L499.838 87.1368L501.067 90.3904L502.186 93.6788L503.193 96.9991L504.087 100.348L504.865 103.723L505.525 107.12L506.066 110.537L506.487 113.97L506.784 117.416L506.956 120.871L507 124.332L506.914 127.795L506.697 131.257L506.346 134.714L505.861 138.161L505.241 141.596L504.487 145.013L503.599 148.409L502.579 151.78L501.429 155.121L500.151 158.43L498.75 161.701L497.229 164.933L495.593 168.121L493.847 171.262L491.998 174.354L490.051 177.394L488.015 180.38L485.896 183.311L483.702 186.186L481.443 189.003L479.127 191.763L476.764 194.466L474.362 197.113L471.931 199.705L469.481 202.243L467.022 204.731L464.564 207.17L462.115 209.565L459.686 211.92L457.286 214.237L454.924 216.524L452.607 218.783L450.344 221.022L448.143 223.245L446.009 225.459L443.95 227.67L441.97 229.884L440.074 232.109L438.267 234.35L436.55 236.614L434.926 238.907L433.396 241.236L431.96 243.607L430.618 246.025L429.368 248.495L428.207 251.023L427.131 253.613L426.137 256.268L425.219 258.991L424.371 261.786L423.586 264.653L422.857 267.594L422.174 270.609L421.531 273.698L420.916 276.857L420.322 280.086L419.736 283.381L419.151 286.738L418.555 290.153L417.938 293.619L417.289 297.131L416.6 300.682L415.86 304.264L415.059 307.868L414.188 311.485L413.238 315.108L412.202 318.725L411.073 322.326L409.842 325.903L408.505 329.444L407.056 332.94L405.492 336.381L403.81 339.757L402.007 343.06L400.083 346.282L398.038 349.415L395.872 352.451L393.585 355.382L391.18 358.203L388.659 360.906L386.024 363.485L383.28 365.936L380.429 368.253L377.477 370.434L374.428 372.474L371.288 374.371L368.063 376.123L364.758 377.73L361.381 379.192L357.937 380.508L354.433 381.683L350.877 382.716L347.275 383.613L343.634 384.376L339.96 385.011L336.261 385.524L332.543 385.92L328.811 386.208L325.072 386.393L321.331 386.484L317.593 386.491L313.863 386.421L310.144 386.283L306.44 386.088L302.755 385.845L299.09 385.563L295.448 385.251L291.829 384.921L288.234 384.58L284.664 384.237L281.118 383.902L277.594 383.582L274.092 383.286L270.61 383.018L267.145 382.787L263.694 382.598L260.254 382.455L256.821 382.362L253.393 382.323L249.966 382.339L246.534 382.411L243.096 382.539L239.646 382.723L236.181 382.961L232.698 383.249L229.192 383.585L225.662 383.962L222.104 384.377L218.516 384.822L214.897 385.291L211.245 385.777L207.558 386.275L203.835 386.777L200.077 387.278L196.283 387.771L192.452 388.25L188.587 388.71L184.686 389.143L180.752 389.545L176.785 389.908L172.788 390.229L168.761 390.5L164.708 390.718L160.631 390.876L156.532 390.972L152.413 391L148.277 390.958L144.127 390.842L139.964 390.651L135.793 390.382L131.615 390.032L127.433 389.598L123.252 389.079L119.074 388.47L114.904 387.77L110.746 386.976L106.604 386.085L102.482 385.095L98.3847 384.003L94.3176 382.808L90.2853 381.506L86.2929 380.097L82.3455 378.579L78.4484 376.951L74.6066 375.212L70.8255 373.361L67.1101 371.398L63.4655 369.323L59.8966 367.137L56.4082 364.84L53.0049 362.434L49.691 359.921L46.4707 357.301L43.3478 354.579L40.3258 351.756L37.408 348.835L34.5972 345.82L31.896 342.714L29.3063 339.521L26.8301 336.246L24.4686 332.892L22.2228 329.465L20.0933 325.968L18.0803 322.407L16.1835 318.786L14.4024 315.111L12.7361 311.386L11.1833 307.616L9.74272 303.807L8.41238 299.962L7.19031 296.086L6.07428 292.185L5.06189 288.262L4.15057 284.323L3.33767 280.369L2.62045 276.407L1.99614 272.439L1.46194 268.469L1.01509 264.5L0.652879 260.534L0.372668 256.576L0.171916 252.626L0.0482644 248.689L-6.39214e-06 244.765L0.0262772 240.856L0.127125 236.963L0.303297 233.088L0.556211 229.23L0.887842 225.392L1.30061 221.573L1.79728 217.774L2.38082 213.997L3.05431 210.242L3.82076 206.511L4.68304 202.805L5.64372 199.125L6.70492 195.475L7.86819 191.856L9.13438 188.27L10.5035 184.72L11.9745 181.209L13.5455 177.739L15.2134 174.313L16.975 170.935L18.8269 167.606L20.7652 164.328L22.786 161.105L24.8848 157.938L27.0573 154.829L29.2985 151.78L31.6036 148.792L33.9673 145.866L36.3844 143.004L38.8493 140.207L41.3565 137.474L43.9002 134.806L46.4748 132.204L49.0744 129.666L51.6932 127.193L54.3254 124.783L56.9653 122.435L59.6073 120.149L62.2458 117.922L64.8753 115.754L67.4905 113.64L70.0865 111.581L72.6582 109.572L75.2011 107.612L77.7108 105.698L80.1831 103.826L82.6142 101.993L85.0006 100.197L87.3392 98.4331L89.6271 96.6988L91.8618 94.9903L94.0411 93.304L96.1633 91.6365L98.2269 89.984L100.231 88.3431L102.175 86.7102L104.057 85.0819L105.88 83.4548L107.642 81.8257L109.344 80.1913L110.988 78.5488L112.575 76.8952L114.107 75.228L115.585 73.5447L117.012 71.843L118.391 70.1208L119.724 68.3765L121.015 66.6085L122.267 64.8155L123.483 62.9964L124.667 61.1506L125.823 59.2775L126.954 57.3769L128.066 55.4494L129.163 53.496L130.251 51.5184L131.336 49.5192L132.423 47.5013L133.518 45.4684L134.629 43.4246L135.76 41.3747L136.919 39.3234L138.109 37.2762L139.337 35.2387L140.608 33.2167L141.926 31.2161L143.295 29.2428L144.718 27.3028L146.198 25.4019L147.737 23.5456L149.337 21.7395L150.999 19.9884L152.723 18.2971L154.509 16.6696L156.356 15.1101L158.264 13.6219L160.229 12.2079L162.251 10.8709L164.327 9.61276L166.454 8.43502L168.629 7.3388L170.849 6.32461L173.11 5.39248L175.409 4.54205L177.742 3.77236L180.104 3.08215L182.493 2.4696L184.904 1.93267L187.333 1.46874L189.777 1.07516L192.233 0.74871L194.696 0.486045L197.164 0.283683L199.633 0.137748L202.1 0.0445163L204.564 2.15758e-05L207.022 0.000265609L209.471 0.0412506L211.91 0.119101L214.337 0.22988L216.752 0.369864L219.152 0.535482L221.537 0.723226L223.907 0.929861L226.262 1.15236L228.6 1.38793L230.923 1.63396L233.23 1.8882L235.522 2.14852L237.799 2.4132L240.062 2.68065L242.312 2.9497L244.55 3.21926L246.776 3.48864L248.991 3.75728L251.197 4.02492L253.393 4.29146Z" fill="url(#paint0_linear_3699_92969)"/>
<defs>
<linearGradient id="paint0_linear_3699_92969" x1="-1970.44" y1="-1166.62" x2="-1688.01" y2="-1523.9" gradientUnits="userSpaceOnUse">
<stop stop-color="#89FFD1"/>
<stop offset="1" stop-color="#BFFF9E"/>
</linearGradient>
</defs>
</svg>
