<svg width="1440" height="3337" viewBox="0 0 1440 3337" fill="none" xmlns="http://www.w3.org/2000/svg">
<g opacity="0.4">
<mask id="path-1-outside-1_3968_101714" maskUnits="userSpaceOnUse" x="-24.293" y="0" width="1487" height="3337" fill="black">
<rect fill="white" x="-24.293" width="1487" height="3337"/>
<path fill-rule="evenodd" clip-rule="evenodd" d="M1461.29 58.1574V1664.2L1461.29 3334C1461.29 3334 1199.23 3061.06 893.96 3163.21C588.686 3265.36 369.503 3278.33 173.62 3163.21L-22.2629 3048.09L-23.293 1664.2V58.1574C-23.293 58.1574 37.0184 278.576 452.496 79.6749C677.564 -28.0711 744.575 46.206 797.83 105.236C842.884 155.176 878.093 194.204 990.836 102.865C1236.84 -96.4363 1461.29 58.1574 1461.29 58.1574Z"/>
</mask>
<path fill-rule="evenodd" clip-rule="evenodd" d="M1461.29 58.1574V1664.2L1461.29 3334C1461.29 3334 1199.23 3061.06 893.96 3163.21C588.686 3265.36 369.503 3278.33 173.62 3163.21L-22.2629 3048.09L-23.293 1664.2V58.1574C-23.293 58.1574 37.0184 278.576 452.496 79.6749C677.564 -28.0711 744.575 46.206 797.83 105.236C842.884 155.176 878.093 194.204 990.836 102.865C1236.84 -96.4363 1461.29 58.1574 1461.29 58.1574Z" fill="url(#paint0_linear_3968_101714)"/>
<path d="M1461.29 1664.2H1462.29H1461.29ZM1461.29 58.1574H1462.29V57.6319L1461.86 57.3339L1461.29 58.1574ZM1461.29 3334L1460.57 3334.69L1462.29 3336.49V3334H1461.29ZM893.96 3163.21L893.643 3162.26L893.96 3163.21ZM173.62 3163.21L174.127 3162.35L173.62 3163.21ZM-22.2629 3048.09L-23.2629 3048.09L-23.2625 3048.67L-22.7696 3048.96L-22.2629 3048.09ZM-23.293 1664.2H-24.293L-24.293 1664.2L-23.293 1664.2ZM-23.293 58.1574L-22.3284 57.8935L-24.293 58.1574H-23.293ZM452.496 79.6749L452.065 78.7729L452.496 79.6749ZM797.83 105.236L797.087 105.906L797.83 105.236ZM990.836 102.865L991.465 103.642L990.836 102.865ZM1462.29 1664.2V58.1574H1460.29V1664.2H1462.29ZM1462.29 3334L1462.29 1664.2H1460.29L1460.29 3334H1462.29ZM894.277 3164.16C1046.55 3113.21 1188.09 3155.79 1291.63 3211.18C1343.4 3238.88 1385.64 3269.76 1414.94 3293.72C1429.59 3305.7 1441.01 3315.95 1448.75 3323.2C1452.63 3326.83 1455.58 3329.7 1457.57 3331.67C1458.57 3332.65 1459.32 3333.41 1459.82 3333.92C1460.07 3334.18 1460.26 3334.37 1460.38 3334.5C1460.45 3334.56 1460.49 3334.61 1460.53 3334.65C1460.54 3334.66 1460.55 3334.67 1460.56 3334.68C1460.56 3334.69 1460.57 3334.69 1460.57 3334.69C1460.57 3334.69 1460.57 3334.69 1461.29 3334C1462.01 3333.31 1462.01 3333.31 1462.01 3333.3C1462.01 3333.3 1462.01 3333.3 1462 3333.29C1461.99 3333.29 1461.98 3333.27 1461.96 3333.26C1461.93 3333.22 1461.88 3333.17 1461.82 3333.11C1461.69 3332.97 1461.5 3332.78 1461.24 3332.52C1460.74 3332 1459.98 3331.24 1458.98 3330.25C1456.98 3328.27 1454.01 3325.38 1450.12 3321.74C1442.34 3314.46 1430.9 3304.19 1416.21 3292.18C1386.83 3268.15 1344.48 3237.19 1292.58 3209.42C1188.77 3153.88 1046.64 3111.07 893.643 3162.26L894.277 3164.16ZM173.113 3164.07C369.375 3279.42 588.914 3266.34 894.277 3164.16L893.643 3162.26C588.458 3264.39 369.631 3277.25 174.127 3162.35L173.113 3164.07ZM-22.7696 3048.96L173.113 3164.07L174.127 3162.35L-21.7563 3047.23L-22.7696 3048.96ZM-24.293 1664.2L-23.2629 3048.09L-21.2629 3048.09L-22.293 1664.2L-24.293 1664.2ZM-24.293 58.1574V1664.2H-22.293V58.1574H-24.293ZM452.065 78.7729C244.441 178.168 125.831 172.658 59.2088 142.592C25.8933 127.558 5.50452 106.352 -6.5551 88.921C-12.5863 80.2033 -16.5349 72.4282 -18.9735 66.8401C-20.1927 64.0462 -21.0341 61.7998 -21.5694 60.2565C-21.8371 59.4849 -22.0282 58.8892 -22.1517 58.4889C-22.2135 58.2887 -22.2583 58.1373 -22.2874 58.0373C-22.302 57.9873 -22.3125 57.9501 -22.3193 57.926C-22.3227 57.914 -22.3252 57.9052 -22.3267 57.8998C-22.3274 57.8971 -22.3279 57.8955 -22.3282 57.8941C-22.3285 57.8934 -22.3284 57.8935 -23.293 58.1574C-24.2575 58.4213 -24.257 58.4231 -24.2563 58.4257C-24.2558 58.4277 -24.2548 58.4312 -24.2537 58.4351C-24.2515 58.4431 -24.2483 58.4544 -24.2442 58.4689C-24.236 58.4981 -24.224 58.5404 -24.2079 58.5955C-24.1759 58.7059 -24.1279 58.8677 -24.0628 59.0785C-23.9328 59.5001 -23.7345 60.1178 -23.459 60.912C-22.908 62.5004 -22.0479 64.7953 -20.8065 67.64C-18.3239 73.3291 -14.3147 81.2202 -8.19985 90.0589C4.0326 107.74 24.6891 129.208 58.3861 144.415C125.789 174.834 245.074 180.083 452.928 80.5769L452.065 78.7729ZM798.572 104.566C771.955 75.0625 741.704 41.5031 689.828 28.9426C637.963 16.3848 564.691 24.8555 452.065 78.7729L452.928 80.5769C565.369 26.7484 638.137 18.4846 689.357 30.8864C740.567 43.2854 770.449 76.3795 797.087 105.906L798.572 104.566ZM990.206 102.088C933.873 147.726 897.185 160.553 869.108 156.043C840.995 151.527 821.165 129.609 798.572 104.566L797.087 105.906C819.549 130.803 839.851 153.369 868.791 158.017C897.768 162.672 935.056 149.342 991.465 103.642L990.206 102.088ZM1461.29 58.1574C1461.86 57.3339 1461.86 57.333 1461.86 57.3315C1461.85 57.3302 1461.85 57.3281 1461.85 57.3256C1461.84 57.3205 1461.83 57.3131 1461.82 57.3033C1461.79 57.2839 1461.75 57.2552 1461.69 57.2176C1461.58 57.1424 1461.41 57.0314 1461.19 56.8865C1460.76 56.5967 1460.11 56.1714 1459.25 55.6261C1457.53 54.5356 1454.99 52.9651 1451.67 51.0389C1445.03 47.1867 1435.27 41.9112 1422.79 36.2068C1397.84 24.7988 1362.01 11.6705 1318.47 4.78551C1231.36 -8.98902 1113.46 2.23808 990.206 102.088L991.465 103.642C1114.22 4.19078 1231.54 -6.936 1318.16 6.76096C1361.48 13.6117 1397.14 26.6756 1421.96 38.0257C1434.37 43.7004 1444.07 48.9454 1450.67 52.769C1453.96 54.6808 1456.48 56.237 1458.18 57.3137C1459.02 57.8521 1459.66 58.2705 1460.09 58.5536C1460.3 58.6951 1460.46 58.8028 1460.57 58.8747C1460.62 58.9106 1460.66 58.9376 1460.69 58.9554C1460.7 58.9643 1460.71 58.9709 1460.72 58.9752C1460.72 58.9773 1460.72 58.9788 1460.72 58.9798C1460.73 58.9807 1460.73 58.981 1461.29 58.1574Z" fill="#4AFF85" mask="url(#path-1-outside-1_3968_101714)"/>
</g>
<g opacity="0.6">
<mask id="path-3-outside-2_3968_101714" maskUnits="userSpaceOnUse" x="-13" y="28.9297" width="1463" height="3285" fill="black">
<rect fill="white" x="-13" y="28.9297" width="1463" height="3285"/>
<path fill-rule="evenodd" clip-rule="evenodd" d="M-11.9993 1667.24H-12V86.1974C-12 86.1974 47.3531 303.185 456.23 107.38C677.722 1.31109 743.668 74.4321 796.077 132.543C840.415 181.706 875.065 220.126 986.017 130.209C1228.11 -65.9901 1449 86.1974 1449 86.1974V1667.24L1449 3311.05C1449 3311.05 1191.1 3042.36 890.681 3142.93C590.257 3243.49 374.556 3256.25 181.785 3142.93L-10.9855 3029.6L-11.9993 1667.24Z"/>
</mask>
<path fill-rule="evenodd" clip-rule="evenodd" d="M-11.9993 1667.24H-12V86.1974C-12 86.1974 47.3531 303.185 456.23 107.38C677.722 1.31109 743.668 74.4321 796.077 132.543C840.415 181.706 875.065 220.126 986.017 130.209C1228.11 -65.9901 1449 86.1974 1449 86.1974V1667.24L1449 3311.05C1449 3311.05 1191.1 3042.36 890.681 3142.93C590.257 3243.49 374.556 3256.25 181.785 3142.93L-10.9855 3029.6L-11.9993 1667.24Z" fill="url(#paint1_linear_3968_101714)"/>
<path d="M-12 1667.24H-13V1668.24H-12V1667.24ZM-11.9993 1667.24L-10.9993 1667.24L-11 1666.24H-11.9993V1667.24ZM-12 86.1974L-11.0354 85.9336L-13 86.1974H-12ZM456.23 107.38L456.662 108.282L456.23 107.38ZM796.077 132.543L796.819 131.874L796.077 132.543ZM986.017 130.209L985.387 129.432L986.017 130.209ZM1449 86.1974H1450V85.6721L1449.57 85.374L1449 86.1974ZM1449 1667.24H1448H1449ZM1449 3311.05L1448.28 3311.75L1450 3313.54V3311.05H1449ZM890.681 3142.93L890.998 3143.87L890.681 3142.93ZM-10.9855 3029.6L-11.9855 3029.6L-11.985 3030.17L-11.4923 3030.46L-10.9855 3029.6ZM-12 1668.24H-11.9993V1666.24H-12V1668.24ZM-13 86.1974V1667.24H-11V86.1974H-13ZM455.798 106.478C251.475 204.325 134.755 198.899 69.1977 169.304C36.4145 154.505 16.3518 133.632 4.48509 116.473C-1.44961 107.892 -5.33499 100.239 -7.7345 94.7388C-8.93417 91.9889 -9.7621 89.7778 -10.2888 88.2589C-10.5522 87.4995 -10.7402 86.9132 -10.8617 86.5192C-10.9224 86.3222 -10.9665 86.1733 -10.9951 86.0749C-11.0094 86.0257 -11.0198 85.9892 -11.0265 85.9655C-11.0299 85.9537 -11.0323 85.9451 -11.0337 85.9397C-11.0345 85.9371 -11.0349 85.9355 -11.0353 85.9342C-11.0355 85.9335 -11.0354 85.9336 -12 86.1974C-12.9646 86.4613 -12.9641 86.463 -12.9634 86.4656C-12.9628 86.4676 -12.9619 86.471 -12.9608 86.4749C-12.9586 86.4828 -12.9555 86.4939 -12.9515 86.5082C-12.9434 86.537 -12.9315 86.5786 -12.9157 86.633C-12.8841 86.7417 -12.8369 86.901 -12.7728 87.1086C-12.6448 87.5238 -12.4496 88.1321 -12.1784 88.9141C-11.6361 90.4782 -10.7895 92.7377 -9.56766 95.5385C-7.12412 101.14 -3.17819 108.909 2.84017 117.611C14.8796 135.019 35.21 156.155 68.3747 171.127C134.713 201.075 252.108 206.24 456.662 108.282L455.798 106.478ZM796.819 131.874C770.625 102.829 740.852 69.7885 689.795 57.4222C638.749 45.0586 566.637 53.3992 455.798 106.478L456.662 108.282C567.315 55.292 638.922 47.1586 689.324 59.366C739.715 71.5708 769.119 104.146 795.334 133.213L796.819 131.874ZM985.387 129.432C929.95 174.36 893.849 186.982 866.226 182.544C838.566 178.1 819.055 156.528 796.819 131.874L795.334 133.213C817.438 157.722 837.421 179.941 865.908 184.519C894.432 189.102 931.132 175.976 986.646 130.986L985.387 129.432ZM1449 86.1974C1449.57 85.374 1449.57 85.3731 1449.56 85.3716C1449.56 85.3704 1449.56 85.3683 1449.55 85.3658C1449.55 85.3608 1449.54 85.3534 1449.52 85.3439C1449.49 85.3247 1449.45 85.2965 1449.4 85.2594C1449.29 85.1854 1449.13 85.076 1448.91 84.9334C1448.48 84.648 1447.84 84.2293 1447 83.6925C1445.31 82.6188 1442.81 81.0726 1439.54 79.1763C1433 75.3839 1423.4 70.1902 1411.12 64.5744C1386.56 53.3434 1351.3 40.419 1308.45 33.6409C1222.72 20.0801 1106.68 31.1333 985.387 129.432L986.646 130.986C1107.45 33.086 1222.9 22.1332 1308.14 35.6163C1350.77 42.3602 1385.86 55.2202 1410.29 66.3931C1422.5 71.9793 1432.05 77.1425 1438.53 80.9063C1441.78 82.7882 1444.26 84.3201 1445.92 85.3799C1446.76 85.9099 1447.39 86.3217 1447.81 86.6003C1448.02 86.7396 1448.17 86.8456 1448.28 86.9163C1448.33 86.9517 1448.37 86.9782 1448.4 86.9958C1448.41 87.0045 1448.42 87.011 1448.42 87.0152C1448.43 87.0173 1448.43 87.0187 1448.43 87.0198C1448.43 87.0206 1448.43 87.0209 1449 86.1974ZM1450 1667.24V86.1974H1448V1667.24H1450ZM1450 3311.05L1450 1667.24H1448L1448 3311.05H1450ZM890.998 3143.87C1040.85 3093.71 1180.13 3135.63 1282.03 3190.16C1332.97 3217.42 1374.54 3247.83 1403.38 3271.42C1417.79 3283.21 1429.02 3293.3 1436.65 3300.44C1440.46 3304 1443.37 3306.83 1445.33 3308.77C1446.3 3309.74 1447.04 3310.49 1447.54 3310.99C1447.79 3311.24 1447.97 3311.43 1448.09 3311.56C1448.16 3311.62 1448.2 3311.67 1448.23 3311.7C1448.25 3311.72 1448.26 3311.73 1448.27 3311.74C1448.27 3311.74 1448.27 3311.74 1448.28 3311.74C1448.28 3311.75 1448.28 3311.75 1449 3311.05C1449.72 3310.36 1449.72 3310.36 1449.72 3310.36C1449.72 3310.36 1449.71 3310.35 1449.71 3310.35C1449.7 3310.34 1449.69 3310.33 1449.67 3310.31C1449.64 3310.28 1449.59 3310.23 1449.53 3310.16C1449.4 3310.03 1449.21 3309.84 1448.96 3309.58C1448.46 3309.08 1447.72 3308.33 1446.73 3307.35C1444.77 3305.4 1441.84 3302.56 1438.02 3298.97C1430.36 3291.81 1419.1 3281.69 1404.64 3269.87C1375.73 3246.22 1334.06 3215.74 1282.97 3188.4C1180.81 3133.73 1040.94 3091.57 890.363 3141.98L890.998 3143.87ZM181.279 3143.79C374.428 3257.34 590.485 3244.46 890.998 3143.87L890.363 3141.98C590.029 3242.51 374.684 3255.17 182.292 3142.06L181.279 3143.79ZM-11.4923 3030.46L181.279 3143.79L182.292 3142.06L-10.4787 3028.74L-11.4923 3030.46ZM-12.9993 1667.24L-11.9855 3029.6L-9.98547 3029.6L-10.9993 1667.24L-12.9993 1667.24Z" fill="#4AFF85" mask="url(#path-3-outside-2_3968_101714)"/>
</g>
<mask id="path-5-outside-3_3968_101714" maskUnits="userSpaceOnUse" x="-2" y="58.8633" width="1442" height="3237" fill="black">
<rect fill="white" x="-2" y="58.8633" width="1442" height="3237"/>
<path fill-rule="evenodd" clip-rule="evenodd" d="M-0.999268 1673.11H-1V115.304C-1 115.304 57.5 329.102 460.5 136.175C678.808 31.6653 743.806 103.712 795.462 160.969C839.163 209.409 873.315 247.264 982.671 158.669C1221.29 -34.6467 1439 115.304 1439 115.304V1673.11L1439 3292.76C1439 3292.76 1184.81 3028.02 888.706 3127.1C592.6 3226.19 380 3238.77 190 3127.1L0 3015.44L-0.999268 1673.11Z"/>
</mask>
<path fill-rule="evenodd" clip-rule="evenodd" d="M-0.999268 1673.11H-1V115.304C-1 115.304 57.5 329.102 460.5 136.175C678.808 31.6653 743.806 103.712 795.462 160.969C839.163 209.409 873.315 247.264 982.671 158.669C1221.29 -34.6467 1439 115.304 1439 115.304V1673.11L1439 3292.76C1439 3292.76 1184.81 3028.02 888.706 3127.1C592.6 3226.19 380 3238.77 190 3127.1L0 3015.44L-0.999268 1673.11Z" fill="url(#paint2_linear_3968_101714)"/>
<path d="M-1 1673.11H-2V1674.11H-1V1673.11ZM-0.999268 1673.11L0.000732183 1673.11L-1.17421e-05 1672.11H-0.999268V1673.11ZM-1 115.304L-0.0354556 115.04L-2 115.304H-1ZM460.5 136.175L460.068 135.273V135.273L460.5 136.175ZM795.462 160.969L796.204 160.299L795.462 160.969ZM982.671 158.669L983.301 159.446L982.671 158.669ZM1439 115.304H1440V114.779L1439.57 114.481L1439 115.304ZM1439 1673.11H1438H1439ZM1439 3292.76L1438.28 3293.45L1440 3295.25V3292.76H1439ZM888.706 3127.1L889.023 3128.05L888.706 3127.1ZM190 3127.1L189.493 3127.97L190 3127.1ZM0 3015.44L-1 3015.44L-0.999574 3016.02L-0.506673 3016.3L0 3015.44ZM-1 1674.11H-0.999268V1672.11H-1V1674.11ZM-2 115.304V1673.11H0V115.304H-2ZM460.068 135.273C258.684 231.682 143.646 226.333 79.0363 197.176C46.7271 182.595 26.9547 162.031 15.2599 145.127C9.41109 136.673 5.582 129.133 3.21731 123.714C2.03506 121.005 1.21917 118.827 0.700143 117.33C0.44064 116.582 0.255382 116.005 0.135672 115.617C0.075819 115.423 0.0323559 115.276 0.00419605 115.179C-0.0098837 115.131 -0.0201374 115.095 -0.0267008 115.071C-0.0299825 115.06 -0.0323416 115.051 -0.0337951 115.046C-0.0345223 115.044 -0.0349361 115.042 -0.0352982 115.041C-0.0354891 115.04 -0.0354556 115.04 -1 115.304C-1.96454 115.568 -1.96406 115.57 -1.96336 115.572C-1.96282 115.574 -1.96189 115.578 -1.96081 115.582C-1.95866 115.589 -1.9556 115.6 -1.9516 115.614C-1.94361 115.643 -1.9319 115.684 -1.91632 115.737C-1.88517 115.845 -1.83858 116.002 -1.77544 116.206C-1.64918 116.616 -1.45675 117.215 -1.1894 117.986C-0.654715 119.527 0.179788 121.754 1.38425 124.514C3.793 130.034 7.68266 137.69 13.6151 146.265C25.4828 163.419 45.5229 184.246 78.2137 198.999C143.604 228.509 259.316 233.596 460.932 137.077L460.068 135.273ZM796.204 160.299C770.387 131.682 741.039 99.1231 690.711 86.9375C640.394 74.7545 569.315 82.9739 460.068 135.273L460.932 137.077C569.993 84.8668 640.567 76.8543 690.24 88.8813C739.902 100.906 768.881 132.999 794.719 161.639L796.204 160.299ZM982.042 157.892C927.402 202.159 891.825 214.592 864.604 210.22C837.348 205.842 818.121 184.592 796.204 160.299L794.719 161.639C816.504 185.786 836.203 207.684 864.287 212.195C892.407 216.711 928.584 203.775 983.301 159.446L982.042 157.892ZM1439 115.304C1439.57 114.481 1439.57 114.48 1439.56 114.478C1439.56 114.477 1439.56 114.475 1439.55 114.472C1439.55 114.468 1439.54 114.46 1439.52 114.451C1439.5 114.432 1439.45 114.404 1439.4 114.368C1439.29 114.295 1439.13 114.187 1438.92 114.046C1438.5 113.765 1437.86 113.352 1437.03 112.823C1435.37 111.765 1432.9 110.242 1429.68 108.373C1423.24 104.636 1413.77 99.5189 1401.67 93.9854C1377.47 82.9191 1342.71 70.1842 1300.47 63.5054C1215.97 50.1434 1101.6 61.0348 982.042 157.892L983.301 159.446C1102.36 62.9875 1216.15 52.1965 1300.16 65.4809C1342.18 72.1254 1376.76 84.7959 1400.84 95.8043C1412.87 101.308 1422.28 106.395 1428.68 110.104C1431.87 111.958 1434.32 113.467 1435.96 114.511C1436.78 115.033 1437.4 115.439 1437.82 115.713C1438.02 115.851 1438.18 115.955 1438.28 116.025C1438.33 116.06 1438.37 116.086 1438.4 116.103C1438.41 116.112 1438.42 116.118 1438.42 116.122C1438.43 116.124 1438.43 116.126 1438.43 116.127C1438.43 116.127 1438.43 116.128 1439 115.304ZM1440 1673.11V115.304H1438V1673.11H1440ZM1440 3292.76L1440 1673.11H1438L1438 3292.76H1440ZM889.023 3128.05C1036.71 3078.63 1173.99 3119.93 1274.42 3173.66C1324.63 3200.52 1365.6 3230.48 1394.02 3253.72C1408.23 3265.34 1419.3 3275.28 1426.82 3282.31C1430.57 3285.83 1433.44 3288.62 1435.37 3290.52C1436.33 3291.48 1437.06 3292.21 1437.55 3292.71C1437.79 3292.95 1437.98 3293.14 1438.1 3293.27C1438.16 3293.33 1438.2 3293.38 1438.23 3293.41C1438.25 3293.42 1438.26 3293.44 1438.27 3293.44C1438.27 3293.45 1438.27 3293.45 1438.28 3293.45C1438.28 3293.45 1438.28 3293.45 1439 3292.76C1439.72 3292.07 1439.72 3292.07 1439.72 3292.07C1439.72 3292.06 1439.71 3292.06 1439.71 3292.06C1439.7 3292.05 1439.69 3292.04 1439.67 3292.02C1439.64 3291.99 1439.59 3291.94 1439.53 3291.87C1439.41 3291.75 1439.22 3291.55 1438.97 3291.3C1438.48 3290.8 1437.75 3290.06 1436.78 3289.1C1434.84 3287.18 1431.95 3284.38 1428.18 3280.85C1420.64 3273.79 1409.54 3263.82 1395.29 3252.17C1366.8 3228.87 1325.72 3198.83 1275.36 3171.9C1174.67 3118.03 1036.8 3076.49 888.388 3126.16L889.023 3128.05ZM189.493 3127.97C379.872 3239.85 592.828 3227.17 889.023 3128.05L888.388 3126.16C592.372 3225.21 380.128 3237.68 190.507 3126.24L189.493 3127.97ZM-0.506673 3016.3L189.493 3127.97L190.507 3126.24L0.506673 3014.58L-0.506673 3016.3ZM-1.99927 1673.11L-1 3015.44L1 3015.44L0.000732183 1673.11L-1.99927 1673.11Z" fill="#4AFF85" mask="url(#path-5-outside-3_3968_101714)"/>
<defs>
<linearGradient id="paint0_linear_3968_101714" x1="719" y1="750.734" x2="719.536" y2="3182.27" gradientUnits="userSpaceOnUse">
<stop stop-color="#B4FFCA" stop-opacity="0.74"/>
<stop offset="0.401042" stop-color="#D7FFF4"/>
<stop offset="0.677083" stop-color="#DBFFE0"/>
<stop offset="1" stop-color="#B4FFBB"/>
</linearGradient>
<linearGradient id="paint1_linear_3968_101714" x1="718.5" y1="767.994" x2="719.028" y2="3161.68" gradientUnits="userSpaceOnUse">
<stop stop-color="#B4FFCA" stop-opacity="0.74"/>
<stop offset="0.401042" stop-color="#D7FFF4"/>
<stop offset="0.677083" stop-color="#DBFFE0"/>
<stop offset="1" stop-color="#B4FFBB"/>
</linearGradient>
<linearGradient id="paint2_linear_3968_101714" x1="719" y1="787.08" x2="719.52" y2="3145.59" gradientUnits="userSpaceOnUse">
<stop stop-color="#B4FFCA" stop-opacity="0.74"/>
<stop offset="0.401042" stop-color="#D7FFF4"/>
<stop offset="0.677083" stop-color="#DBFFE0"/>
<stop offset="1" stop-color="#B4FFBB"/>
</linearGradient>
</defs>
</svg>
