<svg width="1440" height="588" viewBox="0 0 1440 588" fill="none" xmlns="http://www.w3.org/2000/svg">
<path opacity="0.6" d="M-138 45.0852L-138.071 44.5902L-138.5 44.6515V45.0852L-138.5 568.496V569.073L-137.929 568.991L-138 568.496C-137.929 568.991 -137.928 568.991 -137.925 568.991L-137.913 568.989L-137.865 568.982L-137.673 568.955C-137.503 568.931 -137.249 568.895 -136.913 568.848C-136.241 568.753 -135.24 568.614 -133.929 568.433C-131.305 568.071 -127.436 567.544 -122.455 566.884C-112.492 565.565 -98.0803 563.715 -80.2839 561.592C-44.6908 557.346 4.43843 552.007 58.5835 547.636C166.895 538.892 295.206 534.027 375.405 549.499C382.974 550.959 390.509 552.426 398.026 553.889C549.965 583.46 694.174 611.527 950.296 554.414C1084.57 524.473 1210.71 528.112 1303.29 539.24C1349.58 544.803 1387.47 552.238 1413.8 558.282C1426.96 561.303 1437.22 563.977 1444.2 565.895C1447.68 566.854 1450.35 567.624 1452.14 568.154C1453.04 568.419 1453.71 568.624 1454.17 568.763C1454.4 568.832 1454.57 568.885 1454.68 568.92L1454.81 568.96L1454.84 568.97L1454.85 568.972C1454.85 568.973 1454.85 568.973 1454.86 568.95L1454.85 568.973L1455.5 569.178V568.496L1455.5 45.0852V44.6851L1455.11 44.5974L1455 45.0852C1455.11 44.5974 1455.11 44.597 1455.1 44.5962L1455.09 44.5927L1455.03 44.5792L1454.79 44.5255C1454.57 44.4781 1454.25 44.4076 1453.83 44.3152C1452.98 44.1303 1451.72 43.8576 1450.06 43.5063C1446.74 42.8035 1441.83 41.786 1435.45 40.5262C1422.69 38.0068 1404.06 34.5186 1380.6 30.643C1333.68 22.8919 1267.42 13.5907 1190.05 7.38984C1035.32 -5.01108 836.125 -5.01533 658.366 44.6036C572.722 68.5097 468.414 90.1724 373.35 99.835C325.818 104.666 280.608 106.496 241.203 104.11C201.789 101.723 168.225 95.1201 143.958 83.1134C82.1515 52.533 11.6371 42.9083 -43.4011 40.9219C-70.9244 39.9286 -94.5876 40.8451 -111.371 42.0101C-119.763 42.5927 -126.435 43.2373 -131.011 43.7365C-133.299 43.9861 -135.063 44.1994 -136.255 44.3503C-136.851 44.4258 -137.304 44.4856 -137.609 44.5267C-137.761 44.5472 -137.876 44.5631 -137.954 44.5738L-138.041 44.586L-138.063 44.5891L-138.069 44.5899C-138.07 44.5901 -138.071 44.5902 -138 45.0852Z" fill="url(#paint0_linear_2569_131343)" stroke="#4AFF85"/>
<defs>
<linearGradient id="paint0_linear_2569_131343" x1="667.553" y1="64.5731" x2="667.553" y2="614.752" gradientUnits="userSpaceOnUse">
<stop stop-color="#BAFFD9" stop-opacity="0.31"/>
<stop offset="0.546875" stop-color="#BAFFD9"/>
<stop offset="1" stop-color="#ECFFE9"/>
</linearGradient>
</defs>
</svg>
