<svg width="1440" height="561" viewBox="0 0 1440 561" fill="none" xmlns="http://www.w3.org/2000/svg">
<path d="M1440 54.1661L1440.13 53.684L1440.5 53.7849V54.1661L1440.5 551.771V552.375L1439.91 552.263L1440 551.771C1439.91 552.263 1439.91 552.262 1439.9 552.262L1439.89 552.259L1439.84 552.249L1439.62 552.209C1439.43 552.173 1439.14 552.12 1438.77 552.049C1438.01 551.909 1436.89 551.701 1435.43 551.431C1432.49 550.891 1428.17 550.103 1422.61 549.11C1411.5 547.124 1395.47 544.321 1375.78 541.048C1336.39 534.503 1282.36 526.083 1223.81 518.583C1165.25 511.082 1102.17 504.503 1044.67 501.639C987.153 498.774 935.262 499.628 899.069 506.976C862.848 514.33 837.501 523.268 814.749 531.72C812.618 532.511 810.511 533.298 808.419 534.08C788.167 541.643 769.39 548.656 745.961 553.551C694.257 564.354 619.948 564.837 456.931 538.413C293.969 511.998 180.016 515.463 106.819 525.524C70.2209 530.555 43.8104 537.234 26.5563 542.653C17.9291 545.362 11.5908 547.756 7.4126 549.471C5.32336 550.329 3.77417 551.017 2.7489 551.489C2.23621 551.726 1.85449 551.908 1.60168 552.031C1.47534 552.093 1.38123 552.139 1.31897 552.171L1.24976 552.205L1.23303 552.214L1.22913 552.216C1.22839 552.216 1.22827 552.216 1 551.771L1.22827 552.216L0.5 552.59V551.771L0.5 54.1661V53.7857L0.866577 53.6842L1 54.1661C0.866577 53.6842 0.868164 53.6838 0.871338 53.6829L0.88501 53.6791L0.939331 53.6642L1.15503 53.6051C1.34619 53.5529 1.63171 53.4752 2.01001 53.3733C2.76636 53.1695 3.89331 52.8687 5.37659 52.4805C8.34302 51.7041 12.7346 50.5778 18.4375 49.1781C29.843 46.3787 46.4933 42.4852 67.4761 38.108C109.441 29.3537 168.738 18.6641 238.069 10.9222C376.722 -4.56053 555.549 -8.25937 716.141 38.9184C793.494 61.6428 879.456 78.0677 960.065 82.4445C1040.68 86.8218 1115.9 79.1448 1171.79 53.7111C1222.36 30.7002 1289.48 30.7144 1343.88 36.4544C1371.1 39.3256 1395.16 43.6323 1412.41 47.2212C1421.04 49.0156 1427.97 50.6308 1432.74 51.7976C1435.13 52.381 1436.97 52.8523 1438.22 53.1779C1438.85 53.3407 1439.33 53.4671 1439.65 53.5528C1439.81 53.5957 1439.93 53.6284 1440.01 53.6504L1440.1 53.6754L1440.12 53.6818L1440.13 53.6834C1440.13 53.6838 1440.13 53.684 1440 54.1661Z" fill="url(#paint0_linear_2569_131344)" stroke="#4AFF85"/>
<defs>
<linearGradient id="paint0_linear_2569_131344" x1="724.969" y1="54.1658" x2="724.969" y2="577.219" gradientUnits="userSpaceOnUse">
<stop stop-color="#BAFFD9" stop-opacity="0.31"/>
<stop offset="0.546875" stop-color="#C8FFE1"/>
<stop offset="1" stop-color="#ECFFE9"/>
</linearGradient>
</defs>
</svg>
