<svg width="1440" height="896" viewBox="0 0 1440 896" fill="none" xmlns="http://www.w3.org/2000/svg">
<mask id="path-1-outside-1_3782_92470" maskUnits="userSpaceOnUse" x="-1" y="39.5391" width="1442" height="810" fill="black">
<rect fill="white" x="-1" y="39.5391" width="1442" height="810"/>
<path fill-rule="evenodd" clip-rule="evenodd" d="M1440 67.4256V438.421V824.146C1440 824.146 1195.54 753.94 898.594 789.043C763.923 804.963 678.094 793.719 605.155 784.164C517.268 772.65 448.097 763.588 334.746 807.457C127.324 887.732 0 824.146 0 824.146V438.421L4.88758e-05 67.4256C4.88758e-05 67.4256 295.313 200.788 541.406 101.189C671.145 48.6806 729.36 66.4819 785.798 83.74C836.414 99.2177 885.601 114.259 983.672 77.7531C1191.09 0.543171 1440 67.4256 1440 67.4256Z"/>
</mask>
<path fill-rule="evenodd" clip-rule="evenodd" d="M1440 67.4256V438.421V824.146C1440 824.146 1195.54 753.94 898.594 789.043C763.923 804.963 678.094 793.719 605.155 784.164C517.268 772.65 448.097 763.588 334.746 807.457C127.324 887.732 0 824.146 0 824.146V438.421L4.88758e-05 67.4256C4.88758e-05 67.4256 295.313 200.788 541.406 101.189C671.145 48.6806 729.36 66.4819 785.798 83.74C836.414 99.2177 885.601 114.259 983.672 77.7531C1191.09 0.543171 1440 67.4256 1440 67.4256Z" fill="url(#paint0_linear_3782_92470)"/>
<path d="M1440 67.4256H1441V66.6588L1440.26 66.4599L1440 67.4256ZM1440 824.146L1439.72 825.108L1441 825.474V824.146H1440ZM898.594 789.043L898.711 790.036L898.594 789.043ZM605.155 784.164L605.285 783.172L605.155 784.164ZM334.746 807.457L335.106 808.389L334.746 807.457ZM0 824.146H-1V824.765L-0.446784 825.041L0 824.146ZM0 438.421H-1H0ZM4.88758e-05 67.4256L0.411624 66.5142L-0.999951 65.8768L-0.999951 67.4256H4.88758e-05ZM541.406 101.189L541.031 100.262L541.406 101.189ZM785.798 83.74L785.506 84.6963L785.798 83.74ZM983.672 77.7531L983.323 76.8159L983.672 77.7531ZM1441 438.421V67.4256H1439V438.421H1441ZM1441 824.146V438.421H1439V824.146H1441ZM898.711 790.036C1047.08 772.497 1182.34 781.266 1280.52 794.422C1329.6 801 1369.41 808.674 1396.95 814.702C1410.72 817.716 1421.41 820.319 1428.67 822.167C1432.3 823.092 1435.06 823.827 1436.92 824.332C1437.85 824.584 1438.55 824.778 1439.02 824.909C1439.26 824.975 1439.43 825.025 1439.55 825.058C1439.61 825.074 1439.65 825.087 1439.68 825.095C1439.7 825.099 1439.71 825.103 1439.71 825.105C1439.72 825.106 1439.72 825.106 1439.72 825.107C1439.72 825.107 1439.72 825.108 1440 824.146C1440.28 823.185 1440.27 823.185 1440.27 823.184C1440.27 823.184 1440.27 823.183 1440.26 823.182C1440.26 823.18 1440.24 823.176 1440.23 823.172C1440.2 823.163 1440.15 823.151 1440.09 823.134C1439.97 823.1 1439.8 823.049 1439.56 822.983C1439.08 822.851 1438.38 822.655 1437.44 822.401C1435.58 821.895 1432.8 821.156 1429.16 820.229C1421.89 818.375 1411.17 815.768 1397.38 812.748C1369.8 806.71 1329.93 799.026 1280.78 792.44C1182.49 779.268 1047.05 770.486 898.476 788.05L898.711 790.036ZM605.026 785.155C677.991 794.714 763.917 805.971 898.711 790.036L898.476 788.05C763.929 803.956 678.197 792.724 605.285 783.172L605.026 785.155ZM335.106 808.389C448.217 764.614 517.182 773.647 605.026 785.155L605.285 783.172C517.354 771.653 447.976 762.562 334.385 806.524L335.106 808.389ZM0 824.146C-0.446784 825.041 -0.445793 825.042 -0.444316 825.042C-0.443177 825.043 -0.441214 825.044 -0.438934 825.045C-0.434375 825.047 -0.427874 825.05 -0.419434 825.055C-0.402555 825.063 -0.37792 825.075 -0.345553 825.091C-0.280818 825.122 -0.185152 825.169 -0.058735 825.229C0.194099 825.35 0.56994 825.526 1.06735 825.752C2.06216 826.203 3.54325 826.852 5.49908 827.648C9.41074 829.24 15.2215 831.42 22.8391 833.783C38.0743 838.507 60.5371 843.961 89.4886 846.9C147.397 852.777 231.242 848.586 335.106 808.389L334.385 806.524C230.827 846.602 147.3 850.757 89.6905 844.91C60.8834 841.986 38.5514 836.561 23.4315 831.872C15.8715 829.528 10.1146 827.367 6.25304 825.796C4.32225 825.01 2.86531 824.371 1.89374 823.93C1.40796 823.71 1.04353 823.539 0.80189 823.424C0.681069 823.366 0.590946 823.323 0.531702 823.294C0.50208 823.279 0.480177 823.268 0.466017 823.261C0.458936 823.258 0.453792 823.255 0.450585 823.254C0.448982 823.253 0.448032 823.252 0.44723 823.252C0.446764 823.252 0.446784 823.252 0 824.146ZM-1 438.421V824.146H1V438.421H-1ZM-0.999951 67.4256L-1 438.421H1L1.00005 67.4256H-0.999951ZM541.031 100.262C418.245 149.956 283.118 141.55 178.614 120.676C126.373 110.242 81.8136 96.6976 50.3158 85.7625C34.5675 80.2952 22.086 75.4807 13.5441 72.0341C9.27317 70.3109 5.98726 68.9296 3.77046 67.9798C2.66206 67.5049 1.82094 67.1379 1.25763 66.8899C0.975975 66.7659 0.76377 66.6717 0.62233 66.6086C0.551611 66.5771 0.498582 66.5533 0.46341 66.5375C0.445823 66.5296 0.432701 66.5237 0.424063 66.5198C0.419744 66.5179 0.416635 66.5165 0.414472 66.5155C0.412486 66.5146 0.411624 66.5142 4.88758e-05 67.4256C-0.411526 68.337 -0.410135 68.3376 -0.407621 68.3388C-0.405282 68.3398 -0.401643 68.3414 -0.39697 68.3435C-0.387624 68.3478 -0.373792 68.354 -0.355494 68.3622C-0.318897 68.3786 -0.264436 68.403 -0.192274 68.4352C-0.0479515 68.4995 0.167173 68.5951 0.451785 68.7204C1.02101 68.971 1.86819 69.3406 2.9828 69.8182C5.21202 70.7733 8.51104 72.16 12.7957 73.8889C21.365 77.3465 33.8774 82.1728 49.6599 87.6519C81.2236 98.6098 125.873 112.181 178.222 122.637C282.898 143.545 418.474 152.021 541.781 102.116L541.031 100.262ZM786.09 82.7837C757.87 74.1544 729.08 65.3463 691.091 65.302C653.103 65.2577 605.985 73.9735 541.031 100.262L541.781 102.116C606.567 75.8956 653.425 67.2581 691.089 67.302C728.751 67.3459 757.287 76.0675 785.506 84.6963L786.09 82.7837ZM983.323 76.8159C934.385 95.0326 897.702 100.367 866.976 99.2409C836.24 98.1145 811.405 90.5244 786.09 82.7837L785.506 84.6963C810.808 92.4333 835.874 100.102 866.903 101.24C897.942 102.377 934.888 96.9791 984.021 78.6903L983.323 76.8159ZM1440 67.4256C1440.26 66.4599 1440.26 66.4596 1440.26 66.459C1440.25 66.4584 1440.25 66.4576 1440.25 66.4566C1440.24 66.4545 1440.23 66.4513 1440.21 66.4472C1440.18 66.439 1440.14 66.4268 1440.07 66.4107C1439.95 66.3785 1439.77 66.3308 1439.53 66.2683C1439.05 66.1435 1438.34 65.9597 1437.4 65.7235C1435.52 65.2511 1432.74 64.569 1429.13 63.7286C1421.9 62.0478 1411.36 59.734 1398.05 57.1993C1371.45 52.1302 1333.82 46.177 1289.7 42.6388C1201.48 35.564 1087.23 38.1385 983.323 76.8159L984.021 78.6903C1087.54 40.1578 1201.45 37.5685 1289.54 44.6324C1333.57 48.1637 1371.13 54.1055 1397.68 59.164C1410.95 61.6931 1421.47 64.0013 1428.67 65.6765C1432.27 66.5142 1435.04 67.1935 1436.91 67.6632C1437.84 67.898 1438.55 68.0804 1439.03 68.2039C1439.27 68.2656 1439.44 68.3127 1439.56 68.3442C1439.62 68.3599 1439.67 68.3718 1439.7 68.3797C1439.71 68.3837 1439.72 68.3866 1439.73 68.3886C1439.73 68.3895 1439.74 68.3902 1439.74 68.3907C1439.74 68.3912 1439.74 68.3914 1440 67.4256Z" fill="#4AFF85" mask="url(#path-1-outside-1_3782_92470)"/>
<g opacity="0.6">
<mask id="path-3-outside-2_3782_92470" maskUnits="userSpaceOnUse" x="-37.9121" y="18.5352" width="1516" height="851" fill="black">
<rect fill="white" x="-37.9121" y="18.5352" width="1516" height="851"/>
<path fill-rule="evenodd" clip-rule="evenodd" d="M1476.91 437.814H1476.91V843.312C1476.91 843.312 1219.91 769.506 907.746 806.409C766.171 823.146 675.942 811.325 599.265 801.28C506.872 789.176 434.155 779.649 314.993 825.767C96.9384 910.157 -36.9121 843.312 -36.9121 843.312V437.814H-36.9109V47.8C-36.9109 47.8 273.54 187.999 532.249 83.2937C668.639 28.094 729.838 46.8079 789.169 64.9506C842.38 81.2218 894.088 97.0337 997.186 58.6569C1215.24 -22.511 1476.91 47.8 1476.91 47.8V437.814Z"/>
</mask>
<path fill-rule="evenodd" clip-rule="evenodd" d="M1476.91 437.814H1476.91V843.312C1476.91 843.312 1219.91 769.506 907.746 806.409C766.171 823.146 675.942 811.325 599.265 801.28C506.872 789.176 434.155 779.649 314.993 825.767C96.9384 910.157 -36.9121 843.312 -36.9121 843.312V437.814H-36.9109V47.8C-36.9109 47.8 273.54 187.999 532.249 83.2937C668.639 28.094 729.838 46.8079 789.169 64.9506C842.38 81.2218 894.088 97.0337 997.186 58.6569C1215.24 -22.511 1476.91 47.8 1476.91 47.8V437.814Z" fill="url(#paint1_linear_3782_92470)"/>
<path d="M1476.91 437.814V436.814H1475.91V437.814H1476.91ZM1476.91 437.814V438.814H1477.91V437.814H1476.91ZM1476.91 843.312L1476.63 844.273L1477.91 844.64V843.312H1476.91ZM907.746 806.409L907.863 807.402L907.746 806.409ZM599.265 801.28L599.135 802.271L599.265 801.28ZM314.993 825.767L314.632 824.834L314.993 825.767ZM-36.9121 843.312H-37.9121V843.931L-37.3589 844.207L-36.9121 843.312ZM-36.9121 437.814V436.814H-37.9121V437.814H-36.9121ZM-36.9109 437.814V438.814H-35.9109V437.814H-36.9109ZM-36.9109 47.8L-36.4993 46.8886L-37.9109 46.2511V47.8H-36.9109ZM532.249 83.2937L531.874 82.3668L532.249 83.2937ZM789.169 64.9506L788.877 65.9069L789.169 64.9506ZM997.186 58.6569L996.837 57.7197L997.186 58.6569ZM1476.91 47.8H1477.91V47.0332L1477.17 46.8342L1476.91 47.8ZM1476.91 438.814H1476.91V436.814H1476.91V438.814ZM1477.91 843.312V437.814H1475.91V843.312H1477.91ZM907.863 807.402C1063.84 788.963 1206.04 798.182 1309.25 812.013C1360.86 818.928 1402.71 826.996 1431.66 833.333C1446.13 836.502 1457.38 839.239 1465.01 841.182C1468.82 842.154 1471.73 842.927 1473.68 843.457C1474.66 843.723 1475.4 843.927 1475.89 844.065C1476.14 844.134 1476.32 844.186 1476.45 844.221C1476.51 844.238 1476.55 844.252 1476.58 844.26C1476.6 844.265 1476.61 844.268 1476.62 844.27C1476.62 844.271 1476.63 844.272 1476.63 844.273C1476.63 844.273 1476.63 844.273 1476.91 843.312C1477.18 842.351 1477.18 842.351 1477.18 842.35C1477.18 842.349 1477.17 842.349 1477.17 842.347C1477.16 842.345 1477.15 842.342 1477.13 842.337C1477.1 842.328 1477.05 842.315 1476.99 842.297C1476.86 842.261 1476.68 842.208 1476.43 842.138C1475.93 841.999 1475.19 841.794 1474.21 841.527C1472.24 840.994 1469.32 840.218 1465.5 839.244C1457.85 837.295 1446.58 834.554 1432.09 831.38C1403.09 825.032 1361.19 816.954 1309.52 810.031C1206.19 796.185 1063.82 786.952 907.628 805.416L907.863 807.402ZM599.135 802.271C675.839 812.32 766.165 824.153 907.863 807.402L907.628 805.416C766.177 822.138 676.045 810.33 599.395 800.288L599.135 802.271ZM315.354 826.699C434.275 780.675 506.786 790.173 599.135 802.271L599.395 800.288C506.958 788.178 434.034 778.624 314.632 824.834L315.354 826.699ZM-36.9121 843.312C-37.3589 844.207 -37.3579 844.207 -37.3564 844.208C-37.3552 844.209 -37.3531 844.21 -37.3507 844.211C-37.346 844.213 -37.3392 844.217 -37.3304 844.221C-37.3127 844.23 -37.2868 844.242 -37.2529 844.259C-37.185 844.292 -37.0846 844.341 -36.9518 844.404C-36.6863 844.531 -36.2915 844.716 -35.7689 844.953C-34.7237 845.427 -33.1673 846.109 -31.1118 846.946C-27.0009 848.619 -20.8937 850.91 -12.8871 853.393C3.12617 858.359 26.7371 864.092 57.169 867.181C118.038 873.358 206.173 868.954 315.354 826.699L314.632 824.834C205.758 866.97 117.941 871.338 57.3709 865.191C27.0834 862.117 3.60326 856.413 -12.2947 851.483C-20.2437 849.018 -26.297 846.746 -30.3579 845.093C-32.3883 844.267 -33.9205 843.595 -34.9425 843.132C-35.4535 842.9 -35.8369 842.72 -36.0912 842.599C-36.2183 842.538 -36.3132 842.492 -36.3756 842.462C-36.4068 842.446 -36.4299 842.435 -36.4449 842.428C-36.4524 842.424 -36.4578 842.421 -36.4612 842.42C-36.4629 842.419 -36.464 842.418 -36.4648 842.418C-36.4653 842.418 -36.4653 842.418 -36.9121 843.312ZM-37.9121 437.814V843.312H-35.9121V437.814H-37.9121ZM-36.9109 436.814H-36.9121V438.814H-36.9109V436.814ZM-37.9109 47.8V437.814H-35.9109V47.8H-37.9109ZM531.874 82.3668C402.78 134.614 260.715 125.775 150.849 103.831C95.9277 92.8607 49.0815 78.6215 15.9674 67.1253C-0.589127 61.3775 -13.7112 56.3158 -22.6917 52.6923C-27.1819 50.8805 -30.6366 49.4284 -32.9674 48.4297C-34.1328 47.9304 -35.0172 47.5445 -35.6095 47.2837C-35.9057 47.1533 -36.1288 47.0542 -36.2776 46.9879C-36.352 46.9547 -36.4078 46.9297 -36.4448 46.9131C-36.4633 46.9048 -36.4771 46.8986 -36.4862 46.8945C-36.4907 46.8925 -36.494 46.891 -36.4963 46.89C-36.4984 46.889 -36.4993 46.8886 -36.9109 47.8C-37.3225 48.7114 -37.321 48.712 -37.3184 48.7132C-37.3159 48.7143 -37.3121 48.716 -37.3072 48.7182C-37.2974 48.7226 -37.2829 48.7292 -37.2637 48.7378C-37.2252 48.7551 -37.168 48.7807 -37.0922 48.8145C-36.9405 48.8821 -36.7145 48.9825 -36.4153 49.1142C-35.8171 49.3776 -34.9266 49.7661 -33.755 50.2681C-31.4119 51.272 -27.9441 52.7297 -23.4401 54.547C-14.4322 58.1816 -1.27919 63.255 15.3114 69.0147C48.4915 80.5338 95.4274 94.8002 150.457 105.792C260.494 127.771 403.009 136.679 532.624 84.2207L531.874 82.3668ZM789.461 63.9944C759.795 54.9227 729.535 45.6653 689.607 45.6187C649.68 45.5722 600.153 54.7328 531.874 82.3668L532.624 84.2207C600.735 56.6549 650.002 47.5726 689.605 47.6187C729.206 47.6649 759.212 56.8358 788.877 65.9069L789.461 63.9944ZM996.837 57.7197C945.385 76.872 906.816 82.4814 874.507 81.2974C842.187 80.113 816.073 72.1318 789.461 63.9944L788.877 65.9069C815.476 74.0407 841.821 82.1009 874.433 83.2961C907.056 84.4916 945.889 78.8186 997.535 59.5941L996.837 57.7197ZM1476.91 47.8C1477.17 46.8342 1477.17 46.8339 1477.16 46.8333C1477.16 46.8328 1477.16 46.8319 1477.15 46.8308C1477.15 46.8286 1477.13 46.8253 1477.12 46.821C1477.08 46.8123 1477.04 46.7995 1476.97 46.7826C1476.84 46.7488 1476.65 46.6986 1476.4 46.633C1475.9 46.5017 1475.15 46.3086 1474.16 46.0603C1472.18 45.5638 1469.26 44.8468 1465.46 43.9634C1457.87 42.1966 1446.79 39.7643 1432.8 37.0998C1404.84 31.7711 1365.28 25.513 1318.9 21.7937C1226.16 14.3564 1106.06 17.0633 996.837 57.7197L997.535 59.5941C1106.37 19.0826 1226.13 16.361 1318.74 23.7873C1365.03 27.4997 1404.52 33.7464 1432.43 39.0645C1446.38 41.7234 1457.44 44.15 1465.01 45.9113C1468.8 46.7919 1471.71 47.5062 1473.67 48C1474.65 48.2469 1475.4 48.4387 1475.9 48.5685C1476.15 48.6335 1476.34 48.6829 1476.46 48.7161C1476.52 48.7327 1476.57 48.7452 1476.6 48.7535C1476.62 48.7576 1476.63 48.7607 1476.64 48.7628C1476.64 48.7638 1476.64 48.7645 1476.64 48.765C1476.65 48.7655 1476.65 48.7657 1476.91 47.8ZM1477.91 437.814V47.8H1475.91V437.814H1477.91Z" fill="#4AFF85" mask="url(#path-3-outside-2_3782_92470)"/>
</g>
<g opacity="0.4">
<mask id="path-5-outside-3_3782_92470" maskUnits="userSpaceOnUse" x="-78" y="0" width="1597" height="896" fill="black">
<rect fill="white" x="-78" width="1597" height="896"/>
<path fill-rule="evenodd" clip-rule="evenodd" d="M1517.25 441.502H-77V30.7665C-77 30.7665 249.945 178.414 522.399 68.146C666.035 10.0136 730.486 29.7217 792.969 48.8284C849.007 65.9641 903.463 82.616 1012.04 42.2003C1241.68 -43.2801 1517.25 30.7665 1517.25 30.7665V441.502ZM-76.9999 868.544V441.502H1517.25V868.544C1517.25 868.544 1246.6 790.817 917.847 829.68C768.751 847.306 673.728 834.857 592.977 824.279C495.675 811.531 419.095 801.499 293.602 850.066C63.9621 938.941 -76.9999 868.544 -76.9999 868.544Z"/>
</mask>
<path fill-rule="evenodd" clip-rule="evenodd" d="M1517.25 441.502H-77V30.7665C-77 30.7665 249.945 178.414 522.399 68.146C666.035 10.0136 730.486 29.7217 792.969 48.8284C849.007 65.9641 903.463 82.616 1012.04 42.2003C1241.68 -43.2801 1517.25 30.7665 1517.25 30.7665V441.502ZM-76.9999 868.544V441.502H1517.25V868.544C1517.25 868.544 1246.6 790.817 917.847 829.68C768.751 847.306 673.728 834.857 592.977 824.279C495.675 811.531 419.095 801.499 293.602 850.066C63.9621 938.941 -76.9999 868.544 -76.9999 868.544Z" fill="url(#paint2_linear_3782_92470)"/>
<path d="M-77 441.502H-78V442.502H-77V441.502ZM1517.25 441.502V442.502H1518.25V441.502H1517.25ZM-77 30.7665L-76.5884 29.8551L-78 29.2177V30.7665H-77ZM522.399 68.146L522.774 69.073L522.399 68.146ZM792.969 48.8284L793.262 47.8721L792.969 48.8284ZM1012.04 42.2003L1012.39 43.1374L1012.04 42.2003ZM1517.25 30.7665H1518.25V29.9997L1517.51 29.8008L1517.25 30.7665ZM-76.9999 441.502V440.502H-77.9999V441.502H-76.9999ZM-76.9999 868.544H-77.9999V869.163L-77.4467 869.439L-76.9999 868.544ZM1517.25 441.502H1518.25V440.502H1517.25V441.502ZM1517.25 868.544L1516.97 869.505L1518.25 869.872V868.544H1517.25ZM917.847 829.68L917.73 828.687L917.847 829.68ZM592.977 824.279L593.107 823.287L592.977 824.279ZM293.602 850.066L293.241 849.134L293.602 850.066ZM-77 442.502H1517.25V440.502H-77V442.502ZM-78 30.7665V441.502H-76V30.7665H-78ZM522.024 67.2191C386.057 122.248 236.433 112.937 120.725 89.8261C62.8829 78.2728 13.5455 63.2764 -21.3298 51.1688C-38.7668 45.1152 -52.5869 39.7844 -62.0453 35.968C-66.7744 34.0599 -70.413 32.5304 -72.8679 31.4786C-74.0954 30.9527 -75.0269 30.5462 -75.6509 30.2715C-75.9629 30.1341 -76.1979 30.0297 -76.3547 29.9598C-76.4331 29.9249 -76.4918 29.8985 -76.5309 29.881C-76.5504 29.8723 -76.5649 29.8657 -76.5745 29.8614C-76.5793 29.8592 -76.5828 29.8577 -76.5852 29.8566C-76.5874 29.8556 -76.5884 29.8551 -77 30.7665C-77.4116 31.6779 -77.4101 31.6786 -77.4073 31.6798C-77.4047 31.681 -77.4007 31.6828 -77.3956 31.6851C-77.3853 31.6897 -77.37 31.6966 -77.3498 31.7057C-77.3093 31.7238 -77.2491 31.7508 -77.1693 31.7864C-77.0097 31.8576 -76.7717 31.9633 -76.4567 32.1019C-75.8268 32.3792 -74.8892 32.7884 -73.6556 33.3169C-71.1882 34.3741 -67.5365 35.909 -62.7936 37.8227C-53.3079 41.6501 -39.4569 46.9928 -21.9857 53.0582C12.9554 65.1886 62.3826 80.2124 120.333 91.7874C236.212 114.933 386.287 124.312 522.774 69.073L522.024 67.2191ZM793.262 47.8721C762.019 38.3185 730.159 28.5715 688.117 28.5225C646.078 28.4735 593.926 38.1188 522.024 67.2191L522.774 69.073C594.508 40.0409 646.4 30.4739 688.115 30.5225C729.829 30.5712 761.436 40.2316 792.677 49.7847L793.262 47.8721ZM1011.69 41.2631C957.499 61.4348 916.873 67.344 882.839 66.0968C848.795 64.8492 821.287 56.4418 793.262 47.8721L792.677 49.7847C820.69 58.3507 848.428 66.8371 882.766 68.0954C917.113 69.3541 958.003 63.3814 1012.39 43.1374L1011.69 41.2631ZM1517.25 30.7665C1517.51 29.8008 1517.5 29.8004 1517.5 29.7998C1517.5 29.7992 1517.5 29.7983 1517.49 29.7971C1517.48 29.7948 1517.47 29.7914 1517.45 29.7868C1517.42 29.7777 1517.37 29.7642 1517.3 29.7464C1517.17 29.7108 1516.97 29.658 1516.7 29.5889C1516.17 29.4508 1515.38 29.2474 1514.34 28.986C1512.26 28.4631 1509.18 27.7081 1505.18 26.7778C1497.19 24.9173 1485.51 22.3559 1470.79 19.55C1441.34 13.9385 1399.68 7.3482 1350.84 3.43146C1253.17 -4.40061 1126.7 -1.54953 1011.69 41.2631L1012.39 43.1374C1127.01 0.469711 1253.15 -2.39608 1350.68 5.42506C1399.43 9.33493 1441.02 15.9138 1470.41 21.5147C1485.11 24.3151 1496.76 26.8708 1504.73 28.7258C1508.72 29.6532 1511.78 30.4055 1513.85 30.9256C1514.89 31.1857 1515.67 31.3877 1516.2 31.5245C1516.46 31.5929 1516.66 31.645 1516.79 31.6799C1516.86 31.6974 1516.91 31.7106 1516.94 31.7193C1516.95 31.7237 1516.97 31.727 1516.98 31.7291C1516.98 31.7302 1516.98 31.731 1516.98 31.7315C1516.99 31.732 1516.99 31.7323 1517.25 30.7665ZM1518.25 441.502V30.7665H1516.25V441.502H1518.25ZM-77.9999 441.502V868.544H-75.9999V441.502H-77.9999ZM1517.25 440.502H-76.9999V442.502H1517.25V440.502ZM1518.25 868.544V441.502H1516.25V868.544H1518.25ZM917.965 830.674C1082.23 811.254 1232 820.964 1340.7 835.53C1395.04 842.812 1439.12 851.309 1469.61 857.983C1484.85 861.321 1496.7 864.202 1504.73 866.249C1508.74 867.273 1511.81 868.087 1513.86 868.646C1514.89 868.925 1515.67 869.14 1516.19 869.285C1516.45 869.358 1516.65 869.413 1516.78 869.45C1516.84 869.469 1516.89 869.482 1516.92 869.492C1516.94 869.496 1516.95 869.5 1516.96 869.502C1516.96 869.503 1516.97 869.504 1516.97 869.505C1516.97 869.505 1516.97 869.505 1517.25 868.544C1517.52 867.583 1517.52 867.583 1517.52 867.582C1517.52 867.581 1517.51 867.58 1517.51 867.579C1517.5 867.577 1517.49 867.573 1517.47 867.568C1517.44 867.559 1517.39 867.545 1517.32 867.526C1517.19 867.488 1516.99 867.432 1516.73 867.359C1516.2 867.213 1515.42 866.996 1514.39 866.716C1512.32 866.155 1509.25 865.337 1505.22 864.311C1497.17 862.259 1485.3 859.372 1470.03 856.03C1439.5 849.345 1395.37 840.838 1340.96 833.547C1232.15 818.966 1082.21 809.243 917.73 828.687L917.965 830.674ZM592.847 825.27C673.625 835.853 768.745 848.314 917.965 830.674L917.73 828.687C768.757 846.298 673.831 833.862 593.107 823.287L592.847 825.27ZM293.963 850.999C419.215 802.525 495.589 812.529 592.847 825.27L593.107 823.287C495.761 810.534 418.974 800.473 293.241 849.134L293.963 850.999ZM-76.9999 868.544C-77.4467 869.439 -77.4457 869.439 -77.4441 869.44C-77.4429 869.441 -77.4407 869.442 -77.4383 869.443C-77.4333 869.445 -77.4262 869.449 -77.4169 869.454C-77.3983 869.463 -77.3712 869.476 -77.3355 869.493C-77.2642 869.528 -77.1585 869.579 -77.0189 869.646C-76.7396 869.779 -76.3241 869.974 -75.774 870.224C-74.6739 870.723 -73.0354 871.441 -70.8714 872.322C-66.5435 874.083 -60.1132 876.496 -51.6827 879.11C-34.8217 884.339 -9.95982 890.376 22.0851 893.628C86.1802 900.133 178.99 895.495 293.963 850.999L293.241 849.134C178.575 893.512 86.0829 898.113 22.287 891.638C-9.61358 888.401 -34.3447 882.393 -51.0903 877.2C-59.4632 874.603 -65.8396 872.21 -70.1175 870.469C-72.2564 869.599 -73.8707 868.891 -74.9476 868.402C-75.4861 868.158 -75.8901 867.969 -76.1583 867.841C-76.2923 867.777 -76.3924 867.728 -76.4583 867.696C-76.4912 867.68 -76.5156 867.668 -76.5314 867.66C-76.5393 867.656 -76.5451 867.654 -76.5487 867.652C-76.5505 867.651 -76.5517 867.65 -76.5526 867.65C-76.5531 867.65 -76.5532 867.649 -76.9999 868.544Z" fill="#4AFF85" mask="url(#path-5-outside-3_3782_92470)"/>
</g>
<defs>
<linearGradient id="paint0_linear_3782_92470" x1="720" y1="222.181" x2="720.032" y2="811.281" gradientUnits="userSpaceOnUse">
<stop stop-color="#C7FFD8" stop-opacity="0.74"/>
<stop offset="0.0001" stop-color="#B4FFCA" stop-opacity="0.74"/>
<stop offset="0.401042" stop-color="#D7FFF4"/>
<stop offset="0.677083" stop-color="#DBFFE0"/>
<stop offset="1" stop-color="#9AFFA4"/>
</linearGradient>
<linearGradient id="paint1_linear_3782_92470" x1="719.997" y1="210.488" x2="721.827" y2="847.781" gradientUnits="userSpaceOnUse">
<stop stop-color="#B4FFCA" stop-opacity="0.74"/>
<stop offset="0.0001" stop-color="#B4FFCA" stop-opacity="0.74"/>
<stop offset="0.401042" stop-color="#C8FFF0"/>
<stop offset="0.677083" stop-color="#E7FFEA"/>
<stop offset="1" stop-color="#DFFFDA"/>
</linearGradient>
<linearGradient id="paint2_linear_3782_92470" x1="720.123" y1="202.099" x2="722.05" y2="873.251" gradientUnits="userSpaceOnUse">
<stop stop-color="#B4FFCA" stop-opacity="0.74"/>
<stop offset="0.0001" stop-color="#B4FFCA" stop-opacity="0.74"/>
<stop offset="0.401042" stop-color="#C8FFF0"/>
<stop offset="0.677083" stop-color="#E7FFEA"/>
<stop offset="1" stop-color="#DFFFDA"/>
</linearGradient>
</defs>
</svg>
